<svg width="71" height="71" viewBox="0 0 71 71" fill="none" xmlns="http://www.w3.org/2000/svg">
<path d="M0 15C0 6.71573 6.71573 0 15 0H56C64.2843 0 71 6.71573 71 15V71H15C6.71573 71 0 64.2843 0 56V15Z" fill="url(#paint0_linear_278_2186)"/>
<g clip-path="url(#clip0_278_2186)">
<g clip-path="url(#clip1_278_2186)">
<g clip-path="url(#clip2_278_2186)">
<path d="M23.5888 22.6112C25.3862 16.0068 31.2866 11.1422 38.388 11.1422C46.8995 11.1422 53.7155 18.1871 53.7155 26.8482C53.7155 27.5852 54.172 28.3806 54.9471 28.8617C57.9351 30.7156 59.8969 34.0556 59.8969 37.8531C59.8969 41.2397 58.3403 44.2215 55.9367 46.1707L55.9211 46.1835C54.1593 47.5757 51.937 48.406 49.5571 48.406C48.6731 48.406 47.9566 47.6894 47.9566 46.8055C47.9566 45.9215 48.6731 45.2049 49.5571 45.2049C51.181 45.2049 52.7073 44.6403 53.9284 43.6781C55.6128 42.3083 56.6958 40.2271 56.6958 37.8531C56.6958 35.178 55.3191 32.8598 53.2594 31.5817C51.697 30.6121 50.5144 28.8623 50.5144 26.8482C50.5144 19.8753 45.0529 14.3433 38.388 14.3433C32.8117 14.3433 28.1174 18.1613 26.6775 23.4518C26.2365 25.0727 24.7306 26.1343 23.1263 26.1343C18.0356 26.1343 13.8561 30.3595 13.8561 35.6696C13.8561 39.085 15.6135 42.0765 18.2342 43.7544L18.2498 43.7644C19.7603 44.7562 21.2315 45.2049 22.0513 45.2049C22.9353 45.2049 23.6519 45.9215 23.6519 46.8055C23.6519 47.6894 22.9353 48.406 22.0513 48.406C20.3919 48.406 18.3132 47.634 16.5003 46.4452C12.9867 44.1919 10.655 40.1987 10.655 35.6696C10.655 28.6648 16.1954 22.9332 23.1263 22.9332C23.3626 22.9332 23.5466 22.7663 23.5888 22.6112Z" fill="white"/>
<path d="M38.3055 58.6269C38.3055 59.3069 37.7544 59.858 37.0744 59.858H34.612C33.932 59.858 33.3809 59.3069 33.3809 58.6269V56.1645C33.3809 55.4846 33.932 54.9333 34.612 54.9333H37.0744C37.7544 54.9333 38.3055 55.4846 38.3055 56.1645V58.6269Z" fill="white"/>
<path d="M44.2454 54.3983C44.9254 54.3983 45.4765 53.847 45.4765 53.167V50.7047C45.4765 50.0247 44.9254 49.4735 44.2454 49.4735H41.783C41.103 49.4735 40.5518 50.0247 40.5518 50.7047V53.167C40.5518 53.847 41.103 54.3983 41.783 54.3983H44.2454Z" fill="white"/>
<path d="M35.8435 51.0739C34.9595 51.0739 34.2429 50.3573 34.2429 49.4733V27.5137C34.2429 26.6298 34.9595 25.9132 35.8435 25.9132C36.7274 25.9132 37.444 26.6298 37.444 27.5137V49.4733C37.444 50.3573 36.7274 51.0739 35.8435 51.0739Z" fill="white"/>
<path d="M41.4138 45.0591C41.4138 45.943 42.1303 46.6596 43.0143 46.6596C43.8983 46.6596 44.6149 45.943 44.6149 45.0591V39.0805C44.6149 37.2445 46.1032 35.7563 47.9391 35.7563H48.5867C49.4706 35.7563 50.1872 35.0397 50.1872 34.1558C50.1872 33.2718 49.4706 32.5552 48.5867 32.5552H47.9391C44.3352 32.5552 41.4138 35.4767 41.4138 39.0805V45.0591Z" fill="white"/>
<path d="M26.2104 53.167C26.2104 53.847 26.7616 54.3983 27.4416 54.3983H29.904C30.5839 54.3983 31.1352 53.847 31.1352 53.167V50.7047C31.1352 50.0247 30.5839 49.4735 29.904 49.4735H27.4416C26.7616 49.4735 26.2104 50.0247 26.2104 50.7047V53.167Z" fill="white"/>
<path d="M30.2734 45.0591C30.2734 45.943 29.5568 46.6596 28.6728 46.6596C27.7889 46.6596 27.0723 45.943 27.0723 45.0591V39.0805C27.0723 37.2445 25.584 35.7563 23.7481 35.7563H23.1079C22.2239 35.7563 21.5073 35.0397 21.5073 34.1558C21.5073 33.2718 22.2239 32.5552 23.1079 32.5552H23.7481C27.3519 32.5552 30.2734 35.4767 30.2734 39.0805V45.0591Z" fill="white"/>
</g>
</g>
</g>
<defs>
<linearGradient id="paint0_linear_278_2186" x1="35.5" y1="0" x2="35.5" y2="71" gradientUnits="userSpaceOnUse">
<stop stop-color="#470277"/>
<stop offset="1" stop-color="#0B87BA"/>
</linearGradient>
<clipPath id="clip0_278_2186">
<rect width="49.69" height="48.7" fill="white" transform="translate(10.655 11.15)"/>
</clipPath>
<clipPath id="clip1_278_2186">
<rect width="49.69" height="48.7" fill="white" transform="translate(10.655 11.15)"/>
</clipPath>
<clipPath id="clip2_278_2186">
<rect width="49.69" height="48.7157" fill="white" transform="translate(10.655 11.1422)"/>
</clipPath>
</defs>
</svg>
