<svg width="72" height="72" viewBox="0 0 72 72" fill="none" xmlns="http://www.w3.org/2000/svg">
<rect width="72" height="72" rx="10" fill="#420477" fill-opacity="0.6"/>
<path fill-rule="evenodd" clip-rule="evenodd" d="M36.4999 21C37.8244 21 39.1009 21.201 40.3009 21.576C39.5431 22.0009 38.9246 22.6362 38.5199 23.4049C38.1153 24.1737 37.9418 25.0432 38.0205 25.9084C38.0991 26.7736 38.4266 27.5976 38.9633 28.2808C39.4999 28.964 40.2229 29.4772 41.0449 29.7585L41.6119 29.952C41.8291 30.026 42.0264 30.1489 42.1887 30.3112C42.351 30.4734 42.4739 30.6708 42.5479 30.888L42.7429 31.455C42.9581 32.0832 43.3096 32.6559 43.7723 33.1322C44.235 33.6085 44.7974 33.9765 45.4191 34.2098C46.0408 34.443 46.7064 34.5358 47.3682 34.4815C48.03 34.4272 48.6716 34.2271 49.2469 33.8955C49.2255 35.9156 48.7238 37.9016 47.7833 39.6895C46.8428 41.4774 45.4904 43.016 43.8379 44.178L41.6704 48.513C41.2966 49.2603 40.7221 49.8888 40.0113 50.328C39.3005 50.7673 38.4815 51 37.6459 51H35.3539C34.5183 51 33.6992 50.7673 32.9884 50.328C32.2776 49.8888 31.7032 49.2603 31.3294 48.513L29.1619 44.178C26.946 42.6191 25.2843 40.3949 24.4178 37.8279C23.5512 35.2609 23.5249 32.4846 24.3427 29.9017C25.1604 27.3187 26.7797 25.0634 28.9656 23.4629C31.1516 21.8623 33.7906 20.9996 36.4999 21ZM39.4999 46.146C38.5174 46.3825 37.5104 46.5013 36.4999 46.5C35.4894 46.5013 34.4823 46.3825 33.4999 46.146L34.0129 47.1705C34.1374 47.4196 34.3288 47.6292 34.5656 47.7757C34.8024 47.9222 35.0754 47.9999 35.3539 48H37.6459C37.9244 47.9999 38.1973 47.9222 38.4342 47.7757C38.671 47.6292 38.8624 47.4196 38.9869 47.1705L39.4999 46.146ZM46.9999 19.5C47.3128 19.5001 47.6178 19.5981 47.8722 19.7802C48.1267 19.9623 48.3178 20.2194 48.4189 20.5155L48.6139 21.0825C49.0639 22.401 50.0989 23.4375 51.4189 23.8875L51.9844 24.081C52.2802 24.1824 52.5369 24.3736 52.7187 24.628C52.9004 24.8825 52.9981 25.1873 52.9981 25.5C52.9981 25.8127 52.9004 26.1175 52.7187 26.372C52.5369 26.6264 52.2802 26.8176 51.9844 26.919L51.4174 27.114C50.0989 27.564 49.0624 28.599 48.6124 29.919L48.4189 30.4845C48.3175 30.7803 48.1263 31.037 47.8718 31.2188C47.6174 31.4005 47.3126 31.4983 46.9999 31.4983C46.6872 31.4983 46.3823 31.4005 46.1279 31.2188C45.8735 31.037 45.6822 30.7803 45.5809 30.4845L45.3859 29.9175C45.1637 29.2667 44.7954 28.6755 44.3091 28.1892C43.8229 27.703 43.2317 27.3346 42.5809 27.1125L42.0154 26.919C41.7196 26.8176 41.4629 26.6264 41.2811 26.372C41.0993 26.1175 41.0016 25.8127 41.0016 25.5C41.0016 25.1873 41.0993 24.8825 41.2811 24.628C41.4629 24.3736 41.7196 24.1824 42.0154 24.081L42.5824 23.886C43.9009 23.436 44.9374 22.401 45.3874 21.081L45.5809 20.5155C45.6819 20.2194 45.8731 19.9623 46.1275 19.7802C46.382 19.5981 46.687 19.5001 46.9999 19.5Z" fill="white"/>
</svg>
