<svg width="295" height="359" viewBox="0 0 295 359" fill="none" xmlns="http://www.w3.org/2000/svg">
<path d="M82.4375 357.674C81.1914 357.674 80.1875 356.678 80.1875 355.451C80.1875 354.225 81.1914 353.229 82.4375 353.229C83.6797 353.229 84.6875 354.225 84.6875 355.451C84.6875 356.678 83.6797 357.674 82.4375 357.674Z" fill="#0B87BA" stroke="#0B87BA" stroke-width="2" stroke-linecap="round" stroke-linejoin="round"/>
<path d="M82.4375 352.859V83.291" stroke="#0B87BA" stroke-width="2"/>
<mask id="mask0_586_1649" style="mask-type:luminance" maskUnits="userSpaceOnUse" x="46" y="46" width="249" height="81">
<path d="M46.2695 46.2385H294.09V126.057H46.2695V46.2385Z" fill="white"/>
</mask>
<g mask="url(#mask0_586_1649)">
<mask id="mask1_586_1649" style="mask-type:luminance" maskUnits="userSpaceOnUse" x="46" y="46" width="249" height="81">
<path d="M86.6797 46.2385H253.605C275.922 46.2385 294.016 64.105 294.016 86.1459C294.016 108.191 275.922 126.057 253.605 126.057H86.6797C64.3633 126.057 46.2695 108.191 46.2695 86.1459C46.2695 64.105 64.3633 46.2385 86.6797 46.2385Z" fill="white"/>
</mask>
<g mask="url(#mask1_586_1649)">
<mask id="mask2_586_1649" style="mask-type:luminance" maskUnits="userSpaceOnUse" x="46" y="46" width="249" height="81">
<path d="M295 46.0728H46V126.073H295V46.0728Z" fill="white"/>
</mask>
<g mask="url(#mask2_586_1649)">
<mask id="mask3_586_1649" style="mask-type:luminance" maskUnits="userSpaceOnUse" x="46" y="46" width="249" height="81">
<path d="M46.2695 46.2385H294.09V126.057H46.2695V46.2385Z" fill="white"/>
</mask>
<g mask="url(#mask3_586_1649)">
<mask id="mask4_586_1649" style="mask-type:luminance" maskUnits="userSpaceOnUse" x="46" y="46" width="249" height="81">
<path d="M86.6797 46.2385H253.605C275.922 46.2385 294.016 64.105 294.016 86.1459C294.016 108.191 275.922 126.057 253.605 126.057H86.6797C64.3633 126.057 46.2695 108.191 46.2695 86.1459C46.2695 64.105 64.3633 46.2385 86.6797 46.2385Z" fill="white"/>
</mask>
<g mask="url(#mask4_586_1649)">
<path d="M46.2695 46.2385H294.09V126.057H46.2695V46.2385Z" fill="#0B87BA"/>
</g>
</g>
</g>
</g>
</g>
<mask id="mask5_586_1649" style="mask-type:luminance" maskUnits="userSpaceOnUse" x="19" y="18" width="130" height="129">
<path d="M19.4531 18.9429H148.426V146.323H19.4531V18.9429Z" fill="white"/>
</mask>
<g mask="url(#mask5_586_1649)">
<mask id="mask6_586_1649" style="mask-type:luminance" maskUnits="userSpaceOnUse" x="19" y="18" width="130" height="129">
<path d="M83.9375 18.9429C48.3242 18.9429 19.4531 47.4575 19.4531 82.6311C19.4531 117.809 48.3242 146.323 83.9375 146.323C119.555 146.323 148.426 117.809 148.426 82.6311C148.426 47.4575 119.555 18.9429 83.9375 18.9429Z" fill="white"/>
</mask>
<g mask="url(#mask6_586_1649)">
<mask id="mask7_586_1649" style="mask-type:luminance" maskUnits="userSpaceOnUse" x="19" y="18" width="130" height="129">
<path d="M149 18.4182H19V146.813H149V18.4182Z" fill="white"/>
</mask>
<g mask="url(#mask7_586_1649)">
<mask id="mask8_586_1649" style="mask-type:luminance" maskUnits="userSpaceOnUse" x="19" y="18" width="130" height="129">
<path d="M19.4531 18.9429H148.426V146.323H19.4531V18.9429Z" fill="white"/>
</mask>
<g mask="url(#mask8_586_1649)">
<mask id="mask9_586_1649" style="mask-type:luminance" maskUnits="userSpaceOnUse" x="19" y="18" width="130" height="129">
<path d="M83.9375 18.9429C48.3242 18.9429 19.4531 47.4575 19.4531 82.6311C19.4531 117.809 48.3242 146.323 83.9375 146.323C119.555 146.323 148.426 117.809 148.426 82.6311C148.426 47.4575 119.555 18.9429 83.9375 18.9429Z" fill="white"/>
</mask>
<g mask="url(#mask9_586_1649)">
<path d="M19.4531 18.9429H148.426V146.323H19.4531V18.9429Z" fill="#3D96BB"/>
</g>
</g>
</g>
</g>
</g>
<mask id="mask10_586_1649" style="mask-type:luminance" maskUnits="userSpaceOnUse" x="0" y="-1" width="113" height="113">
<path d="M0 0H113V111.258H0V0Z" fill="white"/>
</mask>
<g mask="url(#mask10_586_1649)">
<path d="M0 88.3642V110.783C61.4141 109.622 110.973 60.6712 112.152 0.0153809H89.4531C40.0508 0.0192386 0 39.5717 0 88.3642Z" fill="#0B87BA"/>
</g>
<path d="M173.826 85.4667C173.826 84.3479 174.033 83.3024 174.451 82.334C174.877 81.3695 175.459 80.5246 176.201 79.8031C176.951 79.074 177.815 78.503 178.795 78.0902C179.772 77.6812 180.826 77.4729 181.951 77.4729C182.971 77.4729 183.955 77.6542 184.905 78.013C185.862 78.3757 186.705 78.8927 187.436 79.5717C188.162 80.243 188.701 81.0647 189.045 82.0408L186.092 83.3834C185.756 82.5308 185.225 81.8556 184.498 81.3618C183.768 80.8602 182.908 80.6056 181.92 80.6056C181.014 80.6056 180.201 80.8217 179.483 81.2538C178.772 81.6859 178.209 82.2684 177.795 82.9976C177.389 83.7306 177.186 84.5369 177.186 85.4204C177.186 86.3155 177.389 87.1334 177.795 87.8741C178.201 88.6072 178.756 89.1936 179.467 89.6334C180.186 90.0771 181.002 90.297 181.92 90.297C182.908 90.297 183.772 90.0308 184.514 89.4945C185.252 88.9621 185.787 88.2754 186.123 87.442L189.108 88.8001C188.741 89.78 188.186 90.6133 187.436 91.3001C186.694 91.9791 185.842 92.4999 184.873 92.8587C183.905 93.2175 182.908 93.3988 181.889 93.3988C180.752 93.3988 179.694 93.1982 178.717 92.797C177.737 92.3957 176.877 91.8363 176.139 91.1149C175.408 90.3973 174.842 89.5524 174.436 88.584C174.03 87.6195 173.826 86.5778 173.826 85.4667Z" fill="white"/>
<path d="M194.038 93.3834C193.401 93.3834 192.808 93.2599 192.257 93.013C191.714 92.7584 191.276 92.3919 190.944 91.9174C190.608 91.4467 190.444 90.8834 190.444 90.2353V90.2044C190.444 89.5485 190.585 89.0123 190.866 88.5995C191.155 88.1789 191.538 87.851 192.007 87.6118C192.483 87.3649 192.999 87.1951 193.554 87.1025C194.116 87.0099 194.663 86.9637 195.194 86.9637H196.257C196.546 86.9637 196.761 86.8865 196.897 86.7322C197.03 86.5779 197.101 86.4004 197.101 86.192C197.101 85.8525 196.96 85.5516 196.679 85.2816C196.397 85.0154 195.964 84.8803 195.382 84.8803C194.819 84.8803 194.343 85.0038 193.96 85.2507C193.585 85.4976 193.265 85.8525 193.007 86.3155L190.616 84.9112C191.042 84.1319 191.663 83.5184 192.476 83.0748C193.288 82.6234 194.304 82.3958 195.522 82.3958C196.429 82.3958 197.229 82.5501 197.929 82.8587C198.624 83.1674 199.171 83.6419 199.569 84.2785C199.964 84.9073 200.163 85.6944 200.163 86.6396V93.1828H197.288V91.8865L197.241 91.8556C196.843 92.4228 196.354 92.8201 195.772 93.0439C195.198 93.2677 194.62 93.3834 194.038 93.3834ZM194.944 91.1303C195.632 91.1303 196.155 90.9297 196.522 90.5285C196.897 90.1272 197.085 89.6488 197.085 89.0933V88.8618H195.194C194.788 88.8618 194.417 88.9621 194.085 89.155C193.749 89.3402 193.585 89.645 193.585 90.0655C193.585 90.4359 193.714 90.7098 193.976 90.8834C194.245 91.0493 194.569 91.1303 194.944 91.1303Z" fill="white"/>
<path d="M209.699 85.6363C209.457 85.5977 209.207 85.5746 208.949 85.5746C208.25 85.5746 207.687 85.7212 207.261 86.0067C206.832 86.2845 206.527 86.6626 206.34 87.1332C206.152 87.6078 206.058 88.1363 206.058 88.7227V93.1826H202.933V82.6271H206.043V84.2474H206.058C206.265 83.796 206.629 83.3948 207.152 83.0437C207.683 82.6965 208.324 82.519 209.074 82.519C209.324 82.519 209.531 82.546 209.699 82.5962V85.6363Z" fill="white"/>
<path d="M213.946 88.7536C214.059 89.4133 214.367 89.9264 214.867 90.2968C215.367 90.6594 215.938 90.8369 216.586 90.8369C217.043 90.8369 217.496 90.725 217.946 90.4974C218.391 90.2736 218.735 89.965 218.977 89.5715L221.227 91.0221C220.34 92.6193 218.809 93.4141 216.633 93.4141C215.547 93.4141 214.563 93.1826 213.68 92.7196C212.793 92.249 212.086 91.6008 211.555 90.7752C211.032 89.9419 210.774 88.9812 210.774 87.8894C210.774 87.1294 210.922 86.4156 211.227 85.7443C211.528 85.0769 211.934 84.4905 212.446 83.9851C212.965 83.4835 213.563 83.09 214.242 82.8122C214.93 82.5267 215.657 82.3801 216.43 82.3801C217.5 82.3801 218.434 82.6078 219.227 83.0591C220.016 83.5028 220.637 84.1201 221.086 84.911C221.532 85.6942 221.758 86.6085 221.758 87.6579C221.758 87.8431 221.758 88.0283 221.758 88.2135C221.758 88.3909 221.742 88.5684 221.711 88.7536H213.946ZM218.633 86.7165C218.621 86.4619 218.532 86.1919 218.367 85.9141C218.199 85.6286 217.949 85.3855 217.617 85.1888C217.293 84.9843 216.871 84.8801 216.352 84.8801C215.883 84.8801 215.481 84.9882 215.149 85.2042C214.813 85.4125 214.555 85.6594 214.367 85.9449C214.18 86.2227 214.071 86.4812 214.039 86.7165H218.633Z" fill="white"/>
<path d="M126.34 84.1027C126.34 85.4684 126.273 86.8303 126.137 88.1845C126 89.5425 125.801 90.8928 125.531 92.2277C125.262 93.5664 124.926 94.8897 124.523 96.1938C124.125 97.4978 123.66 98.7825 123.129 100.044C122.602 101.302 122.012 102.532 121.359 103.736C120.711 104.94 120 106.109 119.234 107.243C118.465 108.377 117.645 109.473 116.77 110.526C115.891 111.58 114.965 112.59 113.988 113.555C113.012 114.519 111.988 115.434 110.922 116.298C109.855 117.166 108.746 117.976 107.598 118.732C106.449 119.492 105.266 120.191 104.047 120.835C102.832 121.479 101.582 122.062 100.309 122.583C99.0313 123.103 97.7344 123.563 96.4102 123.96C95.0899 124.357 93.75 124.685 92.3985 124.951C91.043 125.218 89.6758 125.418 88.3047 125.553C86.9297 125.688 85.5508 125.754 84.168 125.754C82.7891 125.754 81.4102 125.688 80.0352 125.553C78.6602 125.418 77.2969 125.218 75.9414 124.951C74.586 124.685 73.25 124.357 71.9297 123.96C70.6055 123.563 69.3086 123.103 68.0313 122.583C66.7539 122.062 65.5078 121.479 64.2891 120.835C63.0742 120.191 61.8906 119.492 60.7422 118.732C59.5938 117.976 58.4844 117.166 57.418 116.298C56.3477 115.434 55.3281 114.519 54.3516 113.555C53.375 112.59 52.4492 111.58 51.5703 110.526C50.6953 109.473 49.875 108.377 49.1055 107.243C48.3399 106.109 47.6289 104.94 46.9766 103.736C46.3281 102.532 45.7383 101.302 45.211 100.044C44.6797 98.7825 44.2149 97.4978 43.8164 96.1938C43.4141 94.8897 43.0781 93.5664 42.8086 92.2277C42.5391 90.8928 42.336 89.5425 42.2031 88.1845C42.0664 86.8303 42 85.4684 42 84.1027C42 82.7408 42.0664 81.3789 42.2031 80.0209C42.336 78.6629 42.5391 77.3164 42.8086 75.9777C43.0781 74.639 43.4141 73.3195 43.8164 72.0117C44.2149 70.7076 44.6797 69.4268 45.211 68.1652C45.7383 66.9036 46.3281 65.6729 46.9766 64.4692C47.6289 63.2655 48.3399 62.1004 49.1055 60.9661C49.875 59.8319 50.6953 58.7362 51.5703 57.6829C52.4492 56.6258 53.375 55.6189 54.3516 54.6544C55.3281 53.6899 56.3477 52.7717 57.418 51.9075C58.4844 51.0433 59.5938 50.2292 60.7422 49.4731C61.8906 48.7169 63.0742 48.0147 64.2891 47.3704C65.5078 46.73 66.7539 46.1475 68.0313 45.6228C69.3086 45.1019 70.6055 44.6428 71.9297 44.2493C73.25 43.8519 74.586 43.5201 75.9414 43.2539C77.2969 42.9877 78.6602 42.7871 80.0352 42.6559C81.4102 42.5209 82.7891 42.4553 84.168 42.4553C85.5508 42.4553 86.9297 42.5209 88.3047 42.6559C89.6758 42.7871 91.043 42.9877 92.3945 43.2539C93.75 43.5201 95.0899 43.8519 96.4102 44.2493C97.7344 44.6428 99.0313 45.1019 100.309 45.6228C101.582 46.1475 102.832 46.73 104.047 47.3704C105.266 48.0147 106.449 48.7169 107.598 49.4731C108.746 50.2292 109.855 51.0433 110.922 51.9075C111.988 52.7717 113.012 53.6899 113.988 54.6544C114.965 55.6189 115.891 56.6258 116.77 57.6829C117.645 58.7362 118.465 59.8319 119.234 60.9661C120 62.1004 120.711 63.2655 121.359 64.4692C122.012 65.6729 122.602 66.9036 123.129 68.1652C123.66 69.4268 124.125 70.7076 124.523 72.0117C124.926 73.3195 125.262 74.639 125.531 75.9777C125.801 77.3164 126 78.6629 126.137 80.0209C126.273 81.3789 126.34 82.7408 126.34 84.1027Z" fill="white"/>
<path d="M83.5 70.9797C83.0691 70.9797 82.6424 71.0646 82.2443 71.2295C81.8462 71.3944 81.4845 71.6361 81.1798 71.9408C80.8751 72.2455 80.6334 72.6072 80.4685 73.0053C80.3036 73.4034 80.2188 73.8301 80.2188 74.261C80.2188 74.6919 80.3036 75.1186 80.4685 75.5167C80.6334 75.9148 80.8751 76.2765 81.1798 76.5812C81.4845 76.8859 81.8462 77.1276 82.2443 77.2925C82.6424 77.4574 83.0691 77.5422 83.5 77.5422C84.3703 77.5422 85.2049 77.1965 85.8202 76.5812C86.4356 75.9658 86.7813 75.1312 86.7813 74.261C86.7813 73.3907 86.4356 72.5561 85.8202 71.9408C85.2049 71.3254 84.3703 70.9797 83.5 70.9797ZM78.0313 74.261C78.0313 72.8106 78.6074 71.4196 79.633 70.394C80.6586 69.3684 82.0496 68.7922 83.5 68.7922C84.9504 68.7922 86.3414 69.3684 87.367 70.394C88.3926 71.4196 88.9688 72.8106 88.9688 74.261C88.9688 75.7114 88.3926 77.1024 87.367 78.128C86.3414 79.1536 84.9504 79.7297 83.5 79.7297C82.0496 79.7297 80.6586 79.1536 79.633 78.128C78.6074 77.1024 78.0313 75.7114 78.0313 74.261ZM74.75 85.1985C74.7515 84.7989 74.7923 84.4124 74.8725 84.0391L70.62 85.1766C70.2037 85.2883 69.8135 85.4809 69.4717 85.7434C69.1298 86.0059 68.843 86.3332 68.6277 86.7066C68.4124 87.0799 68.2727 87.4921 68.2167 87.9194C68.1607 88.3468 68.1894 88.781 68.3013 89.1972L69.15 92.3669C69.3782 93.2174 69.7752 94.0133 70.3174 94.7072C70.8597 95.401 71.536 95.9786 72.3061 96.4056C73.0762 96.8326 73.9244 97.1003 74.8001 97.1926C75.6758 97.285 76.5612 97.2002 77.4035 96.9432C76.8184 96.3757 76.3155 95.7292 75.9094 95.0225C74.8789 95.122 73.8465 94.8528 72.9958 94.2629C72.1451 93.6729 71.5311 92.8003 71.2631 91.8004L70.4122 88.6285C70.3374 88.3483 70.377 88.0498 70.5222 87.7988C70.6674 87.5477 70.9064 87.3646 71.1866 87.2897L74.75 86.336V85.1985ZM89.8131 97.0066L89.5944 96.9454C90.1785 96.3766 90.6838 95.7313 91.0906 95.0225C92.1211 95.122 93.1535 94.8528 94.0042 94.2629C94.8549 93.6729 95.4689 92.8003 95.7369 91.8004L96.5856 88.6285C96.6605 88.3486 96.6213 88.0504 96.4765 87.7994C96.3317 87.5484 96.0932 87.3651 95.8135 87.2897L92.25 86.336V85.1985C92.2486 84.7989 92.2077 84.4124 92.1275 84.0391L96.3778 85.1766C96.7943 85.288 97.1848 85.4805 97.5269 85.7429C97.8689 86.0053 98.156 86.3325 98.3715 86.7059C98.5871 87.0793 98.7269 87.4916 98.7831 87.919C98.8392 88.3465 98.8106 88.7808 98.6988 89.1972L97.85 92.3669C97.3989 94.0475 96.2989 95.48 94.7918 96.3497C93.2846 97.2193 91.4939 97.457 89.8131 97.0066ZM70.375 77.5422C70.375 76.9621 70.6055 76.4057 71.0157 75.9954C71.426 75.5852 71.9824 75.3547 72.5625 75.3547C73.1427 75.3547 73.6991 75.5852 74.1093 75.9954C74.5195 76.4057 74.75 76.9621 74.75 77.5422C74.75 78.1224 74.5195 78.6788 74.1093 79.089C73.6991 79.4993 73.1427 79.7297 72.5625 79.7297C71.9824 79.7297 71.426 79.4993 71.0157 79.089C70.6055 78.6788 70.375 78.1224 70.375 77.5422ZM72.5625 73.1672C71.4022 73.1672 70.2894 73.6282 69.4689 74.4486C68.6485 75.2691 68.1875 76.3819 68.1875 77.5422C68.1875 78.7026 68.6485 79.8154 69.4689 80.6358C70.2894 81.4563 71.4022 81.9172 72.5625 81.9172C73.7228 81.9172 74.8356 81.4563 75.6561 80.6358C76.4766 79.8154 76.9375 78.7026 76.9375 77.5422C76.9375 76.3819 76.4766 75.2691 75.6561 74.4486C74.8356 73.6282 73.7228 73.1672 72.5625 73.1672ZM94.4375 75.3547C93.8574 75.3547 93.301 75.5852 92.8907 75.9954C92.4805 76.4057 92.25 76.9621 92.25 77.5422C92.25 78.1224 92.4805 78.6788 92.8907 79.089C93.301 79.4993 93.8574 79.7297 94.4375 79.7297C95.0177 79.7297 95.5741 79.4993 95.9843 79.089C96.3945 78.6788 96.625 78.1224 96.625 77.5422C96.625 76.9621 96.3945 76.4057 95.9843 75.9954C95.5741 75.5852 95.0177 75.3547 94.4375 75.3547ZM90.0625 77.5422C90.0625 76.3819 90.5235 75.2691 91.3439 74.4486C92.1644 73.6282 93.2772 73.1672 94.4375 73.1672C95.5978 73.1672 96.7106 73.6282 97.5311 74.4486C98.3516 75.2691 98.8125 76.3819 98.8125 77.5422C98.8125 78.7026 98.3516 79.8154 97.5311 80.6358C96.7106 81.4563 95.5978 81.9172 94.4375 81.9172C93.2772 81.9172 92.1644 81.4563 91.3439 80.6358C90.5235 79.8154 90.0625 78.7026 90.0625 77.5422ZM80.2188 81.9172C79.3485 81.9172 78.5139 82.2629 77.8986 82.8783C77.2832 83.4936 76.9375 84.3282 76.9375 85.1985V90.6672C76.9375 92.4077 77.6289 94.0769 78.8596 95.3076C80.0903 96.5383 81.7595 97.2297 83.5 97.2297C85.2405 97.2297 86.9097 96.5383 88.1404 95.3076C89.3711 94.0769 90.0625 92.4077 90.0625 90.6672V85.1985C90.0625 84.3282 89.7168 83.4936 89.1015 82.8783C88.4861 82.2629 87.6515 81.9172 86.7813 81.9172H80.2188ZM79.125 85.1985C79.125 84.9084 79.2402 84.6302 79.4454 84.4251C79.6505 84.22 79.9287 84.1047 80.2188 84.1047H86.7813C87.0713 84.1047 87.3495 84.22 87.5547 84.4251C87.7598 84.6302 87.875 84.9084 87.875 85.1985V90.6672C87.875 91.8276 87.4141 92.9404 86.5936 93.7608C85.7731 94.5813 84.6603 95.0422 83.5 95.0422C82.3397 95.0422 81.2269 94.5813 80.4064 93.7608C79.586 92.9404 79.125 91.8276 79.125 90.6672V85.1985Z" fill="black"/>
</svg>
