<svg width="36" height="36" viewBox="0 0 36 36" fill="none" xmlns="http://www.w3.org/2000/svg">
<mask id="path-1-inside-1_336_2057" fill="white">
<path d="M0 18C0 8.05888 8.05888 0 18 0C27.9411 0 36 8.05888 36 18C36 27.9411 27.9411 36 18 36C8.05888 36 0 27.9411 0 18Z"/>
</mask>
<path d="M0 18M36 18M36 18M0 18M18 0M36 18M18 36M0 18M18 36V35C8.61116 35 1 27.3888 1 18H0H-1C-1 28.4934 7.50659 37 18 37V36ZM36 18H35C35 27.3888 27.3888 35 18 35V36V37C28.4934 37 37 28.4934 37 18H36ZM18 0V1C27.3888 1 35 8.61116 35 18H36H37C37 7.50659 28.4934 -1 18 -1V0ZM18 0V-1C7.50659 -1 -1 7.50659 -1 18H0H1C1 8.61116 8.61116 1 18 1V0Z" fill="black" fill-opacity="0.6" mask="url(#path-1-inside-1_336_2057)"/>
<path d="M12.0625 19.0625L11.375 18.375C11.0938 18.0625 11.0938 17.5938 11.375 17.3125L17.4688 11.2188C17.75 10.9375 18.2188 10.9375 18.5 11.2188L24.5938 17.3125C24.875 17.5938 24.875 18.0625 24.5938 18.375L23.9062 19.0625C23.5938 19.3438 23.125 19.3438 22.8125 19.0312L19.25 15.2812V24.25C19.25 24.6875 18.9062 25 18.5 25H17.5C17.0625 25 16.75 24.6875 16.75 24.25V15.2812L13.1562 19.0625C12.8438 19.3438 12.375 19.375 12.0625 19.0625Z" fill="black" fill-opacity="0.6"/>
</svg>
