<svg width="36" height="36" viewBox="0 0 36 36" fill="none" xmlns="http://www.w3.org/2000/svg">
<mask id="path-1-inside-1_336_2051" fill="white">
<path d="M36 18C36 27.9411 27.9411 36 18 36C8.05887 36 0 27.9411 0 18C0 8.05887 8.05887 0 18 0C27.9411 0 36 8.05887 36 18Z"/>
</mask>
<path d="M36 18C36 27.9411 27.9411 36 18 36C8.05887 36 0 27.9411 0 18C0 8.05887 8.05887 0 18 0C27.9411 0 36 8.05887 36 18Z" fill="url(#paint0_linear_336_2051)"/>
<path d="M36 18M0 18M0 18M36 18M18 36M0 18M18 0M36 18M18 0V1C27.3888 1 35 8.61116 35 18H36H37C37 7.50659 28.4934 -1 18 -1V0ZM0 18H1C1 8.61116 8.61116 1 18 1V0V-1C7.50659 -1 -1 7.50659 -1 18H0ZM18 36V35C8.61116 35 1 27.3888 1 18H0H-1C-1 28.4934 7.50659 37 18 37V36ZM18 36V37C28.4934 37 37 28.4934 37 18H36H35C35 27.3888 27.3888 35 18 35V36Z" fill="black" fill-opacity="0.1" mask="url(#path-1-inside-1_336_2051)"/>
<path d="M23.9375 16.9375L24.625 17.625C24.9062 17.9375 24.9062 18.4062 24.625 18.6875L18.5312 24.7812C18.25 25.0625 17.7812 25.0625 17.5 24.7812L11.4062 18.6875C11.125 18.4062 11.125 17.9375 11.4062 17.625L12.0938 16.9375C12.4062 16.6562 12.875 16.6562 13.1875 16.9688L16.75 20.7188V11.75C16.75 11.3125 17.0938 11 17.5 11H18.5C18.9375 11 19.25 11.3125 19.25 11.75V20.7188L22.8438 16.9375C23.1562 16.6562 23.625 16.625 23.9375 16.9375Z" fill="white"/>
<defs>
<linearGradient id="paint0_linear_336_2051" x1="36" y1="18" x2="0" y2="18" gradientUnits="userSpaceOnUse">
<stop stop-color="#48B4E1"/>
<stop offset="1" stop-color="#72339F"/>
</linearGradient>
</defs>
</svg>
