<svg width="32" height="32" viewBox="0 0 32 32" fill="none" xmlns="http://www.w3.org/2000/svg">
<rect width="32" height="32" rx="16" fill="#CFFAFE"/>
<path d="M15.9999 22.6667C19.6818 22.6667 22.6666 19.6819 22.6666 16C22.6666 12.3181 19.6818 9.33337 15.9999 9.33337C12.318 9.33337 9.33325 12.3181 9.33325 16C9.33325 19.6819 12.318 22.6667 15.9999 22.6667Z" stroke="#0B87BA" stroke-width="1.33333" stroke-linecap="round" stroke-linejoin="round"/>
<path d="M15.9999 18.6667C17.4727 18.6667 18.6666 17.4728 18.6666 16C18.6666 14.5273 17.4727 13.3334 15.9999 13.3334C14.5272 13.3334 13.3333 14.5273 13.3333 16C13.3333 17.4728 14.5272 18.6667 15.9999 18.6667Z" stroke="#0B87BA" stroke-width="1.33333" stroke-linecap="round" stroke-linejoin="round"/>
<path d="M22.1133 13.3334H16" stroke="#0B87BA" stroke-width="1.33333" stroke-linecap="round" stroke-linejoin="round"/>
<path d="M10.6333 12.04L13.6933 17.3334" stroke="#0B87BA" stroke-width="1.33333" stroke-linecap="round" stroke-linejoin="round"/>
<path d="M15.2534 22.6267L18.3068 17.3334" stroke="#0B87BA" stroke-width="1.33333" stroke-linecap="round" stroke-linejoin="round"/>
</svg>
