<svg width="294" height="359" viewBox="0 0 294 359" fill="none" xmlns="http://www.w3.org/2000/svg">
<path d="M82.4375 357.674C81.1953 357.674 80.1875 356.678 80.1875 355.451C80.1875 354.225 81.1953 353.229 82.4375 353.229C83.6797 353.229 84.6875 354.225 84.6875 355.451C84.6875 356.678 83.6797 357.674 82.4375 357.674Z" fill="#2A58AA" stroke="#2A58AA" stroke-width="2" stroke-linecap="round" stroke-linejoin="round"/>
<path d="M82.4375 352.859L82.4375 83.291" stroke="#2A58AA" stroke-width="2"/>
<mask id="mask0_586_1650" style="mask-type:luminance" maskUnits="userSpaceOnUse" x="46" y="46" width="248" height="81">
<path d="M46.2734 46.2385H293.711V126.057H46.2734V46.2385Z" fill="white"/>
</mask>
<g mask="url(#mask0_586_1650)">
<mask id="mask1_586_1650" style="mask-type:luminance" maskUnits="userSpaceOnUse" x="46" y="46" width="248" height="81">
<path d="M86.6797 46.2385H253.203C275.52 46.2385 293.613 64.105 293.613 86.1459C293.613 108.191 275.52 126.057 253.203 126.057H86.6797C64.3633 126.057 46.2734 108.191 46.2734 86.1459C46.2734 64.105 64.3633 46.2385 86.6797 46.2385Z" fill="white"/>
</mask>
<g mask="url(#mask1_586_1650)">
<mask id="mask2_586_1650" style="mask-type:luminance" maskUnits="userSpaceOnUse" x="45" y="46" width="249" height="81">
<path d="M293.711 46.0728H45.7109V126.073H293.711V46.0728Z" fill="white"/>
</mask>
<g mask="url(#mask2_586_1650)">
<mask id="mask3_586_1650" style="mask-type:luminance" maskUnits="userSpaceOnUse" x="46" y="46" width="248" height="81">
<path d="M46.2734 46.2385H293.711V126.057H46.2734V46.2385Z" fill="white"/>
</mask>
<g mask="url(#mask3_586_1650)">
<mask id="mask4_586_1650" style="mask-type:luminance" maskUnits="userSpaceOnUse" x="46" y="46" width="248" height="81">
<path d="M86.6797 46.2385H253.203C275.52 46.2385 293.613 64.105 293.613 86.1459C293.613 108.191 275.52 126.057 253.203 126.057H86.6797C64.3633 126.057 46.2734 108.191 46.2734 86.1459C46.2734 64.105 64.3633 46.2385 86.6797 46.2385Z" fill="white"/>
</mask>
<g mask="url(#mask4_586_1650)">
<path d="M46.2734 46.2385H293.461V126.057H46.2734V46.2385Z" fill="#2A58AA"/>
</g>
</g>
</g>
</g>
</g>
<mask id="mask5_586_1650" style="mask-type:luminance" maskUnits="userSpaceOnUse" x="19" y="18" width="130" height="129">
<path d="M19.4531 18.9429H148.426V146.323H19.4531V18.9429Z" fill="white"/>
</mask>
<g mask="url(#mask5_586_1650)">
<mask id="mask6_586_1650" style="mask-type:luminance" maskUnits="userSpaceOnUse" x="19" y="18" width="130" height="129">
<path d="M83.9414 18.9429C48.3242 18.9429 19.4531 47.4575 19.4531 82.6311C19.4531 117.809 48.3242 146.323 83.9414 146.323C119.555 146.323 148.426 117.809 148.426 82.6311C148.426 47.4575 119.555 18.9429 83.9414 18.9429Z" fill="white"/>
</mask>
<g mask="url(#mask6_586_1650)">
<mask id="mask7_586_1650" style="mask-type:luminance" maskUnits="userSpaceOnUse" x="18" y="18" width="131" height="129">
<path d="M148.711 18.4182H18.7109V146.813H148.711V18.4182Z" fill="white"/>
</mask>
<g mask="url(#mask7_586_1650)">
<mask id="mask8_586_1650" style="mask-type:luminance" maskUnits="userSpaceOnUse" x="19" y="18" width="130" height="129">
<path d="M19.4531 18.9429H148.426V146.323H19.4531V18.9429Z" fill="white"/>
</mask>
<g mask="url(#mask8_586_1650)">
<mask id="mask9_586_1650" style="mask-type:luminance" maskUnits="userSpaceOnUse" x="19" y="18" width="130" height="129">
<path d="M83.9414 18.9429C48.3242 18.9429 19.4531 47.4575 19.4531 82.6311C19.4531 117.809 48.3242 146.323 83.9414 146.323C119.555 146.323 148.426 117.809 148.426 82.6311C148.426 47.4575 119.555 18.9429 83.9414 18.9429Z" fill="white"/>
</mask>
<g mask="url(#mask9_586_1650)">
<path d="M19.4531 18.9429H148.426V146.323H19.4531V18.9429Z" fill="#5C7BB3"/>
</g>
</g>
</g>
</g>
</g>
<mask id="mask10_586_1650" style="mask-type:luminance" maskUnits="userSpaceOnUse" x="0" y="-1" width="113" height="113">
<path d="M0 0H112.711V111.258H0V0Z" fill="white"/>
</mask>
<g mask="url(#mask10_586_1650)">
<path d="M0 88.3642V110.783C61.4141 109.622 110.977 60.6712 112.152 0.0153809H89.4531C40.0508 0.0192386 0 39.5717 0 88.3642Z" fill="#2A58AA"/>
</g>
<path d="M174.037 85.4667C174.037 84.3479 174.244 83.3024 174.662 82.334C175.087 81.3695 175.669 80.5246 176.412 79.8031C177.162 79.074 178.025 78.503 179.005 78.0902C179.982 77.6812 181.037 77.4729 182.162 77.4729C183.181 77.4729 184.166 77.6542 185.115 78.013C186.072 78.3757 186.916 78.8927 187.646 79.5717C188.373 80.243 188.912 81.0647 189.255 82.0408L186.302 83.3834C185.966 82.5308 185.435 81.8556 184.709 81.3618C183.978 80.8602 183.119 80.6056 182.13 80.6056C181.224 80.6056 180.412 80.8217 179.693 81.2538C178.982 81.6859 178.419 82.2684 178.005 82.9976C177.599 83.7306 177.396 84.5369 177.396 85.4204C177.396 86.3155 177.599 87.1334 178.005 87.8741C178.412 88.6072 178.966 89.1936 179.677 89.6334C180.396 90.0771 181.212 90.297 182.13 90.297C183.119 90.297 183.982 90.0308 184.724 89.4945C185.462 88.9621 185.998 88.2754 186.334 87.442L189.318 88.8001C188.951 89.78 188.396 90.6133 187.646 91.3001C186.904 91.9791 186.052 92.4999 185.084 92.8587C184.115 93.2175 183.119 93.3988 182.099 93.3988C180.962 93.3988 179.904 93.1982 178.927 92.797C177.947 92.3957 177.087 91.8363 176.349 91.1149C175.619 90.3973 175.052 89.5524 174.646 88.584C174.24 87.6195 174.037 86.5778 174.037 85.4667Z" fill="white"/>
<path d="M194.389 77.0869V93.1826H191.248V77.0869H194.389Z" fill="white"/>
<path d="M200.266 93.3834C199.629 93.3834 199.035 93.2599 198.485 93.013C197.942 92.7584 197.504 92.3919 197.172 91.9174C196.836 91.4467 196.672 90.8834 196.672 90.2353V90.2044C196.672 89.5485 196.813 89.0123 197.094 88.5995C197.383 88.1789 197.766 87.851 198.235 87.6118C198.711 87.3649 199.227 87.1951 199.782 87.1025C200.344 87.0099 200.891 86.9637 201.422 86.9637H202.485C202.774 86.9637 202.989 86.8865 203.125 86.7322C203.258 86.5779 203.328 86.4004 203.328 86.192C203.328 85.8525 203.188 85.5516 202.907 85.2816C202.625 85.0154 202.192 84.8803 201.61 84.8803C201.047 84.8803 200.571 85.0038 200.188 85.2507C199.813 85.4976 199.492 85.8525 199.235 86.3155L196.844 84.9112C197.27 84.1319 197.891 83.5184 198.703 83.0748C199.516 82.6234 200.532 82.3958 201.75 82.3958C202.657 82.3958 203.457 82.5501 204.157 82.8587C204.852 83.1674 205.399 83.6419 205.797 84.2785C206.192 84.9073 206.391 85.6944 206.391 86.6396V93.1828H203.516V91.8865L203.469 91.8556C203.071 92.4228 202.582 92.8201 202 93.0439C201.426 93.2677 200.848 93.3834 200.266 93.3834ZM201.172 91.1303C201.86 91.1303 202.383 90.9297 202.75 90.5285C203.125 90.1272 203.313 89.6488 203.313 89.0933V88.8618H201.422C201.016 88.8618 200.645 88.9621 200.313 89.155C199.977 89.3402 199.813 89.645 199.813 90.0655C199.813 90.4359 199.942 90.7098 200.203 90.8834C200.473 91.0493 200.797 91.1303 201.172 91.1303Z" fill="white"/>
<path d="M215.927 85.6363C215.685 85.5977 215.435 85.5746 215.177 85.5746C214.478 85.5746 213.915 85.7212 213.489 86.0067C213.06 86.2845 212.755 86.6626 212.568 87.1332C212.38 87.6078 212.286 88.1363 212.286 88.7227V93.1826H209.161V82.6271H212.271V84.2474H212.286C212.493 83.796 212.857 83.3948 213.38 83.0437C213.911 82.6965 214.552 82.519 215.302 82.519C215.552 82.519 215.759 82.546 215.927 82.5962V85.6363Z" fill="white"/>
<path d="M217.283 78.9544C217.283 78.4219 217.47 77.9667 217.845 77.5963C218.228 77.226 218.681 77.0408 219.205 77.0408C219.744 77.0408 220.205 77.226 220.58 77.5963C220.963 77.9667 221.158 78.4219 221.158 78.9544C221.158 79.4906 220.963 79.942 220.58 80.3124C220.205 80.675 219.744 80.8525 219.205 80.8525C218.681 80.8525 218.228 80.675 217.845 80.3124C217.47 79.942 217.283 79.4906 217.283 78.9544ZM217.658 93.1827H220.799V82.6272H217.658V93.1827Z" fill="white"/>
<path d="M230.285 93.121C230.011 93.202 229.758 93.2521 229.519 93.2753C229.289 93.3061 229.054 93.3216 228.816 93.3216C227.398 93.3216 226.336 92.9628 225.629 92.2413C224.929 91.5122 224.582 90.5515 224.582 89.3555V85.2969H222.66V82.6271H224.613V79.3401H227.691V82.6271H230.332V85.2969H227.691V88.9697C227.691 89.5986 227.851 90.0345 228.175 90.2814C228.508 90.5284 228.965 90.6518 229.55 90.6518C229.633 90.6518 229.742 90.648 229.879 90.6364C230.011 90.6287 230.148 90.6055 230.285 90.5747V93.121Z" fill="white"/>
<path d="M236 92.0562L231.5 82.6272H234.938L237.594 88.6611L239.969 82.6272H243.188L236.719 98.3834H233.375L236 92.0562Z" fill="white"/>
<path d="M126.832 84.4291C126.832 85.7949 126.766 87.1567 126.629 88.5109C126.496 89.8689 126.293 91.2192 126.023 92.5541C125.754 93.8929 125.418 95.2162 125.02 96.5202C124.617 97.8242 124.152 99.1089 123.625 100.37C123.094 101.628 122.504 102.859 121.855 104.063C121.203 105.266 120.492 106.435 119.727 107.57C118.961 108.704 118.137 109.799 117.262 110.853C116.387 111.906 115.457 112.917 114.48 113.881C113.504 114.846 112.484 115.76 111.414 116.624C110.348 117.492 109.238 118.303 108.09 119.059C106.945 119.819 105.762 120.517 104.543 121.161C103.324 121.806 102.078 122.388 100.801 122.909C99.5234 123.43 98.2266 123.889 96.9062 124.286C95.582 124.684 94.2461 125.012 92.8906 125.278C91.5352 125.544 90.1719 125.745 88.7969 125.88C87.4219 126.015 86.043 126.08 84.6641 126.08C83.2812 126.08 81.9023 126.015 80.5312 125.88C79.1562 125.745 77.7891 125.544 76.4375 125.278C75.082 125.012 73.7422 124.684 72.4219 124.286C71.1016 123.889 69.8008 123.43 68.5234 122.909C67.25 122.388 66.0039 121.806 64.7852 121.161C63.5664 120.517 62.3828 119.819 61.2344 119.059C60.0859 118.303 58.9766 117.492 57.9102 116.624C56.8437 115.76 55.8203 114.846 54.8438 113.881C53.8672 112.917 52.9414 111.906 52.0664 110.853C51.1875 109.799 50.3672 108.704 49.6016 107.57C48.832 106.435 48.125 105.266 47.4727 104.063C46.8203 102.859 46.2305 101.628 45.7031 100.37C45.1758 99.1089 44.7109 97.8242 44.3086 96.5202C43.9062 95.2162 43.5742 93.8929 43.3047 92.5541C43.0352 91.2192 42.832 89.8689 42.6953 88.5109C42.5586 87.1567 42.4922 85.7949 42.4922 84.4291C42.4922 83.0672 42.5586 81.7054 42.6953 80.3473C42.832 78.9893 43.0352 77.6429 43.3047 76.3041C43.5742 74.9654 43.9062 73.6459 44.3086 72.3381C44.7109 71.0341 45.1758 69.7532 45.7031 68.4916C46.2305 67.23 46.8203 65.9993 47.4727 64.7956C48.125 63.5919 48.832 62.4268 49.6016 61.2925C50.3672 60.1583 51.1875 59.0626 52.0664 58.0094C52.9414 56.9523 53.8672 55.9453 54.8438 54.9808C55.8203 54.0163 56.8437 53.0981 57.9102 52.2339C58.9766 51.3697 60.0859 50.5557 61.2344 49.7995C62.3828 49.0433 63.5664 48.3412 64.7852 47.6969C66.0039 47.0564 67.25 46.4739 68.5234 45.9492C69.8008 45.4283 71.1016 44.9692 72.4219 44.5757C73.7422 44.1783 75.082 43.8466 76.4375 43.5803C77.7891 43.3141 79.1562 43.1135 80.5312 42.9824C81.9023 42.8473 83.2812 42.7817 84.6641 42.7817C86.043 42.7817 87.4219 42.8473 88.7969 42.9824C90.1719 43.1135 91.5352 43.3141 92.8906 43.5803C94.2461 43.8466 95.582 44.1783 96.9062 44.5757C98.2266 44.9692 99.5234 45.4283 100.801 45.9492C102.078 46.4739 103.324 47.0564 104.543 47.6969C105.762 48.3412 106.945 49.0433 108.09 49.7995C109.238 50.5557 110.348 51.3697 111.414 52.2339C112.484 53.0981 113.504 54.0163 114.48 54.9808C115.457 55.9453 116.387 56.9523 117.262 58.0094C118.137 59.0626 118.961 60.1583 119.727 61.2925C120.492 62.4268 121.203 63.5919 121.855 64.7956C122.504 65.9993 123.094 67.23 123.625 68.4916C124.152 69.7532 124.617 71.0341 125.02 72.3381C125.418 73.6459 125.754 74.9654 126.023 76.3041C126.293 77.6429 126.496 78.9893 126.629 80.3473C126.766 81.7054 126.832 83.0672 126.832 84.4291Z" fill="white"/>
<path d="M95.9088 76.0352V93.4727C95.9088 95.6129 90.126 97.3477 82.9922 97.3477C75.8583 97.3477 70.0755 95.6129 70.0755 93.4727V76.0352" stroke="black" stroke-width="2" stroke-linecap="round" stroke-linejoin="round"/>
<path d="M95.9088 87.6602C95.9088 89.8004 90.126 91.5352 82.9922 91.5352C75.8583 91.5352 70.0755 89.8004 70.0755 87.6602M95.9088 81.8477C95.9088 83.9879 90.126 85.7227 82.9922 85.7227C75.8583 85.7227 70.0755 83.9879 70.0755 81.8477" stroke="black" stroke-width="2" stroke-linecap="round" stroke-linejoin="round"/>
<path d="M82.9922 79.2644C90.1258 79.2644 95.9088 77.5295 95.9088 75.3894C95.9088 73.2493 90.1258 71.5144 82.9922 71.5144C75.8585 71.5144 70.0755 73.2493 70.0755 75.3894C70.0755 77.5295 75.8585 79.2644 82.9922 79.2644Z" stroke="black" stroke-width="2" stroke-linecap="round" stroke-linejoin="round"/>
</svg>
