<svg width="72" height="72" viewBox="0 0 72 72" fill="none" xmlns="http://www.w3.org/2000/svg">
<rect width="72" height="72" rx="10" fill="#420477" fill-opacity="0.6"/>
<path d="M32.7261 32.7261C32.9576 32.4946 33.2538 32.3384 33.5757 32.2781C33.8975 32.2178 34.2301 32.2562 34.5298 32.3881L50.7798 39.5381C51.0873 39.675 51.3448 39.9038 51.5168 40.1931C51.6887 40.4824 51.7667 40.818 51.74 41.1535C51.7132 41.489 51.5831 41.8079 51.3675 42.0664C51.1518 42.3248 50.8614 42.51 50.5361 42.5964L44.2473 44.2458L42.5963 50.5378C42.5103 50.8635 42.3252 51.1546 42.0665 51.3705C41.8078 51.5864 41.4884 51.7166 41.1525 51.743C40.8166 51.7695 40.4808 51.6908 40.1915 51.518C39.9023 51.3451 39.6739 51.0866 39.5381 50.7783L32.3881 34.5283C32.2564 34.2288 32.2183 33.8965 32.2786 33.575C32.3389 33.2534 32.4949 32.9576 32.7261 32.7261ZM26.3106 42.3884C26.4605 42.2332 26.6398 42.1094 26.838 42.0242C27.0363 41.939 27.2495 41.8942 27.4653 41.8923C27.681 41.8905 27.895 41.9316 28.0947 42.0133C28.2944 42.095 28.4759 42.2157 28.6284 42.3682C28.781 42.5208 28.9017 42.7022 28.9834 42.902C29.0651 43.1017 29.1062 43.3156 29.1043 43.5314C29.1025 43.7472 29.0576 43.9604 28.9725 44.1587C28.8873 44.3569 28.7635 44.5362 28.6083 44.6861L25.1617 48.1327C24.8552 48.4288 24.4447 48.5925 24.0187 48.5888C23.5926 48.5851 23.185 48.4142 22.8837 48.113C22.5824 47.8117 22.4115 47.4041 22.4078 46.978C22.4041 46.552 22.5679 46.1415 22.8639 45.835L26.3106 42.3884ZM24.1331 33.8669C24.564 33.8669 24.9774 34.0381 25.2821 34.3428C25.5869 34.6476 25.7581 35.0609 25.7581 35.4919C25.7581 35.9229 25.5869 36.3362 25.2821 36.6409C24.9774 36.9457 24.564 37.1169 24.1331 37.1169H19.2581C18.8271 37.1169 18.4138 36.9457 18.109 36.6409C17.8043 36.3362 17.6331 35.9229 17.6331 35.4919C17.6331 35.0609 17.8043 34.6476 18.109 34.3428C18.4138 34.0381 18.8271 33.8669 19.2581 33.8669H24.1331ZM22.8639 22.8656C23.1687 22.561 23.5819 22.3898 24.0128 22.3898C24.4437 22.3898 24.8569 22.561 25.1617 22.8656L28.6083 26.3139C28.897 26.6217 29.0546 27.0298 29.0477 27.4518C29.0409 27.8738 28.8701 28.2766 28.5716 28.5749C28.2731 28.8732 27.8702 29.0437 27.4482 29.0502C27.0262 29.0568 26.6182 28.8989 26.3106 28.61L22.8639 25.165C22.5593 24.8603 22.3882 24.447 22.3882 24.0161C22.3882 23.5852 22.5593 23.1704 22.8639 22.8656ZM45.8447 22.8575C45.9937 22.6988 46.1732 22.5716 46.3723 22.4836C46.5715 22.3956 46.7863 22.3485 47.004 22.3451C47.2217 22.3417 47.4379 22.3821 47.6397 22.4639C47.8415 22.5457 48.0248 22.6672 48.1787 22.8213C48.3326 22.9753 48.454 23.1587 48.5357 23.3605C48.6173 23.5624 48.6576 23.7786 48.654 23.9963C48.6505 24.214 48.6033 24.4288 48.5151 24.6279C48.4269 24.827 48.2996 25.0063 48.1408 25.1552L44.6958 28.6003C44.3895 28.8965 43.9792 29.0606 43.5531 29.0572C43.127 29.0538 42.7193 28.8832 42.4178 28.5821C42.1163 28.281 41.9451 27.8736 41.9411 27.4475C41.9371 27.0214 42.1006 26.6108 42.3964 26.3041L45.8447 22.8575ZM33.8749 24.125V19.25C33.8749 18.819 34.0461 18.4057 34.3509 18.101C34.6556 17.7962 35.069 17.625 35.4999 17.625C35.9309 17.625 36.3442 17.7962 36.649 18.101C36.9537 18.4057 37.1249 18.819 37.1249 19.25V24.125C37.1249 24.556 36.9537 24.9693 36.649 25.274C36.3442 25.5788 35.9309 25.75 35.4999 25.75C35.069 25.75 34.6556 25.5788 34.3509 25.274C34.0461 24.9693 33.8749 24.556 33.8749 24.125Z" fill="white"/>
</svg>
