<svg width="32" height="32" viewBox="0 0 32 32" fill="none" xmlns="http://www.w3.org/2000/svg">
<rect width="32" height="32" rx="16" fill="#CFFAFE"/>
<path d="M14.6245 18.3333C14.565 18.1026 14.4448 17.892 14.2763 17.7236C14.1078 17.5551 13.8973 17.4348 13.6665 17.3753L9.57655 16.3206C9.50677 16.3008 9.44535 16.2588 9.40162 16.2009C9.35789 16.1431 9.33423 16.0725 9.33423 16C9.33423 15.9274 9.35789 15.8569 9.40162 15.799C9.44535 15.7411 9.50677 15.6991 9.57655 15.6793L13.6665 14.624C13.8972 14.5645 14.1077 14.4443 14.2761 14.276C14.4446 14.1076 14.5649 13.8972 14.6245 13.6666L15.6792 9.57663C15.6988 9.50657 15.7408 9.44486 15.7988 9.40089C15.8567 9.35693 15.9275 9.33313 16.0002 9.33313C16.073 9.33313 16.1437 9.35693 16.2017 9.40089C16.2596 9.44486 16.3016 9.50657 16.3212 9.57663L17.3752 13.6666C17.4347 13.8973 17.555 14.1079 17.7235 14.2764C17.8919 14.4449 18.1025 14.5651 18.3332 14.6246L22.4232 15.6786C22.4935 15.698 22.5556 15.74 22.5998 15.798C22.644 15.8561 22.6679 15.927 22.6679 16C22.6679 16.0729 22.644 16.1439 22.5998 16.2019C22.5556 16.26 22.4935 16.3019 22.4232 16.3213L18.3332 17.3753C18.1025 17.4348 17.8919 17.5551 17.7235 17.7236C17.555 17.892 17.4347 18.1026 17.3752 18.3333L16.3205 22.4233C16.3009 22.4934 16.259 22.5551 16.201 22.599C16.143 22.643 16.0723 22.6668 15.9995 22.6668C15.9268 22.6668 15.8561 22.643 15.7981 22.599C15.7401 22.5551 15.6982 22.4934 15.6785 22.4233L14.6245 18.3333Z" stroke="#0B87BA" stroke-width="1.33333" stroke-linecap="round" stroke-linejoin="round"/>
<path d="M21.3333 10V12.6667" stroke="#0B87BA" stroke-width="1.33333" stroke-linecap="round" stroke-linejoin="round"/>
<path d="M22.6667 11.3334H20" stroke="#0B87BA" stroke-width="1.33333" stroke-linecap="round" stroke-linejoin="round"/>
<path d="M10.6667 19.3334V20.6667" stroke="#0B87BA" stroke-width="1.33333" stroke-linecap="round" stroke-linejoin="round"/>
<path d="M11.3333 20H10" stroke="#0B87BA" stroke-width="1.33333" stroke-linecap="round" stroke-linejoin="round"/>
</svg>
