<svg width="32" height="32" viewBox="0 0 32 32" fill="none" xmlns="http://www.w3.org/2000/svg">
<rect width="32" height="32" rx="16" fill="#EDE9FE"/>
<path d="M14 10H10.6667C10.2985 10 10 10.2985 10 10.6667V15.3333C10 15.7015 10.2985 16 10.6667 16H14C14.3682 16 14.6667 15.7015 14.6667 15.3333V10.6667C14.6667 10.2985 14.3682 10 14 10Z" stroke="#420477" stroke-width="1.33333" stroke-linecap="round" stroke-linejoin="round"/>
<path d="M21.3333 10H17.9999C17.6317 10 17.3333 10.2985 17.3333 10.6667V12.6667C17.3333 13.0349 17.6317 13.3333 17.9999 13.3333H21.3333C21.7014 13.3333 21.9999 13.0349 21.9999 12.6667V10.6667C21.9999 10.2985 21.7014 10 21.3333 10Z" stroke="#420477" stroke-width="1.33333" stroke-linecap="round" stroke-linejoin="round"/>
<path d="M21.3333 16H17.9999C17.6317 16 17.3333 16.2985 17.3333 16.6667V21.3333C17.3333 21.7015 17.6317 22 17.9999 22H21.3333C21.7014 22 21.9999 21.7015 21.9999 21.3333V16.6667C21.9999 16.2985 21.7014 16 21.3333 16Z" stroke="#420477" stroke-width="1.33333" stroke-linecap="round" stroke-linejoin="round"/>
<path d="M14 18.6666H10.6667C10.2985 18.6666 10 18.9651 10 19.3333V21.3333C10 21.7015 10.2985 22 10.6667 22H14C14.3682 22 14.6667 21.7015 14.6667 21.3333V19.3333C14.6667 18.9651 14.3682 18.6666 14 18.6666Z" stroke="#420477" stroke-width="1.33333" stroke-linecap="round" stroke-linejoin="round"/>
</svg>
