<svg width="72" height="72" viewBox="0 0 72 72" fill="none" xmlns="http://www.w3.org/2000/svg">
<rect width="72" height="72" rx="10" fill="#420477" fill-opacity="0.6"/>
<path fill-rule="evenodd" clip-rule="evenodd" d="M42.4783 22.5212C42.1967 22.0713 41.7819 21.7203 41.2915 21.5172C40.8012 21.3141 40.2597 21.269 39.7425 21.388L36.0715 22.2312C35.6953 22.3177 35.3044 22.3177 34.9282 22.2312L31.2573 21.388C30.7401 21.269 30.1986 21.3141 29.7082 21.5172C29.2179 21.7203 28.803 22.0713 28.5215 22.5212L26.5206 25.7143C26.3165 26.041 26.0408 26.3166 25.7142 26.5228L22.521 28.5237C22.0719 28.805 21.7215 29.2192 21.5184 29.7087C21.3154 30.1982 21.2697 30.7388 21.3879 31.2554L22.2311 34.9304C22.3172 35.306 22.3172 35.6962 22.2311 36.0717L21.3879 39.7447C21.2693 40.2616 21.3147 40.8026 21.5177 41.2926C21.7208 41.7825 22.0715 42.197 22.521 42.4785L25.7142 44.4793C26.0408 44.6835 26.3165 44.9591 26.5227 45.2857L28.5235 48.4789C29.0992 49.3997 30.1977 49.855 31.2573 49.612L34.9282 48.7688C35.3044 48.6824 35.6953 48.6824 36.0715 48.7688L39.7445 49.612C40.2614 49.7306 40.8025 49.6852 41.2924 49.4822C41.7823 49.2791 42.1968 48.9284 42.4783 48.4789L44.4791 45.2857C44.6833 44.9591 44.9589 44.6835 45.2856 44.4793L48.4808 42.4785C48.9303 42.1966 49.2808 41.7816 49.4836 41.2913C49.6863 40.801 49.7311 40.2596 49.6119 39.7426L48.7707 36.0717C48.6842 35.6955 48.6842 35.3046 48.7707 34.9284L49.6139 31.2554C49.7327 30.7387 49.6876 30.1978 49.4849 29.7079C49.2822 29.218 48.932 28.8034 48.4828 28.5216L45.2876 26.5208C44.9614 26.3162 44.6857 26.0405 44.4812 25.7143L42.4783 22.5212ZM41.4513 30.9471C41.5776 30.7149 41.6089 30.4428 41.5386 30.188C41.4683 29.9332 41.3019 29.7156 41.0745 29.5809C40.847 29.4463 40.5762 29.4051 40.319 29.4661C40.0618 29.5271 39.8383 29.6855 39.6955 29.9079L34.3565 38.9443L31.1327 35.8573C31.0371 35.7591 30.9227 35.6812 30.7963 35.6282C30.6699 35.5752 30.5341 35.5481 30.397 35.5487C30.2599 35.5493 30.1244 35.5775 29.9984 35.6317C29.8725 35.6858 29.7587 35.7647 29.6639 35.8637C29.5692 35.9628 29.4953 36.0799 29.4468 36.2081C29.3982 36.3363 29.376 36.4729 29.3814 36.6099C29.3868 36.7469 29.4198 36.8813 29.4783 37.0053C29.5368 37.1293 29.6197 37.2402 29.722 37.3314L33.8747 41.3106C33.9859 41.4169 34.1196 41.4967 34.2659 41.544C34.4122 41.5914 34.5673 41.6051 34.7196 41.5841C34.872 41.5631 35.0176 41.5079 35.1456 41.4227C35.2737 41.3376 35.3808 41.2246 35.459 41.0922L41.4513 30.9471Z" fill="white"/>
</svg>
