<svg width="1440" height="810" viewBox="0 0 1440 810" fill="none" xmlns="http://www.w3.org/2000/svg">
<g clip-path="url(#clip0_182_7432)">

<path d="M1584 -81H-144V891H1584V-81Z" fill="white" data-index="1" style="opacity: 1; visibility: hidden; fill: rgb(121, 40, 202);"></path>
<path d="M774.227 549.488C750.012 543.949 692.879 548.258 646.617 559.113C613.586 566.863 595.031 575.852 595.934 582.375L604.742 646.047C604.738 646.02 604.742 645.988 604.738 645.961C605.031 648.613 608.508 650.863 615.512 652.465C639.73 658 696.863 653.691 743.121 642.84C776.25 635.066 794.816 626.047 793.793 619.516C793.797 619.535 793.805 619.555 793.809 619.574C791.164 600.473 787.641 575.004 785 555.902C784.637 553.289 781.152 551.07 774.227 549.488Z" fill="#0B87BA" data-index="2" style="opacity: 1;"></path>
<mask id="mask0_182_7432" style="mask-type:luminance" maskUnits="userSpaceOnUse" x="-144" y="-81" width="1728" height="972">
<path d="M1584 -81H-144V891H1584V-81Z" fill="black" fill-opacity="0.2" data-index="3"></path>
</mask>
<g mask="url(#mask0_182_7432)">
<mask id="mask1_182_7432" style="mask-type:luminance" maskUnits="userSpaceOnUse" x="595" y="546" width="191" height="46">
<path d="M786 546H595V592H786V546Z" fill="white" data-index="4"></path>
</mask>
<g mask="url(#mask1_182_7432)">
<mask id="mask2_182_7432" style="mask-type:luminance" maskUnits="userSpaceOnUse" x="595" y="547" width="191" height="45">
<path d="M595.199 547H785.281V591.84H595.199V547Z" fill="white" data-index="5"></path>
</mask>
<g mask="url(#mask2_182_7432)">
<path d="M606.703 588.793C582.488 583.254 600.355 569.965 646.617 559.113C692.879 548.258 750.012 543.949 774.227 549.488C798.445 555.024 780.574 568.313 734.313 579.164C688.051 590.02 630.922 594.328 606.703 588.793Z" fill="#BEC8DB" data-index="6" style="opacity: 1;"></path>
</g>
</g>
</g>
<path d="M712.227 434.816C674.988 433.508 592.051 456.016 526.977 485.086C480.516 505.844 455.723 524.336 458.899 533.691L479.559 594.562C479.512 594.426 479.473 594.289 479.438 594.152C480.422 598.141 486.203 600.578 497.235 600.965C534.473 602.273 617.414 579.766 682.485 550.691C729.086 529.871 753.883 511.332 750.531 502.004C750.539 502.031 750.555 502.059 750.567 502.086C744.367 483.828 736.106 459.48 729.906 441.219C728.637 437.473 722.879 435.191 712.227 434.816Z" fill="#1376B2" data-index="7" style="opacity: 1;"></path>
<mask id="mask3_182_7432" style="mask-type:luminance" maskUnits="userSpaceOnUse" x="-144" y="-81" width="1728" height="972">
<path d="M1584 -81H-144V891H1584V-81Z" fill="black" fill-opacity="0.2" data-index="8"></path>
</mask>
<g mask="url(#mask3_182_7432)">
<mask id="mask4_182_7432" style="mask-type:luminance" maskUnits="userSpaceOnUse" x="458" y="433" width="273" height="108">
<path d="M731 433H458V541H731V433Z" fill="white" data-index="9"></path>
</mask>
<g mask="url(#mask4_182_7432)">
<mask id="mask5_182_7432" style="mask-type:luminance" maskUnits="userSpaceOnUse" x="458" y="434" width="273" height="107">
<path d="M458.398 434H730.801V540.719H458.398V434Z" fill="white" data-index="10"></path>
</mask>
<g mask="url(#mask5_182_7432)">
<path d="M476.578 540.094C439.34 538.785 461.906 514.16 526.977 485.086C592.051 456.016 674.988 433.508 712.227 434.816C749.465 436.121 726.902 460.75 661.828 489.82C596.754 518.895 513.816 541.402 476.578 540.094Z" fill="#BEC8DB" data-index="11" style="opacity: 1;"></path>
</g>
</g>
</g>
<path d="M625.492 326.699C576.418 334.414 473.547 384.879 395.727 439.414C340.16 478.352 312.391 508.836 318.914 520.277L350.762 576.125C350.754 576.109 350.746 576.094 350.738 576.078C353.324 580.695 361.445 582.242 375.527 580.027C424.602 572.313 527.473 521.848 605.293 467.313C661.024 428.258 688.785 397.715 682.035 386.352C682.059 386.387 682.082 386.414 682.102 386.449C672.551 369.695 659.809 347.356 650.258 330.602C647.645 326.02 639.527 324.492 625.492 326.699Z" fill="#1A66A9" data-index="12"></path>
<mask id="mask6_182_7432" style="mask-type:luminance" maskUnits="userSpaceOnUse" x="-144" y="-81" width="1728" height="972">
<path d="M1584 -81H-144V891H1584V-81Z" fill="black" fill-opacity="0.4" data-index="13"></path>
</mask>
<g mask="url(#mask6_182_7432)">
<mask id="mask7_182_7432" style="mask-type:luminance" maskUnits="userSpaceOnUse" x="317" y="325" width="367" height="257">
<path d="M684 325H317V582H684V325Z" fill="white" data-index="14"></path>
</mask>
<g mask="url(#mask7_182_7432)">
<mask id="mask8_182_7432" style="mask-type:luminance" maskUnits="userSpaceOnUse" x="317" y="325" width="367" height="257">
<path d="M317.762 325.441H683.762V581.762H317.762V325.441Z" fill="white" data-index="15"></path>
</mask>
<g mask="url(#mask8_182_7432)">
<path d="M625.492 326.699C576.418 334.414 473.547 384.879 395.727 439.414C340.16 478.352 312.391 508.836 318.914 520.277L350.762 576.125C350.754 576.109 350.746 576.094 350.738 576.078C353.324 580.695 361.445 582.242 375.527 580.027C424.602 572.313 527.473 521.848 605.293 467.313C661.024 428.258 688.785 397.715 682.035 386.352C682.059 386.387 682.082 386.414 682.102 386.449C672.551 369.695 659.809 347.356 650.258 330.602C647.645 326.02 639.527 324.492 625.492 326.699Z" fill="#BEC8DB" data-index="16" style="opacity: 1;"></path>
</g>
</g>
</g>
<mask id="mask9_182_7432" style="mask-type:luminance" maskUnits="userSpaceOnUse" x="-144" y="-81" width="1728" height="972">
<path d="M1584 -81H-144V891H1584V-81Z" fill="black" fill-opacity="0.4" data-index="17"></path>
</mask>
<g mask="url(#mask9_182_7432)">
<mask id="mask10_182_7432" style="mask-type:luminance" maskUnits="userSpaceOnUse" x="317" y="325" width="335" height="201">
<path d="M652 325H317V526H652V325Z" fill="white" data-index="18"></path>
</mask>
<g mask="url(#mask10_182_7432)">
<mask id="mask11_182_7432" style="mask-type:luminance" maskUnits="userSpaceOnUse" x="317" y="325" width="335" height="201">
<path d="M317.762 325.441H651.359V525.84H317.762V325.441Z" fill="white" data-index="19"></path>
</mask>
<g mask="url(#mask11_182_7432)">
<path d="M343.68 524.18C294.606 531.899 317.906 493.945 395.727 439.414C473.547 384.879 576.418 334.418 625.492 326.699C674.57 318.981 651.266 356.934 573.445 411.465C495.625 466 392.754 516.465 343.68 524.18Z" fill="#BEC8DB" data-index="20" style="opacity: 1;"></path>
</g>
</g>
</g>
<path d="M511.539 227.52C451.961 247.305 337.254 333.176 255.336 419.312C196.848 480.816 170.887 525.832 182.512 539.344L227.891 592.102C227.875 592.082 227.863 592.062 227.848 592.047C232.477 597.508 243.176 597.891 260.27 592.215C319.852 572.43 434.555 486.562 516.473 400.422C575.242 338.625 601.164 293.48 589.125 280.203C589.18 280.266 589.242 280.328 589.297 280.391C575.684 264.566 557.531 243.461 543.918 227.637C539.262 222.223 528.578 221.863 511.539 227.52Z" fill="#294598" data-index="21"></path>
<mask id="mask12_182_7432" style="mask-type:luminance" maskUnits="userSpaceOnUse" x="-144" y="-81" width="1728" height="972">
<path d="M1584 -81H-144V891H1584V-81Z" fill="black" fill-opacity="0.2" data-index="22"></path>
</mask>
<g mask="url(#mask12_182_7432)">
<mask id="mask13_182_7432" style="mask-type:luminance" maskUnits="userSpaceOnUse" x="179" y="223" width="414" height="374">
<path d="M593 223H179V597H593V223Z" fill="white" data-index="23"></path>
</mask>
<g mask="url(#mask13_182_7432)">
<mask id="mask14_182_7432" style="mask-type:luminance" maskUnits="userSpaceOnUse" x="179" y="223" width="414" height="374">
<path d="M179.52 223.199H592.801V596.641H179.52V223.199Z" fill="white" data-index="24"></path>
</mask>
<g mask="url(#mask14_182_7432)">
<path d="M511.539 227.52C451.961 247.305 337.254 333.176 255.336 419.312C196.848 480.816 170.887 525.832 182.512 539.344L227.891 592.102C227.875 592.082 227.863 592.062 227.848 592.047C232.477 597.508 243.176 597.891 260.27 592.215C319.852 572.43 434.555 486.562 516.473 400.422C575.242 338.625 601.164 293.48 589.125 280.203C589.18 280.266 589.242 280.328 589.297 280.391C575.684 264.566 557.531 243.461 543.918 227.637C539.262 222.223 528.578 221.863 511.539 227.52Z" fill="#BEC8DB" data-index="25" style="opacity: 1;"></path>
</g>
</g>
</g>
<mask id="mask15_182_7432" style="mask-type:luminance" maskUnits="userSpaceOnUse" x="-144" y="-81" width="1728" height="972">
<path d="M1584 -81H-144V891H1584V-81Z" fill="black" fill-opacity="0.3" data-index="26"></path>
</mask>
<g mask="url(#mask15_182_7432)">
<mask id="mask16_182_7432" style="mask-type:luminance" maskUnits="userSpaceOnUse" x="179" y="223" width="368" height="322">
<path d="M547 223H179V545H547V223Z" fill="white" data-index="27"></path>
</mask>
<g mask="url(#mask16_182_7432)">
<mask id="mask17_182_7432" style="mask-type:luminance" maskUnits="userSpaceOnUse" x="179" y="223" width="368" height="321">
<path d="M179.52 223.199H546.961V544H179.52V223.199Z" fill="white" data-index="28"></path>
</mask>
<g mask="url(#mask17_182_7432)">
<path d="M214.894 539.457C155.312 559.242 173.422 505.453 255.336 419.312C337.254 333.172 451.961 247.305 511.539 227.52C571.121 207.734 553.012 261.527 471.098 347.668C389.18 433.805 274.473 519.676 214.894 539.457Z" fill="#BEC8DB" data-index="29" style="opacity: 1;"></path>
</g>
</g>
</g>
<path d="M370.246 144.27C301.035 178.313 183.793 304.281 108.379 425.629C54.5311 512.27 36.5663 573.129 55.8866 588.461L118.746 638.336C118.715 638.313 118.687 638.285 118.656 638.258C126.379 644.484 140.125 643.352 160 633.578C229.207 599.531 346.453 473.563 421.867 352.215C475.867 265.332 493.777 204.375 474.191 189.258C474.246 189.301 474.305 189.34 474.359 189.383C455.504 174.422 430.359 154.473 411.5 139.508C403.762 133.367 390.043 134.531 370.246 144.27Z" fill="#471277" data-index="30" style="opacity: 1;"></path>
<path d="M97.1405 583.703C27.9296 617.746 32.9608 546.973 108.379 425.629C183.793 304.281 301.035 178.313 370.246 144.27C439.457 110.223 434.426 180.996 359.012 302.344C283.594 423.691 166.351 549.66 97.1405 583.703Z" fill="#471277" data-index="31"></path>
<mask id="mask18_182_7432" style="mask-type:luminance" maskUnits="userSpaceOnUse" x="-144" y="-81" width="1728" height="972">
<path d="M1584 -81H-144V891H1584V-81Z" fill="black" fill-opacity="0.2" data-index="32"></path>
</mask>
<g mask="url(#mask18_182_7432)">
<mask id="mask19_182_7432" style="mask-type:luminance" maskUnits="userSpaceOnUse" x="47" y="135" width="373" height="458">
<path d="M420 135H47V593H420V135Z" fill="white" data-index="33"></path>
</mask>
<g mask="url(#mask19_182_7432)">
<mask id="mask20_182_7432" style="mask-type:luminance" maskUnits="userSpaceOnUse" x="48" y="135" width="372" height="458">
<path d="M48 135.602H419.52V592.559H48V135.602Z" fill="white" data-index="34"></path>
</mask>
<g mask="url(#mask20_182_7432)">
<path d="M97.1407 583.703C27.9298 617.746 32.961 546.973 108.379 425.629C183.793 304.281 301.035 178.313 370.246 144.27C439.457 110.223 434.426 180.996 359.012 302.344C283.594 423.692 166.352 549.66 97.1407 583.703Z" fill="#BEC8DB" data-index="35" style="opacity: 1;"></path>
</g>
</g>
</g>
<path d="M389.538 296.758C392.038 296.758 393.991 297.648 395.397 299.43C397.073 301.535 397.913 305.035 397.913 309.93C397.913 314.805 397.069 318.305 395.382 320.43C393.983 322.191 392.038 323.07 389.538 323.07C387.038 323.07 385.014 322.109 383.475 320.18C381.944 318.254 381.178 314.816 381.178 309.867C381.178 305.015 382.022 301.523 383.71 299.398C385.104 297.64 387.046 296.758 389.538 296.758ZM389.538 300.851C388.944 300.851 388.413 301.047 387.944 301.43C387.475 301.805 387.108 302.488 386.85 303.476C386.514 304.75 386.35 306.898 386.35 309.93C386.35 312.953 386.499 315.031 386.803 316.164C387.104 317.289 387.483 318.039 387.944 318.414C388.413 318.789 388.944 318.976 389.538 318.976C390.139 318.976 390.678 318.789 391.147 318.414C391.616 318.031 391.975 317.344 392.225 316.351C392.569 315.094 392.741 312.953 392.741 309.93C392.741 306.898 392.589 304.82 392.288 303.695C391.983 302.562 391.6 301.805 391.132 301.43C390.671 301.047 390.139 300.851 389.538 300.851Z" fill="white" data-index="36"></path>
<path d="M413.856 322.633H408.919V304.023C407.106 305.711 404.973 306.957 402.528 307.758V303.273C403.817 302.859 405.219 302.062 406.731 300.883C408.239 299.707 409.278 298.332 409.841 296.758H413.856V322.633Z" fill="white" data-index="37"></path>
<path d="M487.148 356.992C489.648 356.992 491.601 357.883 493.008 359.664C494.683 361.77 495.523 365.27 495.523 370.164C495.523 375.039 494.679 378.539 492.992 380.664C491.594 382.426 489.648 383.305 487.148 383.305C484.648 383.305 482.625 382.344 481.086 380.414C479.554 378.488 478.789 375.051 478.789 370.102C478.789 365.25 479.633 361.758 481.32 359.633C482.715 357.875 484.656 356.992 487.148 356.992ZM487.148 361.086C486.554 361.086 486.023 361.281 485.554 361.664C485.086 362.039 484.719 362.723 484.461 363.711C484.125 364.985 483.961 367.133 483.961 370.164C483.961 373.188 484.109 375.266 484.414 376.399C484.715 377.524 485.094 378.274 485.554 378.649C486.023 379.024 486.554 379.211 487.148 379.211C487.75 379.211 488.289 379.024 488.758 378.649C489.226 378.266 489.586 377.578 489.836 376.586C490.179 375.328 490.351 373.188 490.351 370.164C490.351 367.133 490.199 365.055 489.898 363.93C489.594 362.797 489.211 362.039 488.742 361.664C488.281 361.281 487.75 361.086 487.148 361.086Z" fill="white" data-index="38"></path>
<path d="M515.513 378.274V382.867H498.185C498.373 381.129 498.935 379.485 499.873 377.93C500.81 376.379 502.662 374.321 505.435 371.758C507.662 369.688 509.029 368.281 509.529 367.539C510.205 366.52 510.545 365.508 510.545 364.508C510.545 363.414 510.248 362.571 509.654 361.977C509.068 361.383 508.256 361.086 507.217 361.086C506.185 361.086 505.361 361.399 504.748 362.024C504.142 362.641 503.795 363.672 503.701 365.117L498.779 364.617C499.068 361.899 499.986 359.953 501.529 358.774C503.08 357.586 505.013 356.992 507.326 356.992C509.877 356.992 511.877 357.68 513.326 359.055C514.783 360.422 515.513 362.125 515.513 364.164C515.513 365.321 515.302 366.426 514.888 367.477C514.47 368.531 513.81 369.629 512.904 370.774C512.31 371.535 511.232 372.633 509.67 374.071C508.107 375.5 507.115 376.446 506.701 376.914C506.295 377.383 505.959 377.836 505.701 378.274H515.513Z" fill="white" data-index="39"></path>
<path d="M569.41 435.312C571.91 435.312 573.864 436.203 575.27 437.984C576.946 440.089 577.785 443.589 577.785 448.484C577.785 453.359 576.942 456.859 575.254 458.984C573.856 460.746 571.91 461.624 569.41 461.624C566.91 461.624 564.887 460.664 563.348 458.734C561.817 456.808 561.051 453.371 561.051 448.421C561.051 443.57 561.895 440.078 563.582 437.953C564.977 436.195 566.918 435.312 569.41 435.312ZM569.41 439.406C568.817 439.406 568.285 439.601 567.817 439.984C567.348 440.359 566.981 441.042 566.723 442.031C566.387 443.304 566.223 445.453 566.223 448.484C566.223 451.507 566.371 453.585 566.676 454.718C566.977 455.843 567.356 456.593 567.817 456.968C568.285 457.343 568.817 457.531 569.41 457.531C570.012 457.531 570.551 457.343 571.02 456.968C571.489 456.585 571.848 455.898 572.098 454.906C572.442 453.648 572.614 451.507 572.614 448.484C572.614 445.453 572.461 443.374 572.16 442.249C571.856 441.117 571.473 440.359 571.004 439.984C570.543 439.601 570.012 439.406 569.41 439.406Z" fill="white" data-index="40"></path>
<path d="M580.916 454.343L585.698 453.765C585.842 454.984 586.248 455.917 586.916 456.562C587.592 457.21 588.405 457.531 589.354 457.531C590.373 457.531 591.229 457.148 591.916 456.374C592.612 455.593 592.963 454.546 592.963 453.234C592.963 451.996 592.627 451.015 591.963 450.296C591.295 449.57 590.483 449.203 589.526 449.203C588.889 449.203 588.135 449.324 587.26 449.562L587.807 445.546C589.139 445.578 590.155 445.289 590.854 444.671C591.561 444.058 591.916 443.242 591.916 442.218C591.916 441.355 591.655 440.667 591.135 440.156C590.623 439.636 589.94 439.374 589.088 439.374C588.244 439.374 587.518 439.667 586.916 440.249C586.323 440.835 585.963 441.687 585.838 442.812L581.276 442.046C581.596 440.484 582.076 439.242 582.713 438.312C583.346 437.374 584.237 436.64 585.385 436.109C586.53 435.578 587.811 435.312 589.229 435.312C591.655 435.312 593.596 436.085 595.057 437.624C596.264 438.898 596.869 440.328 596.869 441.921C596.869 444.183 595.635 445.984 593.166 447.328C594.643 447.652 595.823 448.367 596.698 449.468C597.58 450.562 598.026 451.89 598.026 453.453C598.026 455.714 597.198 457.64 595.541 459.234C593.893 460.828 591.842 461.624 589.385 461.624C587.049 461.624 585.112 460.953 583.573 459.609C582.041 458.265 581.155 456.511 580.916 454.343Z" fill="white" data-index="41"></path>
<path d="M645.489 516.445C647.841 516.445 649.684 517.285 651.02 518.96C652.602 520.96 653.395 524.269 653.395 528.882C653.395 533.488 652.598 536.796 651.005 538.804C649.68 540.472 647.841 541.304 645.489 541.304C643.122 541.304 641.212 540.394 639.755 538.57C638.305 536.749 637.583 533.503 637.583 528.835C637.583 524.253 638.38 520.953 639.973 518.929C641.294 517.273 643.134 516.445 645.489 516.445ZM645.489 520.32C644.927 520.32 644.419 520.503 643.973 520.867C643.536 521.222 643.196 521.863 642.958 522.788C642.634 523.999 642.473 526.031 642.473 528.882C642.473 531.738 642.614 533.703 642.895 534.773C643.184 535.835 643.552 536.546 643.989 536.898C644.427 537.253 644.927 537.429 645.489 537.429C646.052 537.429 646.552 537.253 646.989 536.898C647.434 536.535 647.786 535.89 648.036 534.96C648.356 533.765 648.52 531.738 648.52 528.882C648.52 526.031 648.372 524.07 648.083 523.007C647.79 521.937 647.427 521.222 646.989 520.867C646.552 520.503 646.052 520.32 645.489 520.32Z" fill="#122359" data-index="42"></path>
<path d="M665.662 540.882V535.992H655.693V531.898L666.255 516.445H670.177V531.882H673.193V535.992H670.177V540.882H665.662ZM665.662 531.882V523.57L660.068 531.882H665.662Z" fill="#122359" data-index="43"></path>
<path d="M709.971 605.049C712.19 605.049 713.925 605.842 715.175 607.424C716.663 609.299 717.409 612.409 717.409 616.752C717.409 621.088 716.659 624.202 715.159 626.096C713.917 627.659 712.19 628.44 709.971 628.44C707.741 628.44 705.944 627.588 704.581 625.877C703.214 624.159 702.534 621.104 702.534 616.706C702.534 612.393 703.284 609.291 704.784 607.393C706.022 605.831 707.753 605.049 709.971 605.049ZM709.971 608.69C709.44 608.69 708.964 608.862 708.55 609.206C708.132 609.541 707.807 610.143 707.581 611.018C707.276 612.155 707.128 614.065 707.128 616.752C707.128 619.44 707.26 621.291 707.534 622.299C707.803 623.299 708.143 623.967 708.55 624.299C708.964 624.635 709.44 624.799 709.971 624.799C710.503 624.799 710.975 624.635 711.393 624.299C711.807 623.956 712.132 623.346 712.362 622.471C712.663 621.346 712.815 619.44 712.815 616.752C712.815 614.065 712.678 612.221 712.409 611.221C712.135 610.213 711.792 609.541 711.378 609.206C710.971 608.862 710.503 608.69 709.971 608.69Z" fill="#122359" data-index="44"></path>
<path d="M720.405 622.159L724.78 621.705C724.905 622.698 725.272 623.483 725.889 624.065C726.502 624.639 727.209 624.924 728.014 624.924C728.928 624.924 729.705 624.557 730.342 623.815C730.975 623.065 731.295 621.94 731.295 620.44C731.295 619.034 730.975 617.983 730.342 617.284C729.717 616.576 728.897 616.221 727.889 616.221C726.627 616.221 725.498 616.78 724.498 617.893L720.936 617.377L723.186 605.455H734.795V609.565H726.514L725.826 613.455C726.803 612.967 727.803 612.721 728.826 612.721C730.772 612.721 732.424 613.432 733.78 614.846C735.131 616.264 735.811 618.104 735.811 620.362C735.811 622.248 735.264 623.932 734.17 625.409C732.678 627.432 730.612 628.44 727.967 628.44C725.85 628.44 724.127 627.873 722.795 626.737C721.459 625.604 720.662 624.076 720.405 622.159Z" fill="#122359" data-index="45"></path>
</g>
<defs>
<clipPath id="clip0_182_7432">
<rect width="1440" height="810" fill="white"></rect>
</clipPath>
</defs>
</svg>