<svg width="295" height="359" viewBox="0 0 295 359" fill="none" xmlns="http://www.w3.org/2000/svg">
<path d="M82.4375 357.674C81.1953 357.674 80.1875 356.678 80.1875 355.451C80.1875 354.225 81.1953 353.229 82.4375 353.229C83.6797 353.229 84.6875 354.225 84.6875 355.451C84.6875 356.678 83.6797 357.674 82.4375 357.674Z" fill="#420477" stroke="#420477" stroke-width="2" stroke-linecap="round" stroke-linejoin="round"/>
<path d="M82.4376 352.859L82.4376 83.291" stroke="#420477" stroke-width="2"/>
<mask id="mask0_586_1652" style="mask-type:luminance" maskUnits="userSpaceOnUse" x="46" y="46" width="249" height="81">
<path d="M46.2734 46.2385H294.016V126.057H46.2734V46.2385Z" fill="white"/>
</mask>
<g mask="url(#mask0_586_1652)">
<mask id="mask1_586_1652" style="mask-type:luminance" maskUnits="userSpaceOnUse" x="46" y="46" width="249" height="81">
<path d="M86.6797 46.2385H253.605C275.926 46.2385 294.016 64.105 294.016 86.1459C294.016 108.191 275.926 126.057 253.605 126.057H86.6797C64.3633 126.057 46.2734 108.191 46.2734 86.1459C46.2734 64.105 64.3633 46.2385 86.6797 46.2385Z" fill="white"/>
</mask>
<g mask="url(#mask1_586_1652)">
<mask id="mask2_586_1652" style="mask-type:luminance" maskUnits="userSpaceOnUse" x="46" y="46" width="249" height="81">
<path d="M294.016 46.0728H46.0156V126.073H294.016V46.0728Z" fill="white"/>
</mask>
<g mask="url(#mask2_586_1652)">
<mask id="mask3_586_1652" style="mask-type:luminance" maskUnits="userSpaceOnUse" x="46" y="46" width="249" height="81">
<path d="M46.2734 46.2385H294.016V126.057H46.2734V46.2385Z" fill="white"/>
</mask>
<g mask="url(#mask3_586_1652)">
<mask id="mask4_586_1652" style="mask-type:luminance" maskUnits="userSpaceOnUse" x="46" y="46" width="249" height="81">
<path d="M86.6797 46.2385H253.605C275.926 46.2385 294.016 64.105 294.016 86.1459C294.016 108.191 275.926 126.057 253.605 126.057H86.6797C64.3633 126.057 46.2734 108.191 46.2734 86.1459C46.2734 64.105 64.3633 46.2385 86.6797 46.2385Z" fill="white"/>
</mask>
<g mask="url(#mask4_586_1652)">
<path d="M46.2734 46.2385H294.094V126.057H46.2734V46.2385Z" fill="#420477"/>
</g>
</g>
</g>
</g>
</g>
<mask id="mask5_586_1652" style="mask-type:luminance" maskUnits="userSpaceOnUse" x="19" y="18" width="130" height="129">
<path d="M19.4531 18.9429H148.426V146.323H19.4531V18.9429Z" fill="white"/>
</mask>
<g mask="url(#mask5_586_1652)">
<mask id="mask6_586_1652" style="mask-type:luminance" maskUnits="userSpaceOnUse" x="19" y="18" width="130" height="129">
<path d="M83.9414 18.9429C48.3281 18.9429 19.4531 47.4575 19.4531 82.6311C19.4531 117.809 48.3281 146.323 83.9414 146.323C119.555 146.323 148.426 117.809 148.426 82.6311C148.426 47.4575 119.555 18.9429 83.9414 18.9429Z" fill="white"/>
</mask>
<g mask="url(#mask6_586_1652)">
<mask id="mask7_586_1652" style="mask-type:luminance" maskUnits="userSpaceOnUse" x="19" y="18" width="131" height="129">
<path d="M149.016 18.4182H19.0156V146.813H149.016V18.4182Z" fill="white"/>
</mask>
<g mask="url(#mask7_586_1652)">
<mask id="mask8_586_1652" style="mask-type:luminance" maskUnits="userSpaceOnUse" x="19" y="18" width="130" height="129">
<path d="M19.4531 18.9429H148.426V146.323H19.4531V18.9429Z" fill="white"/>
</mask>
<g mask="url(#mask8_586_1652)">
<mask id="mask9_586_1652" style="mask-type:luminance" maskUnits="userSpaceOnUse" x="19" y="18" width="130" height="129">
<path d="M83.9414 18.9429C48.3281 18.9429 19.4531 47.4575 19.4531 82.6311C19.4531 117.809 48.3281 146.323 83.9414 146.323C119.555 146.323 148.426 117.809 148.426 82.6311C148.426 47.4575 119.555 18.9429 83.9414 18.9429Z" fill="white"/>
</mask>
<g mask="url(#mask9_586_1652)">
<path d="M19.4531 18.9429H148.426V146.323H19.4531V18.9429Z" fill="#65477F"/>
</g>
</g>
</g>
</g>
</g>
<mask id="mask10_586_1652" style="mask-type:luminance" maskUnits="userSpaceOnUse" x="0" y="-1" width="114" height="113">
<path d="M0 0H113.016V111.258H0V0Z" fill="white"/>
</mask>
<g mask="url(#mask10_586_1652)">
<path d="M0 88.3642V110.783C61.4141 109.622 110.977 60.6712 112.156 0.0153809H89.457C40.0508 0.0192386 0 39.5717 0 88.3642Z" fill="#420477"/>
</g>
<path d="M189.048 85.4203C189.048 86.9443 188.689 88.2907 187.97 89.4636C187.259 90.6364 186.244 91.5546 184.923 92.2105C183.599 92.8586 182.009 93.1827 180.158 93.1827H175.408V77.7197H180.22C182.04 77.7197 183.611 78.0245 184.923 78.6302C186.244 79.2398 187.259 80.1194 187.97 81.2691C188.689 82.4227 189.048 83.8077 189.048 85.4203ZM185.736 85.4203C185.736 84.4018 185.494 83.5492 185.017 82.8586C184.536 82.1603 183.884 81.6356 183.064 81.2845C182.24 80.9257 181.318 80.7444 180.298 80.7444H178.658V90.158H180.251C181.333 90.158 182.286 89.9728 183.111 89.6024C183.943 89.2321 184.587 88.6997 185.048 87.9975C185.505 87.2992 185.736 86.4389 185.736 85.4203Z" fill="white"/>
<path d="M198.152 85.6363C197.91 85.5977 197.66 85.5746 197.402 85.5746C196.703 85.5746 196.14 85.7212 195.714 86.0067C195.285 86.2845 194.98 86.6626 194.792 87.1332C194.605 87.6078 194.511 88.1363 194.511 88.7227V93.1826H191.386V82.6271H194.495V84.2474H194.511C194.718 83.796 195.081 83.3948 195.605 83.0437C196.136 82.6965 196.777 82.519 197.527 82.519C197.777 82.519 197.984 82.546 198.152 82.5962V85.6363Z" fill="white"/>
<path d="M199.508 78.9544C199.508 78.4219 199.695 77.9667 200.07 77.5963C200.453 77.226 200.906 77.0408 201.43 77.0408C201.969 77.0408 202.43 77.226 202.805 77.5963C203.188 77.9667 203.383 78.4219 203.383 78.9544C203.383 79.4906 203.188 79.942 202.805 80.3124C202.43 80.675 201.969 80.8525 201.43 80.8525C200.906 80.8525 200.453 80.675 200.07 80.3124C199.695 79.942 199.508 79.4906 199.508 78.9544ZM199.883 93.1827H203.024V82.6272H199.883V93.1827Z" fill="white"/>
<path d="M204.744 82.6272H208.041L210.682 89.6642L213.322 82.6272H216.619L212.244 93.1828H209.057L204.744 82.6272Z" fill="white"/>
<path d="M220.831 88.7536C220.944 89.4133 221.253 89.9264 221.753 90.2968C222.253 90.6594 222.823 90.8369 223.472 90.8369C223.929 90.8369 224.382 90.725 224.831 90.4974C225.276 90.2736 225.62 89.965 225.862 89.5715L228.112 91.0221C227.226 92.6193 225.694 93.4141 223.519 93.4141C222.433 93.4141 221.448 93.1826 220.566 92.7196C219.679 92.249 218.972 91.6008 218.441 90.7752C217.917 89.9419 217.659 88.9812 217.659 87.8894C217.659 87.1294 217.808 86.4156 218.112 85.7443C218.413 85.0769 218.819 84.4905 219.331 83.9851C219.851 83.4835 220.448 83.09 221.128 82.8122C221.816 82.5267 222.542 82.3801 223.316 82.3801C224.386 82.3801 225.319 82.6078 226.112 83.0591C226.901 83.5028 227.523 84.1201 227.972 84.911C228.417 85.6942 228.644 86.6085 228.644 87.6579C228.644 87.8431 228.644 88.0283 228.644 88.2135C228.644 88.3909 228.628 88.5684 228.597 88.7536H220.831ZM225.519 86.7165C225.507 86.4619 225.417 86.1919 225.253 85.9141C225.085 85.6286 224.835 85.3855 224.503 85.1888C224.179 84.9843 223.757 84.8801 223.237 84.8801C222.769 84.8801 222.366 84.9882 222.034 85.2042C221.698 85.4125 221.441 85.6594 221.253 85.9449C221.066 86.2227 220.956 86.4812 220.925 86.7165H225.519Z" fill="white"/>
<mask id="mask11_586_1652" style="mask-type:luminance" maskUnits="userSpaceOnUse" x="42" y="42" width="85" height="84">
<path d="M42.0156 42.1221H126.75V125.926H42.0156V42.1221Z" fill="white"/>
</mask>
<g mask="url(#mask11_586_1652)">
<path d="M126.832 84.4291C126.832 85.7949 126.766 87.1567 126.629 88.5109C126.496 89.8689 126.293 91.2192 126.023 92.5541C125.754 93.8929 125.418 95.2162 125.02 96.5202C124.617 97.8242 124.152 99.1089 123.625 100.37C123.094 101.628 122.504 102.859 121.855 104.063C121.203 105.266 120.496 106.435 119.727 107.57C118.961 108.704 118.137 109.799 117.262 110.853C116.387 111.906 115.461 112.917 114.484 113.881C113.508 114.846 112.484 115.76 111.418 116.624C110.348 117.492 109.242 118.303 108.094 119.059C106.945 119.819 105.762 120.517 104.543 121.161C103.324 121.806 102.078 122.388 100.801 122.909C99.5273 123.43 98.2266 123.889 96.9062 124.286C95.582 124.684 94.2461 125.012 92.8906 125.278C91.5352 125.544 90.1719 125.745 88.7969 125.88C87.4219 126.015 86.043 126.08 84.6641 126.08C83.2812 126.08 81.9062 126.015 80.5312 125.88C79.1562 125.745 77.793 125.544 76.4375 125.278C75.082 125.012 73.7422 124.684 72.4219 124.286C71.1016 123.889 69.8008 123.43 68.5273 122.909C67.25 122.388 66.0039 121.806 64.7852 121.161C63.5664 120.517 62.3828 119.819 61.2344 119.059C60.0859 118.303 58.9805 117.492 57.9102 116.624C56.8438 115.76 55.8203 114.846 54.8438 113.881C53.8672 112.917 52.9414 111.906 52.0664 110.853C51.1875 109.799 50.3672 108.704 49.6016 107.57C48.832 106.435 48.125 105.266 47.4727 104.063C46.8203 102.859 46.2305 101.628 45.7031 100.37C45.1758 99.1089 44.7109 97.8242 44.3086 96.5202C43.9062 95.2162 43.5742 93.8929 43.3047 92.5541C43.0352 91.2192 42.832 89.8689 42.6953 88.5109C42.5625 87.1567 42.4922 85.7949 42.4922 84.4291C42.4922 83.0672 42.5625 81.7054 42.6953 80.3473C42.832 78.9893 43.0352 77.6429 43.3047 76.3041C43.5742 74.9654 43.9062 73.6459 44.3086 72.3381C44.7109 71.0341 45.1758 69.7532 45.7031 68.4916C46.2305 67.23 46.8203 65.9993 47.4727 64.7956C48.125 63.5919 48.832 62.4268 49.6016 61.2925C50.3672 60.1583 51.1875 59.0626 52.0664 58.0094C52.9414 56.9523 53.8672 55.9453 54.8438 54.9808C55.8203 54.0163 56.8438 53.0981 57.9102 52.2339C58.9805 51.3697 60.0859 50.5557 61.2344 49.7995C62.3828 49.0433 63.5664 48.3412 64.7852 47.6969C66.0039 47.0564 67.25 46.4739 68.5273 45.9492C69.8008 45.4283 71.1016 44.9692 72.4219 44.5757C73.7422 44.1783 75.082 43.8466 76.4375 43.5803C77.793 43.3141 79.1562 43.1135 80.5312 42.9824C81.9062 42.8473 83.2812 42.7817 84.6641 42.7817C86.043 42.7817 87.4219 42.8473 88.7969 42.9824C90.1719 43.1135 91.5352 43.3141 92.8906 43.5803C94.2461 43.8466 95.582 44.1783 96.9062 44.5757C98.2266 44.9692 99.5273 45.4283 100.801 45.9492C102.078 46.4739 103.324 47.0564 104.543 47.6969C105.762 48.3412 106.945 49.0433 108.094 49.7995C109.242 50.5557 110.348 51.3697 111.418 52.2339C112.484 53.0981 113.508 54.0163 114.484 54.9808C115.461 55.9453 116.387 56.9523 117.262 58.0094C118.137 59.0626 118.961 60.1583 119.727 61.2925C120.496 62.4268 121.203 63.5919 121.855 64.7956C122.504 65.9993 123.094 67.23 123.625 68.4916C124.152 69.7532 124.617 71.0341 125.02 72.3381C125.418 73.6459 125.754 74.9654 126.023 76.3041C126.293 77.6429 126.496 78.9893 126.629 80.3473C126.766 81.7054 126.832 83.0672 126.832 84.4291Z" fill="white"/>
</g>
<path d="M89.6156 73.8742C89.6156 73.5957 89.7263 73.3287 89.9232 73.1318C90.1201 72.9348 90.3872 72.8242 90.6656 72.8242H94.1656C94.4441 72.8242 94.7112 72.9348 94.9081 73.1318C95.105 73.3287 95.2156 73.5957 95.2156 73.8742V77.3742C95.2156 77.6527 95.105 77.9198 94.9081 78.1167C94.7112 78.3136 94.4441 78.4242 94.1656 78.4242C93.8872 78.4242 93.6201 78.3136 93.4232 78.1167C93.2263 77.9198 93.1156 77.6527 93.1156 77.3742V76.4082L86.8576 82.6662C86.6608 82.8628 86.3939 82.9733 86.1156 82.9733C85.8374 82.9733 85.5705 82.8628 85.3736 82.6662L81.9156 79.2082L76.0076 85.1162C75.9115 85.2194 75.7956 85.3021 75.6668 85.3595C75.538 85.4169 75.399 85.4478 75.258 85.4502C75.117 85.4527 74.977 85.4268 74.8462 85.374C74.7155 85.3212 74.5967 85.2426 74.497 85.1429C74.3973 85.0432 74.3187 84.9244 74.2659 84.7937C74.2131 84.6629 74.1871 84.5229 74.1896 84.3819C74.1921 84.2409 74.223 84.1019 74.2804 83.9731C74.3377 83.8443 74.4205 83.7283 74.5236 83.6322L81.1736 76.9822C81.3705 76.7856 81.6374 76.6751 81.9156 76.6751C82.1939 76.6751 82.4608 76.7856 82.6576 76.9822L86.1156 80.4402L91.6316 74.9242H90.6656C90.3872 74.9242 90.1201 74.8136 89.9232 74.6167C89.7263 74.4198 89.6156 74.1527 89.6156 73.8742ZM75.2656 89.6242C75.5441 89.6242 75.8112 89.7348 76.0081 89.9318C76.205 90.1287 76.3156 90.3957 76.3156 90.6742V94.1742C76.3156 94.4527 76.205 94.7198 76.0081 94.9167C75.8112 95.1136 75.5441 95.2242 75.2656 95.2242C74.9872 95.2242 74.7201 95.1136 74.5232 94.9167C74.3263 94.7198 74.2156 94.4527 74.2156 94.1742V90.6742C74.2156 90.3957 74.3263 90.1287 74.5232 89.9318C74.7201 89.7348 74.9872 89.6242 75.2656 89.6242ZM81.9156 86.4742C81.9156 86.1957 81.805 85.9287 81.6081 85.7318C81.4112 85.5348 81.1441 85.4242 80.8656 85.4242C80.5872 85.4242 80.3201 85.5348 80.1232 85.7318C79.9263 85.9287 79.8156 86.1957 79.8156 86.4742V94.1742C79.8156 94.4527 79.9263 94.7198 80.1232 94.9167C80.3201 95.1136 80.5872 95.2242 80.8656 95.2242C81.1441 95.2242 81.4112 95.1136 81.6081 94.9167C81.805 94.7198 81.9156 94.4527 81.9156 94.1742V86.4742ZM86.4656 88.2242C86.7441 88.2242 87.0112 88.3348 87.2081 88.5318C87.405 88.7287 87.5156 88.9957 87.5156 89.2742V94.1742C87.5156 94.4527 87.405 94.7198 87.2081 94.9167C87.0112 95.1136 86.7441 95.2242 86.4656 95.2242C86.1872 95.2242 85.9201 95.1136 85.7232 94.9167C85.5263 94.7198 85.4156 94.4527 85.4156 94.1742V89.2742C85.4156 88.9957 85.5263 88.7287 85.7232 88.5318C85.9201 88.3348 86.1872 88.2242 86.4656 88.2242ZM93.1156 83.6742C93.1156 83.3957 93.005 83.1287 92.8081 82.9318C92.6112 82.7348 92.3441 82.6242 92.0656 82.6242C91.7872 82.6242 91.5201 82.7348 91.3232 82.9318C91.1263 83.1287 91.0156 83.3957 91.0156 83.6742V94.1742C91.0156 94.4527 91.1263 94.7198 91.3232 94.9167C91.5201 95.1136 91.7872 95.2242 92.0656 95.2242C92.3441 95.2242 92.6112 95.1136 92.8081 94.9167C93.005 94.7198 93.1156 94.4527 93.1156 94.1742V83.6742Z" fill="black"/>
</svg>
