<svg width="56" height="56" viewBox="0 0 56 56" fill="none" xmlns="http://www.w3.org/2000/svg">
<rect width="56" height="56" rx="28" fill="url(#paint0_linear_287_10136)"/>
<path d="M27.5621 19.2659C27.6052 19.1875 27.6686 19.1222 27.7457 19.0766C27.8227 19.0311 27.9106 19.0071 28.0001 19.0071C28.0895 19.0071 28.1774 19.0311 28.2544 19.0766C28.3315 19.1222 28.3949 19.1875 28.4381 19.2659L31.3901 24.8699C31.4605 24.9997 31.5587 25.1123 31.6778 25.1995C31.7968 25.2868 31.9337 25.3467 32.0787 25.3748C32.2236 25.4029 32.3729 25.3986 32.516 25.3621C32.659 25.3256 32.7923 25.258 32.9061 25.1639L37.1831 21.4999C37.2652 21.4331 37.3663 21.3941 37.472 21.3885C37.5777 21.3829 37.6824 21.411 37.7712 21.4687C37.8599 21.5264 37.928 21.6107 37.9657 21.7096C38.0034 21.8085 38.0088 21.9168 37.9811 22.0189L35.1471 32.2649C35.0892 32.4746 34.9646 32.6597 34.7921 32.7921C34.6195 32.9246 34.4086 32.9972 34.1911 32.9989H21.8101C21.5924 32.9974 21.3812 32.9249 21.2084 32.7924C21.0357 32.66 20.911 32.4748 20.8531 32.2649L18.0201 22.0199C17.9923 21.9178 17.9977 21.8095 18.0354 21.7106C18.0731 21.6117 18.1412 21.5274 18.23 21.4697C18.3187 21.412 18.4234 21.3839 18.5291 21.3895C18.6348 21.3951 18.736 21.4341 18.8181 21.5009L23.0941 25.1649C23.2079 25.259 23.3411 25.3266 23.4841 25.3631C23.6272 25.3996 23.7765 25.4039 23.9215 25.3758C24.0664 25.3477 24.2033 25.2878 24.3224 25.2005C24.4414 25.1133 24.5397 25.0007 24.6101 24.8709L27.5621 19.2659Z" stroke="white" stroke-width="2" stroke-linecap="round" stroke-linejoin="round"/>
<path d="M21 37H35" stroke="white" stroke-width="2" stroke-linecap="round" stroke-linejoin="round"/>
<defs>
<linearGradient id="paint0_linear_287_10136" x1="0" y1="28" x2="56" y2="28" gradientUnits="userSpaceOnUse">
<stop stop-color="#48B4E1"/>
<stop offset="1" stop-color="#72339F"/>
</linearGradient>
</defs>
</svg>
