<svg width="72" height="72" viewBox="0 0 72 72" fill="none" xmlns="http://www.w3.org/2000/svg">
<rect width="72" height="72" rx="10" fill="#420477" fill-opacity="0.6"/>
<path fill-rule="evenodd" clip-rule="evenodd" d="M22.2705 28.8584C22.5996 26.1398 23.7273 23.5798 25.5111 21.5019C27.2949 19.4241 29.6547 17.9218 32.2922 17.1849C29.9163 20.9299 28.579 24.8228 28.3755 28.8584H22.2705ZM22.2705 32.162H28.4601C28.8565 36.0629 30.2916 39.9901 32.7151 43.9439C29.9837 43.273 27.5213 41.7863 25.6555 39.6817C23.7898 37.577 22.6091 34.9541 22.2705 32.162ZM49.7298 32.162C49.3928 34.9397 48.2223 37.5502 46.3725 39.6496C44.5227 41.749 42.0803 43.2388 39.3671 43.9227C41.8144 40.0351 43.2574 36.1104 43.6221 32.162H49.7298ZM36.0266 43.0004C38.5214 39.2819 39.9195 35.6717 40.3027 32.162H31.7848C32.1971 35.6189 33.5766 39.2264 36.0266 43.0004ZM31.6844 28.8584H40.3609C40.0939 25.1373 38.6694 21.3924 35.9922 17.6078C33.3229 21.3342 31.9116 25.0765 31.6844 28.8584ZM49.7271 28.8584H43.675C43.4266 24.8677 42.0734 20.9721 39.6737 17.177C42.3177 17.9095 44.6846 19.4109 46.474 21.4906C48.2634 23.5703 49.3947 26.1347 49.7245 28.8584H49.7271ZM34.018 47.5249V49.8929H22.7859C22.2602 49.8929 21.756 50.1018 21.3843 50.4735C21.0125 50.8452 20.8037 51.3494 20.8037 51.8751C20.8037 52.4008 21.0125 52.9049 21.3843 53.2767C21.756 53.6484 22.2602 53.8572 22.7859 53.8572H49.2144C49.7401 53.8572 50.2443 53.6484 50.616 53.2767C50.9877 52.9049 51.1966 52.4008 51.1966 51.8751C51.1966 51.3494 50.9877 50.8452 50.616 50.4735C50.2443 50.1018 49.7401 49.8929 49.2144 49.8929H37.9823V47.5249C36.6651 47.6756 35.3351 47.6756 34.018 47.5249Z" fill="white"/>
</svg>
