<svg width="63" height="63" viewBox="0 0 63 63" fill="none" xmlns="http://www.w3.org/2000/svg">
<g filter="url(#filter0_d_283_1201)">
<rect x="4" y="4" width="55" height="55" rx="15" fill="#470277" fill-opacity="0.6" shape-rendering="crispEdges"/>
<g clip-path="url(#clip0_283_1201)">
<path d="M31.5 45C35.0804 45 38.5142 43.5777 41.0459 41.0459C43.5777 38.5142 45 35.0804 45 31.5C45 27.9196 43.5777 24.4858 41.0459 21.9541C38.5142 19.4223 35.0804 18 31.5 18C27.9196 18 24.4858 19.4223 21.9541 21.9541C19.4223 24.4858 18 27.9196 18 31.5C18 35.0804 19.4223 38.5142 21.9541 41.0459C24.4858 43.5777 27.9196 45 31.5 45ZM26.0831 26.5944L31.5 30.4639V27.2812C31.5001 27.1264 31.5428 26.9745 31.6235 26.8423C31.7042 26.7101 31.8196 26.6026 31.9573 26.5317C32.095 26.4608 32.2495 26.4291 32.404 26.4402C32.5585 26.4512 32.707 26.5046 32.8331 26.5944L38.7394 30.8132C38.8488 30.8912 38.9379 30.9943 38.9994 31.1137C39.0609 31.2332 39.093 31.3656 39.093 31.5C39.093 31.6344 39.0609 31.7668 38.9994 31.8863C38.9379 32.0057 38.8488 32.1088 38.7394 32.1868L32.8331 36.4056C32.707 36.4954 32.5585 36.5488 32.404 36.5598C32.2495 36.5709 32.095 36.5392 31.9573 36.4683C31.8196 36.3974 31.7042 36.2899 31.6235 36.1577C31.5428 36.0255 31.5001 35.8736 31.5 35.7188V32.5361L26.0831 36.4056C25.957 36.4954 25.8085 36.5488 25.654 36.5598C25.4995 36.5709 25.345 36.5392 25.2073 36.4683C25.0696 36.3974 24.9541 36.2899 24.8735 36.1577C24.7928 36.0255 24.7501 35.8736 24.75 35.7188V27.2812C24.7501 27.1264 24.7928 26.9745 24.8735 26.8423C24.9541 26.7101 25.0696 26.6026 25.2073 26.5317C25.345 26.4608 25.4995 26.4291 25.654 26.4402C25.8085 26.4512 25.957 26.5046 26.0831 26.5944Z" fill="white"/>
</g>
</g>
<defs>
<filter id="filter0_d_283_1201" x="0" y="0" width="63" height="63" filterUnits="userSpaceOnUse" color-interpolation-filters="sRGB">
<feFlood flood-opacity="0" result="BackgroundImageFix"/>
<feColorMatrix in="SourceAlpha" type="matrix" values="0 0 0 0 0 0 0 0 0 0 0 0 0 0 0 0 0 0 127 0" result="hardAlpha"/>
<feOffset/>
<feGaussianBlur stdDeviation="2"/>
<feComposite in2="hardAlpha" operator="out"/>
<feColorMatrix type="matrix" values="0 0 0 0 0 0 0 0 0 0 0 0 0 0 0 0 0 0 0.25 0"/>
<feBlend mode="normal" in2="BackgroundImageFix" result="effect1_dropShadow_283_1201"/>
<feBlend mode="normal" in="SourceGraphic" in2="effect1_dropShadow_283_1201" result="shape"/>
</filter>
<clipPath id="clip0_283_1201">
<rect width="27" height="27" fill="white" transform="translate(18 18)"/>
</clipPath>
</defs>
</svg>
