<svg width="56" height="56" viewBox="0 0 56 56" fill="none" xmlns="http://www.w3.org/2000/svg">
<rect width="56" height="56" rx="28" fill="url(#paint0_linear_336_1661)"/>
<path d="M37.3333 23.3333H18.6667C18.0223 23.3333 17.5 23.8556 17.5 24.5V26.8333C17.5 27.4776 18.0223 28 18.6667 28H37.3333C37.9777 28 38.5 27.4776 38.5 26.8333V24.5C38.5 23.8556 37.9777 23.3333 37.3333 23.3333Z" stroke="white" stroke-width="2.33333" stroke-linecap="round" stroke-linejoin="round"/>
<path d="M28 23.3333V38.5" stroke="white" stroke-width="2.33333" stroke-linecap="round" stroke-linejoin="round"/>
<path d="M36.1666 28V36.1667C36.1666 36.7855 35.9208 37.379 35.4832 37.8166C35.0456 38.2542 34.4521 38.5 33.8333 38.5H22.1666C21.5477 38.5 20.9543 38.2542 20.5167 37.8166C20.0791 37.379 19.8333 36.7855 19.8333 36.1667V28" stroke="white" stroke-width="2.33333" stroke-linecap="round" stroke-linejoin="round"/>
<path d="M22.7499 23.3334C21.9764 23.3334 21.2345 23.0261 20.6875 22.4791C20.1405 21.9321 19.8333 21.1902 19.8333 20.4167C19.8333 19.6431 20.1405 18.9013 20.6875 18.3543C21.2345 17.8073 21.9764 17.5 22.7499 17.5C23.8754 17.4804 24.9783 18.0265 25.9148 19.067C26.8513 20.1076 27.5779 21.5943 27.9999 23.3334C28.4219 21.5943 29.1486 20.1076 30.0851 19.067C31.0216 18.0265 32.1245 17.4804 33.2499 17.5C34.0235 17.5 34.7653 17.8073 35.3123 18.3543C35.8593 18.9013 36.1666 19.6431 36.1666 20.4167C36.1666 21.1902 35.8593 21.9321 35.3123 22.4791C34.7653 23.0261 34.0235 23.3334 33.2499 23.3334" stroke="white" stroke-width="2.33333" stroke-linecap="round" stroke-linejoin="round"/>
<defs>
<linearGradient id="paint0_linear_336_1661" x1="0" y1="28" x2="56" y2="28" gradientUnits="userSpaceOnUse">
<stop stop-color="#48B4E1"/>
<stop offset="1" stop-color="#72339F"/>
</linearGradient>
</defs>
</svg>
