<svg width="16" height="16" viewBox="0 0 16 16" fill="none" xmlns="http://www.w3.org/2000/svg">
<path d="M13.3333 5.33331H2.66667C2.29848 5.33331 2 5.63179 2 5.99998V7.33331C2 7.7015 2.29848 7.99998 2.66667 7.99998H13.3333C13.7015 7.99998 14 7.7015 14 7.33331V5.99998C14 5.63179 13.7015 5.33331 13.3333 5.33331Z" stroke="white" stroke-width="1.33333" stroke-linecap="round" stroke-linejoin="round"/>
<path d="M8 5.33331V14" stroke="white" stroke-width="1.33333" stroke-linecap="round" stroke-linejoin="round"/>
<path d="M12.6666 8V12.6667C12.6666 13.0203 12.5261 13.3594 12.2761 13.6095C12.026 13.8595 11.6869 14 11.3333 14H4.66659C4.31296 14 3.97382 13.8595 3.72378 13.6095C3.47373 13.3594 3.33325 13.0203 3.33325 12.6667V8" stroke="white" stroke-width="1.33333" stroke-linecap="round" stroke-linejoin="round"/>
<path d="M4.99992 5.33332C4.55789 5.33332 4.13397 5.15773 3.82141 4.84516C3.50885 4.5326 3.33325 4.10868 3.33325 3.66665C3.33325 3.22463 3.50885 2.8007 3.82141 2.48814C4.13397 2.17558 4.55789 1.99999 4.99992 1.99999C5.64304 1.98878 6.27327 2.30083 6.80841 2.89543C7.34355 3.49003 7.75877 4.33959 7.99992 5.33332C8.24107 4.33959 8.65629 3.49003 9.19143 2.89543C9.72657 2.30083 10.3568 1.98878 10.9999 1.99999C11.4419 1.99999 11.8659 2.17558 12.1784 2.48814C12.491 2.8007 12.6666 3.22463 12.6666 3.66665C12.6666 4.10868 12.491 4.5326 12.1784 4.84516C11.8659 5.15773 11.4419 5.33332 10.9999 5.33332" stroke="white" stroke-width="1.33333" stroke-linecap="round" stroke-linejoin="round"/>
</svg>
