<svg width="253" height="253" viewBox="0 0 253 253" fill="none" xmlns="http://www.w3.org/2000/svg">
<path d="M231.073 69.7858C230.004 67.21 227.957 65.163 225.381 64.0933C224.113 63.5532 222.753 63.2667 221.375 63.25H168.667C165.871 63.25 163.19 64.3606 161.213 66.3376C159.236 68.3145 158.125 70.9958 158.125 73.7917C158.125 76.5875 159.236 79.2688 161.213 81.2457C163.19 83.2227 165.871 84.3333 168.667 84.3333H195.97L137.042 143.261L102.36 108.474C101.38 107.486 100.214 106.701 98.9291 106.166C97.6445 105.631 96.2666 105.356 94.875 105.356C93.4834 105.356 92.1055 105.631 90.8209 106.166C89.5363 106.701 88.3704 107.486 87.3904 108.474L24.1404 171.724C23.1524 172.704 22.3681 173.87 21.8329 175.154C21.2978 176.439 21.0222 177.817 21.0222 179.208C21.0222 180.6 21.2978 181.978 21.8329 183.262C22.3681 184.547 23.1524 185.713 24.1404 186.693C25.1204 187.681 26.2863 188.465 27.5709 189C28.8555 189.536 30.2334 189.811 31.625 189.811C33.0166 189.811 34.3945 189.536 35.6791 189C36.9637 188.465 38.1296 187.681 39.1096 186.693L94.875 130.822L129.557 165.61C130.537 166.598 131.703 167.382 132.988 167.917C134.272 168.452 135.65 168.728 137.042 168.728C138.433 168.728 139.811 168.452 141.096 167.917C142.38 167.382 143.546 166.598 144.526 165.61L210.833 99.1971V126.5C210.833 129.296 211.944 131.977 213.921 133.954C215.898 135.931 218.579 137.042 221.375 137.042C224.171 137.042 226.852 135.931 228.829 133.954C230.806 131.977 231.917 129.296 231.917 126.5V73.7917C231.9 72.4141 231.614 71.0532 231.073 69.7858Z" fill="black" fill-opacity="0.05"/>
</svg>
