<svg width="45" height="51" viewBox="0 0 45 51" fill="none" xmlns="http://www.w3.org/2000/svg">
<mask id="mask0_260_2159" style="mask-type:luminance" maskUnits="userSpaceOnUse" x="18" y="0" width="27" height="25">
<path d="M18.9961 0H44.9961V24.4141H18.9961V0Z" fill="white"/>
</mask>
<g mask="url(#mask0_260_2159)">
<path d="M33.0156 23.6211C34.918 22.0352 44.5898 13.1563 44.5898 7.45313C44.5898 2.85548 41.7344 0.792976 39.1992 0.316414C36.8203 8.28505e-06 33.9688 0.953133 32.0664 3.17188C30.4805 0.953133 27.7852 0.160164 25.5664 0.316414C22.5547 0.636726 19.2266 3.01173 19.2266 7.45313C19.2266 13.1563 28.8945 22.0352 30.7969 23.6211C31.1133 23.9375 31.4297 24.0938 31.9063 24.0938C32.3828 24.0938 32.6992 23.9375 33.0156 23.6211ZM22.3945 7.45313C22.3945 5.07423 24.1406 3.64845 25.8828 3.48829C26.043 3.48829 26.1992 3.48829 26.3594 3.48829C27.9453 3.48829 29.6875 4.28126 30.1641 6.66016C30.4805 7.76954 31.1133 8.2422 31.9063 8.2422C32.543 8.2422 33.332 7.92579 33.6523 6.81641C34.2852 4.44141 36.8203 3.17188 38.7227 3.48829C40.4648 3.8047 41.418 5.07423 41.418 7.45313C41.418 10.3047 36.8203 15.8516 31.9063 20.4492C26.9922 15.8516 22.3945 10.3047 22.3945 7.45313Z" fill="black"/>
</g>
<mask id="mask1_260_2159" style="mask-type:luminance" maskUnits="userSpaceOnUse" x="0" y="4" width="33" height="47">
<path d="M0 4.41406H32.9961V51H0V4.41406Z" fill="white"/>
</mask>
<g mask="url(#mask1_260_2159)">
<path d="M0.203125 49.457C0.203125 50.0898 0.523438 50.5664 1.15625 50.8828C1.63281 51.1992 2.42578 51.043 2.89844 50.7266L16.2148 40.4219L29.5312 50.7266C29.8477 50.8828 30.1641 51.043 30.4805 51.043C30.6406 51.043 30.957 51.043 31.1133 50.8828C31.5898 50.5664 32.0664 50.0898 32.0664 49.457V28.8516C32.0664 27.8984 31.4297 27.2656 30.4805 27.2656C29.5312 27.2656 28.8945 27.8984 28.8945 28.8516V46.2852L17.1641 37.25C16.5312 36.7773 15.7383 36.7773 15.2617 37.25L3.375 46.2852V9.82813C3.375 8.87891 4.00781 8.24219 4.96094 8.24219H14.4727C15.4219 8.24219 16.0547 7.60937 16.0547 6.66016C16.0547 5.70703 15.4219 5.07422 14.4727 5.07422H4.96094C2.26562 5.07422 0.203125 7.13281 0.203125 9.82813V49.457Z" fill="black"/>
</g>
</svg>
