<svg width="53" height="53" viewBox="0 0 53 53" fill="none" xmlns="http://www.w3.org/2000/svg">
<path d="M1.64453 34.5156C0.660156 34.5156 0 35.1719 0 36.1562C0 37.1445 0.660156 37.8008 1.64453 37.8008H3.28906V41.0898C3.28906 43.8828 5.42578 46.0195 8.21875 46.0195H21.3672C22.3516 46.0195 23.0117 45.3633 23.0117 44.375C23.0117 43.3906 22.3516 42.7305 21.3672 42.7305H8.21875C7.23438 42.7305 6.57422 42.0742 6.57422 41.0898V37.8008H8.21875C9.20312 37.8008 9.86328 37.1445 9.86328 36.1562C9.86328 35.1719 9.20312 34.5156 8.21875 34.5156H6.57422V24.6523H8.21875C9.20312 24.6523 9.86328 23.9961 9.86328 23.0078C9.86328 22.0234 9.20312 21.3672 8.21875 21.3672H6.57422V11.5039H8.21875C9.20312 11.5039 9.86328 10.8477 9.86328 9.85937C9.86328 8.875 9.20312 8.21875 8.21875 8.21875H6.57422V4.92969C6.57422 3.94531 7.23438 3.28516 8.21875 3.28516H34.5156C35.5 3.28516 36.1602 3.94531 36.1602 4.92969V21.3672C36.1602 22.3516 36.8164 23.0078 37.8008 23.0078C38.7891 23.0078 39.4453 22.3516 39.4453 21.3672V4.92969C39.4453 2.13672 37.3086 0 34.5156 0H8.21875C5.42578 0 3.28906 2.13672 3.28906 4.92969V8.21875H1.64453C0.660156 8.21875 0 8.875 0 9.85937C0 10.8477 0.660156 11.5039 1.64453 11.5039H3.28906V21.3672H1.64453C0.660156 21.3672 0 22.0234 0 23.0078C0 23.9961 0.660156 24.6523 1.64453 24.6523H3.28906V34.5156H1.64453Z" fill="black"/>
<mask id="mask0_260_2161" style="mask-type:luminance" maskUnits="userSpaceOnUse" x="25" y="26" width="28" height="27">
<path d="M25.8945 26.0546H52.5V52.4999H25.8945V26.0546Z" fill="white"/>
</mask>
<g mask="url(#mask0_260_2161)">
<path d="M39.4453 26.2969C32.2148 26.2969 26.2969 32.2148 26.2969 39.4453C26.2969 46.6758 32.2148 52.5938 39.4453 52.5938C46.6797 52.5938 52.5938 46.6758 52.5938 39.4453C52.5938 32.2148 46.6797 26.2969 39.4453 26.2969ZM39.4453 49.3047C34.0234 49.3047 29.5859 44.8672 29.5859 39.4453C29.5859 34.0195 34.0234 29.582 39.4453 29.582C44.8711 29.582 49.3086 34.0195 49.3086 39.4453C49.3086 44.8672 44.8711 49.3047 39.4453 49.3047Z" fill="black"/>
</g>
<path d="M43.0625 35.1719L37.6367 41.9102L35.668 39.9375C35.0078 39.2813 34.0234 39.2813 33.3633 39.9375C32.707 40.5938 32.707 41.5821 33.3633 42.2383L36.6523 45.5274C36.9805 45.8555 37.3086 46.0196 37.8008 46.0196C37.8008 46.0196 37.8008 46.0196 37.9688 46.0196C38.4609 46.0196 38.7891 45.6914 39.1172 45.3633L45.6914 37.1446C46.1836 36.4883 46.1836 35.336 45.3633 34.8438C44.707 34.3516 43.7188 34.3516 43.0625 35.1719Z" fill="black"/>
</svg>
