<svg width="45" height="45" viewBox="0 0 45 45" fill="none" xmlns="http://www.w3.org/2000/svg">
<mask id="mask0_260_2162" style="mask-type:luminance" maskUnits="userSpaceOnUse" x="7" y="40" width="32" height="5">
<path d="M7.23438 40.8906H38.2344V44.9999H7.23438V40.8906Z" fill="white"/>
</mask>
<g mask="url(#mask0_260_2162)">
<path d="M35.625 44.9999H9.375C8.33984 44.9999 7.5 44.1601 7.5 43.1249C7.5 42.0859 8.33984 41.2499 9.375 41.2499H35.625C36.6602 41.2499 37.5 42.0859 37.5 43.1249C37.5 44.1601 36.6602 44.9999 35.625 44.9999Z" fill="black"/>
</g>
<mask id="mask1_260_2162" style="mask-type:luminance" maskUnits="userSpaceOnUse" x="7" y="0" width="32" height="36">
<path d="M7.23438 0H38.2344V35.8906H7.23438V0Z" fill="white"/>
</mask>
<g mask="url(#mask1_260_2162)">
<path d="M22.5 35.625C14.2266 35.625 7.5 28.8945 7.5 20.625V5.625C7.5 2.52344 10.0234 0 13.125 0H31.875C34.9727 0 37.5 2.52344 37.5 5.625V20.625C37.5 28.8945 30.7695 35.625 22.5 35.625ZM13.125 3.75C12.0898 3.75 11.25 4.58984 11.25 5.625V20.625C11.25 26.8281 16.293 31.875 22.5 31.875C28.7031 31.875 33.75 26.8281 33.75 20.625V5.625C33.75 4.58984 32.9062 3.75 31.875 3.75H13.125Z" fill="black"/>
</g>
<mask id="mask2_260_2162" style="mask-type:luminance" maskUnits="userSpaceOnUse" x="33" y="4" width="12" height="21">
<path d="M33.2344 4.89056H45V24.8906H33.2344V4.89056Z" fill="white"/>
</mask>
<g mask="url(#mask2_260_2162)">
<path d="M35.6211 24.3749C34.7812 24.3749 34.0195 23.8046 33.8047 22.9531C33.5508 21.9492 34.164 20.9296 35.1679 20.6796L35.5703 20.5781C38.9101 19.7421 41.25 16.7499 41.25 13.3046V9.37494H35.625C34.5859 9.37494 33.75 8.53119 33.75 7.49994C33.75 6.46478 34.5859 5.62494 35.625 5.62494H41.25C43.3164 5.62494 45 7.30463 45 9.37494V13.3046C45 18.4726 41.4922 22.9609 36.4765 24.2187L36.0781 24.3163C35.9258 24.3554 35.7695 24.3749 35.6211 24.3749Z" fill="black"/>
</g>
<mask id="mask3_260_2162" style="mask-type:luminance" maskUnits="userSpaceOnUse" x="0" y="4" width="13" height="21">
<path d="M0 4.89056H12.2344V24.8906H0V4.89056Z" fill="white"/>
</mask>
<g mask="url(#mask3_260_2162)">
<path d="M9.375 24.3749C9.22266 24.3749 9.07031 24.3554 8.91797 24.3163L8.51953 24.2187C3.50391 22.9648 0 18.4726 0 13.3046V9.37494C0 7.30463 1.67969 5.62494 3.75 5.62494H9.375C10.4062 5.62494 11.25 6.46478 11.25 7.49994C11.25 8.53119 10.4062 9.37494 9.375 9.37494H3.75V13.3046C3.75 16.7499 6.08594 19.7421 9.42969 20.5781L9.82812 20.6757C10.832 20.9296 11.4414 21.9453 11.1953 22.9531C10.9766 23.8046 10.2148 24.3749 9.375 24.3749Z" fill="black"/>
</g>
<mask id="mask4_260_2162" style="mask-type:luminance" maskUnits="userSpaceOnUse" x="12" y="30" width="8" height="15">
<path d="M12.2344 30.8906H19.2344V44.9999H12.2344V30.8906Z" fill="white"/>
</mask>
<g mask="url(#mask4_260_2162)">
<path d="M14.9999 45C14.8906 45 14.7773 44.9883 14.664 44.9648C13.6445 44.7812 12.9687 43.8047 13.1523 42.7891L15.0273 32.4766C15.2148 31.457 16.1874 30.7695 17.207 30.9648C18.2265 31.1523 18.9023 32.125 18.7187 33.1445L16.8437 43.457C16.6796 44.3633 15.8906 45 14.9999 45Z" fill="black"/>
</g>
<mask id="mask5_260_2162" style="mask-type:luminance" maskUnits="userSpaceOnUse" x="26" y="30" width="7" height="15">
<path d="M26.2344 30.8906H32.2344V44.9999H26.2344V30.8906Z" fill="white"/>
</mask>
<g mask="url(#mask5_260_2162)">
<path d="M29.996 45C29.1053 45 28.3163 44.3633 28.1561 43.457L26.2811 33.1445C26.0936 32.1289 26.7694 31.1523 27.7889 30.9687C28.8085 30.7695 29.785 31.457 29.9686 32.4765L31.8436 42.789C32.0311 43.8086 31.3553 44.7812 30.3319 44.9687C30.2186 44.9883 30.1092 45 29.996 45Z" fill="black"/>
</g>
</svg>
