<svg width="47" height="47" viewBox="0 0 47 47" fill="none" xmlns="http://www.w3.org/2000/svg">
<mask id="mask0_260_2158" style="mask-type:luminance" maskUnits="userSpaceOnUse" x="34" y="9" width="13" height="20">
<path d="M34.1289 9.89844H46.5V28.8984H34.1289V9.89844Z" fill="white"/>
</mask>
<g mask="url(#mask0_260_2158)">
<path d="M37.7813 28.0938C37.3321 28.0938 36.8789 28.0625 36.4532 27.9805C35.4024 27.7812 34.711 26.7695 34.9102 25.7188C35.1094 24.668 36.1289 23.9766 37.1719 24.1758C37.3672 24.2109 37.5742 24.2188 37.7813 24.2188C40.4532 24.2188 42.625 22.043 42.625 19.375C42.625 16.7031 40.4532 14.5312 37.7813 14.5312C37.5742 14.5312 37.3672 14.5352 37.1719 14.5703C36.1289 14.7812 35.1094 14.0781 34.9102 13.0273C34.711 11.9766 35.4024 10.9648 36.4532 10.7656C36.8789 10.6875 37.3321 10.6562 37.7813 10.6562C42.5899 10.6562 46.5 14.5664 46.5 19.375C46.5 24.1836 42.5899 28.0938 37.7813 28.0938Z" fill="black"/>
</g>
<mask id="mask1_260_2158" style="mask-type:luminance" maskUnits="userSpaceOnUse" x="0" y="0" width="40" height="39">
<path d="M0 0H39.1289V38.8984H0V0Z" fill="white"/>
</mask>
<g mask="url(#mask1_260_2158)">
<path d="M33.9062 38.75C33.0742 38.75 32.2539 38.5352 31.5352 38.1289L27.7188 35.9844C21.9297 32.7227 15.3555 31 8.71094 31H7.75C3.47656 31 0 27.5234 0 23.25V15.5C0 11.2266 3.47656 7.75 7.75 7.75H8.71094C15.3594 7.75 21.9297 6.02734 27.7227 2.76953L31.5352 0.621094C32.2539 0.214844 33.0742 0 33.9062 0C36.5781 0 38.75 2.17578 38.75 4.84375V33.9062C38.75 36.5742 36.5781 38.75 33.9062 38.75ZM7.75 11.625C5.61328 11.625 3.875 13.3633 3.875 15.5V23.25C3.875 25.3867 5.61328 27.125 7.75 27.125H8.71094C16.0195 27.125 23.25 29.0195 29.6211 32.6055L33.4375 34.75C34.0391 35.0898 34.875 34.6094 34.875 33.9062V4.84375C34.875 4.14063 34.043 3.66016 33.4336 3.99609L29.6211 6.14453C23.25 9.73047 16.0195 11.625 8.71094 11.625H7.75Z" fill="black"/>
</g>
<mask id="mask2_260_2158" style="mask-type:luminance" maskUnits="userSpaceOnUse" x="5" y="26" width="15" height="21">
<path d="M5.12891 26.8984H19.1289V46.5H5.12891V26.8984Z" fill="white"/>
</mask>
<g mask="url(#mask2_260_2158)">
<path d="M16.4687 46.5H13.1093C10.1835 46.5 7.70304 44.3125 7.34366 41.4101L5.82804 29.3047C5.69522 28.2422 6.44913 27.2734 7.51163 27.1406C8.56632 27 9.54288 27.7578 9.67179 28.8203L11.1874 40.9297C11.3085 41.8984 12.1327 42.625 13.1093 42.625H14.2577L12.6132 30.2851C12.4726 29.2266 13.2148 28.25 14.2773 28.1094C15.3358 27.9805 16.3124 28.7109 16.453 29.7734L18.3905 44.3047C18.4648 44.8594 18.2968 45.418 17.9296 45.8359C17.5585 46.2578 17.0273 46.5 16.4687 46.5Z" fill="black"/>
</g>
<path d="M15.5 31C14.4297 31 13.5625 30.1328 13.5625 29.0625V9.6875C13.5625 8.61719 14.4297 7.75 15.5 7.75C16.5703 7.75 17.4375 8.61719 17.4375 9.6875V29.0625C17.4375 30.1328 16.5703 31 15.5 31Z" fill="black"/>
</svg>
