<svg width="71" height="71" viewBox="0 0 71 71" fill="none" xmlns="http://www.w3.org/2000/svg">
<path d="M0 15C0 6.71573 6.71573 0 15 0H56C64.2843 0 71 6.71573 71 15V71H15C6.71573 71 0 64.2843 0 56V15Z" fill="url(#paint0_linear_278_2196)"/>
<g clip-path="url(#clip0_278_2196)">
<g clip-path="url(#clip1_278_2196)">
<g clip-path="url(#clip2_278_2196)">
<path d="M17.6831 56.2248L13.5841 54.0511L23.2495 48.9251L34.4716 54.8767C34.7451 55.0218 35.0734 55.0219 35.3471 54.8767L39.478 52.6859C39.934 52.4442 40.1077 51.8785 39.8657 51.4225C39.6239 50.9663 39.0583 50.7927 38.6023 51.0346L34.9092 52.9933L13.5841 41.6837L19.8662 38.3522C20.3221 38.1105 20.4958 37.5448 20.2539 37.0888C20.0122 36.6327 19.4464 36.459 18.9905 36.701L11.1517 40.8582C10.4907 41.2087 10.4901 42.1585 11.1517 42.5094L21.2549 47.8675L11.1517 53.2255C10.4907 53.576 10.4901 54.5258 11.1517 54.8767L16.8074 57.8759C17.2616 58.1166 17.8279 57.9463 18.0709 57.4882C18.3127 57.0322 18.139 56.4665 17.6831 56.2248Z" fill="white"/>
<path d="M58.667 40.8582L50.8282 36.701C50.3719 36.4592 49.8066 36.6329 49.5648 37.0887C49.3229 37.5446 49.4966 38.1103 49.9525 38.3521L56.2346 41.6838L42.211 49.1208C41.7552 49.3625 41.5814 49.9282 41.8232 50.3842C42.0651 50.8405 42.6308 51.0138 43.0867 50.772L46.5692 48.9251L56.2346 54.0509L34.9093 65.3604L21.3107 58.1486C20.8546 57.9069 20.2891 58.0806 20.0473 58.5363C19.8056 58.9923 19.9791 59.5579 20.435 59.7999L34.4712 67.2437C34.7448 67.3889 35.0731 67.3891 35.3468 67.2437L58.6667 54.8765C59.3277 54.526 59.3283 53.5761 58.6667 53.2254L48.5635 47.8673L58.6667 42.5091C59.3278 42.1589 59.3285 41.2089 58.667 40.8582Z" fill="white"/>
<path d="M51.3807 25.1895C51.3807 24.5877 50.836 24.2244 50.3911 24.2244C49.8833 24.2244 49.4558 24.6348 49.4558 25.1584C49.4558 25.7588 49.9979 26.1235 50.4452 26.1235C50.9534 26.1234 51.3807 25.713 51.3807 25.1895Z" fill="white"/>
<path d="M55.3057 27.2709C55.3057 26.6269 54.6681 26.2708 54.25 26.2708C53.7065 26.2708 53.3145 26.7155 53.3145 27.2048C53.3145 27.8489 53.952 28.205 54.3702 28.205C54.9128 28.205 55.3057 27.7609 55.3057 27.2709Z" fill="white"/>
<path d="M58.1747 28.3522C57.6273 28.3522 57.2393 28.8003 57.2393 29.2866C57.2393 29.2965 57.2394 29.3065 57.2396 29.3163C57.2394 29.3261 57.2393 29.3362 57.2393 29.346C57.2393 29.8394 57.6351 30.2804 58.1748 30.2804C58.6568 30.28 59.1639 29.8898 59.1639 29.3163C59.1639 28.7178 58.6233 28.3522 58.1747 28.3522Z" fill="white"/>
<path d="M48.2853 33.6549C47.8564 33.6549 47.248 34.0124 47.248 34.6453C47.248 35.1376 47.6437 35.5792 48.1835 35.5792C48.6124 35.5792 49.2207 35.2215 49.2207 34.5887C49.2206 34.0966 48.8255 33.6549 48.2853 33.6549Z" fill="white"/>
<path d="M41.6251 37.1871C41.1972 37.1871 40.5879 37.544 40.5879 38.1776C40.5879 38.6698 40.9835 39.1114 41.5233 39.1114C41.9522 39.1114 42.5606 38.7539 42.5606 38.1211C42.5605 37.629 42.1652 37.1871 41.6251 37.1871Z" fill="white"/>
<path d="M44.9553 35.421C44.5265 35.421 43.918 35.7787 43.918 36.4114C43.918 36.9037 44.3136 37.3453 44.8535 37.3453C45.2824 37.3453 45.8908 36.9877 45.8908 36.3548C45.8908 35.8629 45.4954 35.421 44.9553 35.421Z" fill="white"/>
<path d="M51.5139 33.8128C51.9428 33.8128 52.5513 33.4553 52.5513 32.8225C52.5513 32.3303 52.156 31.8885 51.6159 31.8885C51.1879 31.8885 50.5786 32.2454 50.5786 32.879C50.5785 33.3712 50.9742 33.8128 51.5139 33.8128Z" fill="white"/>
<path d="M38.2947 38.9531C37.8652 38.9531 37.2573 39.3117 37.2573 39.9435C37.2573 40.4703 37.6873 40.8774 38.1928 40.8774C38.6209 40.8774 39.23 40.5204 39.23 39.8873C39.23 39.3603 38.7999 38.9531 38.2947 38.9531Z" fill="white"/>
<path d="M54.8444 32.0467C55.2732 32.0467 55.8816 31.6891 55.8816 31.0562C55.8816 30.5642 55.4859 30.1224 54.9462 30.1224C54.5176 30.1224 53.9089 30.4799 53.9089 31.1128C53.9089 31.6051 54.3045 32.0467 54.8444 32.0467Z" fill="white"/>
<path d="M33.9192 41.6534C33.9192 42.2797 34.4597 42.4977 34.4721 42.5094C35.1024 42.8431 35.8997 42.3604 35.8997 41.6534C35.8997 40.405 33.9192 40.4091 33.9192 41.6534Z" fill="white"/>
<path d="M17.2676 32.8227C17.2676 33.4294 17.8496 33.8128 18.3049 33.8128C18.8132 33.8128 19.2403 33.4019 19.2403 32.8789C19.2403 32.2461 18.6315 31.8885 18.2028 31.8885C17.6937 31.8885 17.2676 32.3003 17.2676 32.8227Z" fill="white"/>
<path d="M31.5242 38.9534C30.9795 38.9534 30.5889 39.3992 30.5889 39.8873C30.5889 40.5194 31.1962 40.8778 31.6261 40.8778C32.1751 40.8778 32.5616 40.4279 32.5616 39.9439C32.5614 39.3122 31.9546 38.9534 31.5242 38.9534Z" fill="white"/>
<path d="M21.533 33.6549C20.9885 33.6549 20.5977 34.1007 20.5977 34.5887C20.5977 35.2208 21.2051 35.5792 21.6349 35.5792C22.1839 35.5792 22.5704 35.1293 22.5704 34.6453C22.5704 34.0133 21.963 33.6549 21.533 33.6549Z" fill="white"/>
<path d="M13.9373 31.0562C13.9373 31.6642 14.5201 32.0467 14.9745 32.0467C15.5235 32.0467 15.91 31.597 15.91 31.1128C15.91 30.4811 15.3032 30.1224 14.8726 30.1224C14.328 30.1224 13.9373 30.5681 13.9373 31.0562Z" fill="white"/>
<path d="M24.8637 35.421C24.3191 35.421 23.9282 35.8667 23.9282 36.3548C23.9282 36.9869 24.5357 37.3453 24.9655 37.3453C25.5145 37.3453 25.901 36.8955 25.901 36.4114C25.901 35.7797 25.2941 35.421 24.8637 35.421Z" fill="white"/>
<path d="M28.1939 37.1871C27.6494 37.1871 27.2585 37.6328 27.2585 38.1211C27.2585 38.7531 27.8659 39.1114 28.2958 39.1114C28.8448 39.1114 29.2312 38.6617 29.2312 38.1776C29.2312 37.5719 28.6508 37.1871 28.1939 37.1871Z" fill="white"/>
<path d="M11.6442 30.2805C12.1882 30.2805 12.5798 29.8359 12.5798 29.3461C12.5798 29.3363 12.5797 29.3262 12.5793 29.3164C12.5797 29.3066 12.5798 29.2967 12.5798 29.2867C12.5798 28.7933 12.1838 28.3522 11.6443 28.3522C11.1867 28.3522 10.655 28.7246 10.655 29.3164C10.655 29.9219 11.1973 30.2805 11.6442 30.2805Z" fill="white"/>
<path d="M14.7996 28.5494C15.2307 28.5494 15.8345 28.1907 15.8345 27.5601C15.8345 27.0355 15.4064 26.6261 14.899 26.6261C14.4682 26.6261 13.864 26.9848 13.864 27.6153C13.8641 28.106 14.258 28.5494 14.7996 28.5494Z" fill="white"/>
<path d="M18.0541 26.823C18.4835 26.823 19.089 26.4662 19.089 25.8341C19.089 25.3071 18.6592 24.9 18.1538 24.9C17.7232 24.9 17.1187 25.258 17.1187 25.8892C17.1187 26.4171 17.5498 26.823 18.0541 26.823Z" fill="white"/>
<path d="M11.1515 17.7747L21.3788 23.1986C20.7198 23.1868 20.1104 23.8986 20.4818 24.5997C21.0634 25.6984 22.774 24.8 22.1891 23.6956C22.1702 23.66 22.1489 23.627 22.1265 23.5951L34.4714 30.1419C34.745 30.287 35.0733 30.2872 35.347 30.1419L58.6669 17.7746C59.3279 17.4241 59.3285 16.4744 58.6669 16.1234L35.3469 3.75642C35.0732 3.61114 34.7451 3.61114 34.4713 3.75642L30.6248 5.79645C30.1688 6.03817 29.9951 6.60384 30.2371 7.05986C30.4788 7.51589 31.0446 7.68958 31.5005 7.44761L34.9092 5.63971L56.2345 16.9492L34.9092 28.2588L13.5838 16.9491L27.8916 9.3613C28.3475 9.11958 28.5213 8.55392 28.2794 8.09789C28.0375 7.64186 27.4723 7.46829 27.0159 7.71014L11.1515 16.1236C10.4905 16.4741 10.4899 17.424 11.1515 17.7747Z" fill="white"/>
</g>
</g>
</g>
<defs>
<linearGradient id="paint0_linear_278_2196" x1="35.6411" y1="3.94878e-08" x2="35.3589" y2="71" gradientUnits="userSpaceOnUse">
<stop stop-color="#470277"/>
<stop offset="1" stop-color="#0B87BA"/>
</linearGradient>
<clipPath id="clip0_278_2196">
<rect width="49.69" height="63.69" fill="white" transform="translate(10.655 3.65503)"/>
</clipPath>
<clipPath id="clip1_278_2196">
<rect width="49.69" height="63.69" fill="white" transform="translate(10.655 3.65503)"/>
</clipPath>
<clipPath id="clip2_278_2196">
<rect width="49.69" height="63.7051" fill="white" transform="translate(10.655 3.64746)"/>
</clipPath>
</defs>
</svg>
