<svg width="72" height="72" viewBox="0 0 72 72" fill="none" xmlns="http://www.w3.org/2000/svg">
<rect width="72" height="72" rx="10" fill="#420477" fill-opacity="0.6"/>
<path d="M47.4583 20.125C48.3645 20.125 49.2335 20.485 49.8743 21.1257C50.515 21.7665 50.875 22.6355 50.875 23.5417V47.4583C50.875 48.3645 50.515 49.2335 49.8743 49.8743C49.2335 50.515 48.3645 50.875 47.4583 50.875H23.5417C22.6355 50.875 21.7665 50.515 21.1257 49.8743C20.485 49.2335 20.125 48.3645 20.125 47.4583V23.5417C20.125 22.6355 20.485 21.7665 21.1257 21.1257C21.7665 20.485 22.6355 20.125 23.5417 20.125H47.4583ZM46.6042 46.6042V37.55C46.6042 36.073 46.0174 34.6564 44.973 33.612C43.9286 32.5676 42.512 31.9808 41.035 31.9808C39.5829 31.9808 37.8917 32.8692 37.0717 34.2017V32.3054H32.3054V46.6042H37.0717V38.1821C37.0717 36.8667 38.1308 35.7904 39.4463 35.7904C40.0806 35.7904 40.6889 36.0424 41.1374 36.4909C41.5859 36.9394 41.8379 37.5478 41.8379 38.1821V46.6042H46.6042ZM26.7533 29.6233C27.5145 29.6233 28.2445 29.321 28.7827 28.7827C29.321 28.2445 29.6233 27.5145 29.6233 26.7533C29.6233 25.1646 28.3421 23.8663 26.7533 23.8663C25.9876 23.8663 25.2533 24.1704 24.7119 24.7119C24.1704 25.2533 23.8663 25.9876 23.8663 26.7533C23.8663 28.3421 25.1646 29.6233 26.7533 29.6233ZM29.1279 46.6042V32.3054H24.3958V46.6042H29.1279Z" fill="white"/>
</svg>
