<svg width="72" height="72" viewBox="0 0 72 72" fill="none" xmlns="http://www.w3.org/2000/svg">
<rect width="72" height="72" rx="10" fill="#420477" fill-opacity="0.6"/>
<path d="M36.5002 35.2916C35.5609 35.2916 34.66 34.9185 33.9958 34.2543C33.3316 33.5901 32.9585 32.6893 32.9585 31.75C32.9585 30.8107 33.3316 29.9098 33.9958 29.2456C34.66 28.5815 35.5609 28.2083 36.5002 28.2083C37.4395 28.2083 38.3403 28.5815 39.0045 29.2456C39.6687 29.9098 40.0418 30.8107 40.0418 31.75C40.0418 32.2151 39.9502 32.6756 39.7722 33.1053C39.5943 33.535 39.3334 33.9254 39.0045 34.2543C38.6756 34.5832 38.2852 34.8441 37.8555 35.0221C37.4258 35.2 36.9653 35.2916 36.5002 35.2916ZM36.5002 21.8333C33.8701 21.8333 31.3478 22.8781 29.488 24.7378C27.6283 26.5976 26.5835 29.1199 26.5835 31.75C26.5835 39.1875 36.5002 50.1666 36.5002 50.1666C36.5002 50.1666 46.4168 39.1875 46.4168 31.75C46.4168 29.1199 45.372 26.5976 43.5123 24.7378C41.6526 22.8781 39.1302 21.8333 36.5002 21.8333Z" fill="white"/>
</svg>
