<svg width="327" height="327" viewBox="0 0 327 327" fill="none" xmlns="http://www.w3.org/2000/svg">
<g clip-path="url(#clip0_283_1196)">
<path d="M40.1568 171.154L82.2318 132.709C84.5988 130.546 87.3623 129.055 90.5222 128.235C93.6821 127.415 96.8301 127.414 99.9661 128.232L112.252 131.339C103.067 141.251 95.7944 150.286 90.4337 158.441C85.0729 166.597 79.8621 176.462 74.8012 188.035L40.1568 171.154ZM88.2622 195.281C92.2886 184.001 97.7617 173.354 104.681 163.339C111.601 153.325 119.736 144.046 129.086 135.502C143.88 121.984 160.493 112.182 178.924 106.095C197.355 100.009 214.324 98.6719 229.83 102.085C231.843 117.836 228.987 134.618 221.262 152.431C213.537 170.244 202.277 185.905 187.483 199.414C178.252 207.849 168.366 215.036 157.826 220.974C147.286 226.913 136.102 231.486 124.274 234.693L88.2622 195.281ZM155.977 169.567C159.546 173.472 163.991 175.547 169.314 175.792C174.636 176.036 179.25 174.37 183.156 170.792C187.063 167.214 189.135 162.771 189.375 157.462C189.614 152.153 187.95 147.536 184.382 143.612C180.814 139.689 176.368 137.618 171.044 137.401C165.721 137.183 161.107 138.845 157.202 142.387C153.298 145.929 151.225 150.377 150.983 155.731C150.742 161.085 152.406 165.697 155.977 169.567ZM143.974 284.774L130.279 248.751C142.261 244.752 152.554 240.45 161.159 235.845C169.764 231.24 179.416 224.81 190.115 216.554L192.104 229.07C192.641 232.271 192.358 235.409 191.258 238.482C190.157 241.555 188.421 244.171 186.049 246.329L143.974 284.774Z" fill="#470277" fill-opacity="0.05"/>
</g>
<defs>
<clipPath id="clip0_283_1196">
<rect width="230.861" height="230.861" fill="white" transform="translate(170.43) rotate(47.5813)"/>
</clipPath>
</defs>
</svg>
