<svg width="63" height="63" viewBox="0 0 63 63" fill="none" xmlns="http://www.w3.org/2000/svg">
<g filter="url(#filter0_d_283_1191)">
<rect x="4" y="4" width="55" height="55" rx="15" fill="#470277" fill-opacity="0.6" shape-rendering="crispEdges"/>
<path d="M34.1462 34.1462L24.25 38.75L28.8537 28.8537L38.75 24.25M31.5 19.4166C29.9132 19.4166 28.3419 19.7292 26.8759 20.3364C25.4098 20.9437 24.0778 21.8337 22.9558 22.9558C20.6897 25.2218 19.4166 28.2953 19.4166 31.5C19.4166 34.7047 20.6897 37.7781 22.9558 40.0442C24.0778 41.1662 25.4098 42.0563 26.8759 42.6635C28.3419 43.2707 29.9132 43.5833 31.5 43.5833C34.7047 43.5833 37.7781 42.3102 40.0442 40.0442C42.3102 37.7781 43.5833 34.7047 43.5833 31.5C43.5833 29.9132 43.2707 28.3419 42.6635 26.8759C42.0563 25.4098 41.1662 24.0778 40.0442 22.9558C38.9221 21.8337 37.5901 20.9437 36.1241 20.3364C34.658 19.7292 33.0868 19.4166 31.5 19.4166ZM31.5 30.1708C31.1474 30.1708 30.8094 30.3108 30.5601 30.5601C30.3108 30.8094 30.1708 31.1474 30.1708 31.5C30.1708 31.8525 30.3108 32.1906 30.5601 32.4398C30.8094 32.6891 31.1474 32.8291 31.5 32.8291C31.8525 32.8291 32.1906 32.6891 32.4398 32.4398C32.6891 32.1906 32.8291 31.8525 32.8291 31.5C32.8291 31.1474 32.6891 30.8094 32.4398 30.5601C32.1906 30.3108 31.8525 30.1708 31.5 30.1708Z" fill="white"/>
</g>
<defs>
<filter id="filter0_d_283_1191" x="0" y="0" width="63" height="63" filterUnits="userSpaceOnUse" color-interpolation-filters="sRGB">
<feFlood flood-opacity="0" result="BackgroundImageFix"/>
<feColorMatrix in="SourceAlpha" type="matrix" values="0 0 0 0 0 0 0 0 0 0 0 0 0 0 0 0 0 0 127 0" result="hardAlpha"/>
<feOffset/>
<feGaussianBlur stdDeviation="2"/>
<feComposite in2="hardAlpha" operator="out"/>
<feColorMatrix type="matrix" values="0 0 0 0 0 0 0 0 0 0 0 0 0 0 0 0 0 0 0.25 0"/>
<feBlend mode="normal" in2="BackgroundImageFix" result="effect1_dropShadow_283_1191"/>
<feBlend mode="normal" in="SourceGraphic" in2="effect1_dropShadow_283_1191" result="shape"/>
</filter>
</defs>
</svg>
