<svg width="72" height="72" viewBox="0 0 72 72" fill="none" xmlns="http://www.w3.org/2000/svg">
<rect width="72" height="72" rx="10" fill="#420477" fill-opacity="0.6"/>
<path d="M47.7625 48.75C44.8111 48.75 41.8951 48.1068 39.0146 46.8205C36.134 45.5342 33.5132 43.71 31.1521 41.3479C28.791 38.9859 26.9672 36.365 25.6809 33.4854C24.3946 30.6058 23.7509 27.6898 23.75 24.7375C23.75 24.3125 23.8917 23.9583 24.175 23.675C24.4583 23.3917 24.8125 23.25 25.2375 23.25H30.975C31.3056 23.25 31.6007 23.3624 31.8604 23.5872C32.1201 23.8119 32.2736 24.0773 32.3208 24.3833L33.2417 29.3417C33.2889 29.7194 33.2771 30.0382 33.2063 30.2979C33.1354 30.5576 33.0056 30.7819 32.8167 30.9708L29.3812 34.4417C29.8535 35.3153 30.414 36.1591 31.0628 36.9733C31.7117 37.7874 32.4261 38.5727 33.2063 39.3292C33.9382 40.0611 34.7056 40.7402 35.5083 41.3663C36.3111 41.9925 37.1611 42.5648 38.0583 43.0833L41.3875 39.7542C41.6 39.5417 41.8777 39.3825 42.2205 39.2767C42.5633 39.171 42.8996 39.1412 43.2292 39.1875L48.1167 40.1792C48.4472 40.2736 48.7187 40.445 48.9312 40.6934C49.1437 40.9418 49.25 41.219 49.25 41.525V47.2625C49.25 47.6875 49.1083 48.0417 48.825 48.325C48.5417 48.6083 48.1875 48.75 47.7625 48.75Z" fill="white"/>
</svg>
