<svg width="72" height="72" viewBox="0 0 72 72" fill="none" xmlns="http://www.w3.org/2000/svg">
<rect width="72" height="72" rx="10" fill="#420477" fill-opacity="0.6"/>
<path d="M46.0891 22.4478L48.4094 21.3103L49.565 19.0222L50.7207 21.3103L53.0425 22.4478L50.7207 23.5883L49.5665 25.8764L48.4094 23.5868L46.0891 22.4478ZM30.9023 23.4235L29.279 20.2093L27.6543 23.4235L24.3944 25.0233L27.6543 26.623L29.2776 29.8372L30.9009 26.623L34.1622 25.0233L30.9023 23.4235ZM43.4788 37.5168L35.861 30.0064L20.6816 44.9674L28.3009 52.4764L43.4788 37.5168ZM50.629 30.4687L43.0097 22.9612L37.9534 27.9458L45.5727 35.4562L50.629 30.4687Z" fill="white"/>
</svg>
