<svg width="56" height="56" viewBox="0 0 56 56" fill="none" xmlns="http://www.w3.org/2000/svg">
<rect width="56" height="56" rx="28" fill="url(#paint0_linear_287_10118)"/>
<path d="M20.5 32.5001C19 33.7601 18.5 37.5001 18.5 37.5001C18.5 37.5001 22.24 37.0001 23.5 35.5001C24.21 34.6601 24.2 33.3701 23.41 32.5901C23.0213 32.2191 22.5093 32.0047 21.9722 31.9881C21.4352 31.9715 20.9109 32.1538 20.5 32.5001Z" stroke="white" stroke-width="2" stroke-linecap="round" stroke-linejoin="round"/>
<path d="M28 31L25 28C25.5321 26.6194 26.2022 25.2961 27 24.05C28.1652 22.187 29.7876 20.6531 31.713 19.5941C33.6384 18.5351 35.8027 17.9864 38 18C38 20.72 37.22 25.5 32 29C30.7369 29.7987 29.3968 30.4687 28 31Z" stroke="white" stroke-width="2" stroke-linecap="round" stroke-linejoin="round"/>
<path d="M25 28H20C20 28 20.55 24.97 22 24C23.62 22.92 27 24 27 24" stroke="white" stroke-width="2" stroke-linecap="round" stroke-linejoin="round"/>
<path d="M28 31V36C28 36 31.03 35.45 32 34C33.08 32.38 32 29 32 29" stroke="white" stroke-width="2" stroke-linecap="round" stroke-linejoin="round"/>
<defs>
<linearGradient id="paint0_linear_287_10118" x1="0" y1="28" x2="56" y2="28" gradientUnits="userSpaceOnUse">
<stop stop-color="#48B4E1"/>
<stop offset="1" stop-color="#72339F"/>
</linearGradient>
</defs>
</svg>
