<svg width="56" height="56" viewBox="0 0 56 56" fill="none" xmlns="http://www.w3.org/2000/svg">
<rect width="56" height="56" rx="28" fill="url(#paint0_linear_336_1704)"/>
<path d="M38.9898 26.7424C39.1986 26.6502 39.3759 26.4988 39.4995 26.307C39.6232 26.1151 39.6878 25.8912 39.6855 25.6629C39.6831 25.4346 39.6138 25.2121 39.4862 25.0228C39.3586 24.8335 39.1783 24.6858 38.9676 24.598L28.9681 20.0434C28.6641 19.9047 28.3339 19.8329 27.9998 19.8329C27.6656 19.8329 27.3354 19.9047 27.0314 20.0434L17.0331 24.5934C16.8254 24.6843 16.6487 24.8339 16.5246 25.0236C16.4006 25.2134 16.3345 25.4353 16.3345 25.662C16.3345 25.8888 16.4006 26.1106 16.5246 26.3004C16.6487 26.4902 16.8254 26.6397 17.0331 26.7307L27.0314 31.29C27.3354 31.4287 27.6656 31.5004 27.9998 31.5004C28.3339 31.5004 28.6641 31.4287 28.9681 31.29L38.9898 26.7424Z" stroke="white" stroke-width="2.33333" stroke-linecap="round" stroke-linejoin="round"/>
<path d="M39.6665 25.6667V32.6667" stroke="white" stroke-width="2.33333" stroke-linecap="round" stroke-linejoin="round"/>
<path d="M21 28.5833V32.6666C21 33.5949 21.7375 34.4851 23.0503 35.1415C24.363 35.7979 26.1435 36.1666 28 36.1666C29.8565 36.1666 31.637 35.7979 32.9497 35.1415C34.2625 34.4851 35 33.5949 35 32.6666V28.5833" stroke="white" stroke-width="2.33333" stroke-linecap="round" stroke-linejoin="round"/>
<defs>
<linearGradient id="paint0_linear_336_1704" x1="0" y1="28" x2="56" y2="28" gradientUnits="userSpaceOnUse">
<stop stop-color="#48B4E1"/>
<stop offset="1" stop-color="#72339F"/>
</linearGradient>
</defs>
</svg>
