<svg width="72" height="72" viewBox="0 0 72 72" fill="none" xmlns="http://www.w3.org/2000/svg">
<rect width="72" height="72" rx="10" fill="#420477" fill-opacity="0.6"/>
<path d="M35.5 19.25C36.956 19.25 38.3665 19.4418 39.7088 19.8009L36.254 23.254C35.9919 23.5171 35.7607 23.8094 35.565 24.125H35.5C33.2502 24.125 31.051 24.7921 29.1804 26.042C27.3098 27.2919 25.8518 29.0685 24.9909 31.147C24.1299 33.2255 23.9047 35.5126 24.3436 37.7192C24.7825 39.9257 25.8658 41.9525 27.4567 43.5433C29.0475 45.1342 31.0743 46.2175 33.2809 46.6564C35.4874 47.0953 37.7745 46.8701 39.853 46.0091C41.9315 45.1482 43.7081 43.6902 44.958 41.8196C46.2079 39.949 46.875 37.7498 46.875 35.5V35.435C47.1892 35.24 47.479 35.0098 47.7444 34.7444L51.1991 31.2913C51.5583 32.6335 51.75 34.044 51.75 35.5C51.75 44.4749 44.4749 51.75 35.5 51.75C26.5251 51.75 19.25 44.4749 19.25 35.5C19.25 26.5251 26.5251 19.25 35.5 19.25ZM34.8273 27.4026C34.8273 28.7855 34.759 30.1879 34.8338 31.5691L33.9563 32.4466C33.6544 32.7485 33.415 33.1068 33.2516 33.5012C33.0882 33.8956 33.0042 34.3183 33.0042 34.7452C33.0042 35.1721 33.0882 35.5948 33.2516 35.9892C33.415 36.3836 33.6544 36.7419 33.9563 37.0438C34.2581 37.3456 34.6165 37.585 35.0108 37.7484C35.4052 37.9118 35.8279 37.9958 36.2548 37.9958C36.6817 37.9958 37.1044 37.9118 37.4988 37.7484C37.8932 37.585 38.2515 37.3456 38.5534 37.0438L39.4309 36.1663C40.8121 36.241 42.2129 36.1728 43.5974 36.1728C43.469 37.7171 42.9017 39.1924 41.9623 40.4249C41.023 41.6574 39.7508 42.5955 38.2958 43.1287C36.8407 43.6618 35.2636 43.7678 33.7503 43.434C32.2371 43.1002 30.8508 42.3407 29.7551 41.2449C28.6593 40.1492 27.8998 38.7629 27.566 37.2497C27.2322 35.7364 27.3382 34.1593 27.8713 32.7042C28.4045 31.2492 29.3426 29.977 30.5751 29.0377C31.8076 28.0983 33.2829 27.531 34.8273 27.4026ZM46.069 19.4564C46.3656 19.5794 46.6191 19.7874 46.7976 20.0544C46.976 20.3213 47.0714 20.6352 47.0716 20.9563V23.93H50.0438C50.3651 23.9301 50.6792 24.0254 50.9464 24.204C51.2135 24.3825 51.4218 24.6363 51.5447 24.9332C51.6677 25.2301 51.6999 25.5568 51.6372 25.8719C51.5745 26.1871 51.4198 26.4766 51.1926 26.7039L45.445 32.445C45.1403 32.7498 44.7271 32.921 44.2961 32.9211H40.375L37.4045 35.8933C37.0996 36.1982 36.686 36.3695 36.2548 36.3695C35.8236 36.3695 35.41 36.1982 35.1051 35.8933C34.8002 35.5883 34.6289 35.1748 34.6289 34.7436C34.6289 34.3123 34.8002 33.8988 35.1051 33.5939L38.0773 30.625V26.7023C38.0771 26.4886 38.1191 26.277 38.2008 26.0796C38.2824 25.8822 38.4023 25.7028 38.5534 25.5518L44.2978 19.8074C44.525 19.58 44.8146 19.4251 45.1299 19.3623C45.4452 19.2996 45.772 19.3317 46.069 19.4547" fill="white"/>
</svg>
