<svg width="294" height="359" viewBox="0 0 294 359" fill="none" xmlns="http://www.w3.org/2000/svg">
<path d="M82.4375 357.674C81.1953 357.674 80.1875 356.678 80.1875 355.451C80.1875 354.225 81.1953 353.229 82.4375 353.229C83.6797 353.229 84.6875 354.225 84.6875 355.451C84.6875 356.678 83.6797 357.674 82.4375 357.674Z" fill="#4A2B8F" stroke="#4A2B8F" stroke-width="2" stroke-linecap="round" stroke-linejoin="round"/>
<path d="M82.4374 352.859L82.4374 83.291" stroke="#4A2B8F" stroke-width="2"/>
<mask id="mask0_586_1651" style="mask-type:luminance" maskUnits="userSpaceOnUse" x="46" y="46" width="248" height="81">
<path d="M46.2734 46.2385H293.777V126.057H46.2734V46.2385Z" fill="white"/>
</mask>
<g mask="url(#mask0_586_1651)">
<mask id="mask1_586_1651" style="mask-type:luminance" maskUnits="userSpaceOnUse" x="46" y="46" width="248" height="81">
<path d="M86.6796 46.2385H253.125C275.441 46.2385 293.535 64.105 293.535 86.1459C293.535 108.191 275.441 126.057 253.125 126.057H86.6796C64.3632 126.057 46.2734 108.191 46.2734 86.1459C46.2734 64.105 64.3632 46.2385 86.6796 46.2385Z" fill="white"/>
</mask>
<g mask="url(#mask1_586_1651)">
<mask id="mask2_586_1651" style="mask-type:luminance" maskUnits="userSpaceOnUse" x="45" y="46" width="249" height="81">
<path d="M293.824 46.0728H45.8242V126.073H293.824V46.0728Z" fill="white"/>
</mask>
<g mask="url(#mask2_586_1651)">
<mask id="mask3_586_1651" style="mask-type:luminance" maskUnits="userSpaceOnUse" x="46" y="46" width="248" height="81">
<path d="M46.2734 46.2385H293.703V126.057H46.2734V46.2385Z" fill="white"/>
</mask>
<g mask="url(#mask3_586_1651)">
<mask id="mask4_586_1651" style="mask-type:luminance" maskUnits="userSpaceOnUse" x="46" y="46" width="248" height="81">
<path d="M86.6797 46.2385H253.125C275.441 46.2385 293.535 64.105 293.535 86.1459C293.535 108.191 275.441 126.057 253.125 126.057H86.6797C64.3633 126.057 46.2734 108.191 46.2734 86.1459C46.2734 64.105 64.3633 46.2385 86.6797 46.2385Z" fill="white"/>
</mask>
<g mask="url(#mask4_586_1651)">
<path d="M46.2734 46.2385H293.461V126.057H46.2734V46.2385Z" fill="#4A2B8F"/>
</g>
</g>
</g>
</g>
</g>
<mask id="mask5_586_1651" style="mask-type:luminance" maskUnits="userSpaceOnUse" x="19" y="18" width="130" height="129">
<path d="M19.4531 18.9429H148.426V146.323H19.4531V18.9429Z" fill="white"/>
</mask>
<g mask="url(#mask5_586_1651)">
<mask id="mask6_586_1651" style="mask-type:luminance" maskUnits="userSpaceOnUse" x="19" y="18" width="130" height="129">
<path d="M83.9414 18.9429C48.3242 18.9429 19.4531 47.4575 19.4531 82.6311C19.4531 117.809 48.3242 146.323 83.9414 146.323C119.555 146.323 148.426 117.809 148.426 82.6311C148.426 47.4575 119.555 18.9429 83.9414 18.9429Z" fill="white"/>
</mask>
<g mask="url(#mask6_586_1651)">
<mask id="mask7_586_1651" style="mask-type:luminance" maskUnits="userSpaceOnUse" x="18" y="18" width="131" height="129">
<path d="M148.824 18.4182H18.8242V146.813H148.824V18.4182Z" fill="white"/>
</mask>
<g mask="url(#mask7_586_1651)">
<mask id="mask8_586_1651" style="mask-type:luminance" maskUnits="userSpaceOnUse" x="19" y="18" width="130" height="129">
<path d="M19.4531 18.9429H148.426V146.323H19.4531V18.9429Z" fill="white"/>
</mask>
<g mask="url(#mask8_586_1651)">
<mask id="mask9_586_1651" style="mask-type:luminance" maskUnits="userSpaceOnUse" x="19" y="18" width="130" height="129">
<path d="M83.9414 18.9429C48.3242 18.9429 19.4531 47.4575 19.4531 82.6311C19.4531 117.809 48.3242 146.323 83.9414 146.323C119.555 146.323 148.426 117.809 148.426 82.6311C148.426 47.4575 119.555 18.9429 83.9414 18.9429Z" fill="white"/>
</mask>
<g mask="url(#mask9_586_1651)">
<path d="M19.4531 18.9429H148.426V146.323H19.4531V18.9429Z" fill="#665196"/>
</g>
</g>
</g>
</g>
</g>
<mask id="mask10_586_1651" style="mask-type:luminance" maskUnits="userSpaceOnUse" x="0" y="-1" width="113" height="113">
<path d="M0 0H112.824V111.258H0V0Z" fill="white"/>
</mask>
<g mask="url(#mask10_586_1651)">
<path d="M0 88.3642V110.783C61.4141 109.622 110.977 60.6712 112.152 0.0153809H89.4531C40.0508 0.0192386 0 39.5717 0 88.3642Z" fill="#4A2B8F"/>
</g>
<path d="M178.511 93.1827V80.8216H173.808V77.7197H186.433V80.8216H181.73V93.1827H178.511Z" fill="white"/>
<path d="M195.044 85.6363C194.802 85.5977 194.552 85.5746 194.294 85.5746C193.594 85.5746 193.032 85.7212 192.606 86.0067C192.177 86.2845 191.872 86.6626 191.684 87.1332C191.497 87.6078 191.403 88.1363 191.403 88.7227V93.1826H188.278V82.6271H191.387V84.2474H191.403C191.61 83.796 191.973 83.3948 192.497 83.0437C193.028 82.6965 193.669 82.519 194.419 82.519C194.669 82.519 194.876 82.546 195.044 82.5962V85.6363Z" fill="white"/>
<path d="M199.79 88.5223C199.79 89.101 199.931 89.5794 200.212 89.9574C200.501 90.3394 200.978 90.5284 201.634 90.5284C202.298 90.5284 202.782 90.3278 203.087 89.9266C203.4 89.5253 203.556 89.0585 203.556 88.5223V82.6272H206.681V93.1828H203.603V91.8865H203.572C203.216 92.3919 202.825 92.7507 202.4 92.9667C201.97 93.175 201.591 93.2946 201.259 93.3371C200.923 93.3757 200.704 93.3988 200.603 93.3988C199.716 93.3988 198.982 93.2059 198.4 92.8278C197.825 92.4382 197.392 91.9289 197.103 91.3C196.822 90.6635 196.681 89.9806 196.681 89.2476V82.6272H199.79V88.5223Z" fill="white"/>
<path d="M217.596 90.0036C217.596 90.9912 217.221 91.8091 216.471 92.4573C215.721 93.0977 214.675 93.4141 213.331 93.4141C212.081 93.4141 211.085 93.1903 210.346 92.7505C209.616 92.2991 209.057 91.7127 208.675 90.9912L210.971 89.6486C211.159 90.019 211.456 90.3277 211.862 90.5746C212.276 90.8138 212.784 90.9295 213.378 90.9295C213.772 90.9295 214.085 90.8523 214.315 90.698C214.553 90.536 214.675 90.3547 214.675 90.1579C214.675 89.9727 214.573 89.7991 214.378 89.6332C214.19 89.4596 213.721 89.2937 212.971 89.1394C212.315 88.9966 211.694 88.7922 211.112 88.5221C210.538 88.2443 210.069 87.8855 209.706 87.4419C209.35 86.9905 209.175 86.4156 209.175 85.7135C209.175 85.046 209.366 84.4635 209.753 83.9696C210.135 83.4681 210.635 83.0746 211.253 82.7968C211.878 82.519 212.55 82.3801 213.268 82.3801C214.3 82.3801 215.159 82.5807 215.846 82.982C216.542 83.3832 217.057 83.8925 217.393 84.5098L215.128 85.8369C214.96 85.5283 214.714 85.2891 214.393 85.1116C214.081 84.9264 213.678 84.8338 213.19 84.8338C212.854 84.8338 212.585 84.911 212.378 85.0653C212.167 85.2119 212.065 85.3855 212.065 85.59C212.065 85.8061 212.163 85.999 212.362 86.161C212.569 86.3269 212.94 86.4619 213.471 86.5622C214.753 86.8323 215.757 87.2335 216.487 87.7659C217.225 88.2906 217.596 89.0391 217.596 90.0036Z" fill="white"/>
<path d="M226.395 93.121C226.121 93.202 225.868 93.2521 225.629 93.2753C225.399 93.3061 225.164 93.3216 224.926 93.3216C223.508 93.3216 222.446 92.9628 221.739 92.2413C221.039 91.5122 220.692 90.5515 220.692 89.3555V85.2969H218.77V82.6271H220.723V79.3401H223.801V82.6271H226.442V85.2969H223.801V88.9697C223.801 89.5986 223.961 90.0345 224.286 90.2814C224.618 90.5284 225.075 90.6518 225.661 90.6518C225.743 90.6518 225.852 90.648 225.989 90.6364C226.121 90.6287 226.258 90.6055 226.395 90.5747V93.121Z" fill="white"/>
<mask id="mask11_586_1651" style="mask-type:luminance" maskUnits="userSpaceOnUse" x="41" y="42" width="86" height="84">
<path d="M41.8242 42.1221H126.75V125.926H41.8242V42.1221Z" fill="white"/>
</mask>
<g mask="url(#mask11_586_1651)">
<path d="M126.832 84.4291C126.832 85.7949 126.766 87.1567 126.629 88.5109C126.496 89.8689 126.293 91.2192 126.023 92.5541C125.754 93.8929 125.418 95.2162 125.016 96.5202C124.617 97.8242 124.152 99.1089 123.625 100.37C123.094 101.628 122.504 102.859 121.855 104.063C121.203 105.266 120.492 106.435 119.727 107.57C118.961 108.704 118.137 109.799 117.262 110.853C116.387 111.906 115.457 112.917 114.48 113.881C113.504 114.846 112.484 115.76 111.414 116.624C110.348 117.492 109.238 118.303 108.09 119.059C106.941 119.819 105.762 120.517 104.543 121.161C103.324 121.806 102.078 122.388 100.801 122.909C99.5234 123.43 98.2266 123.889 96.9062 124.286C95.582 124.684 94.2461 125.012 92.8906 125.278C91.5352 125.544 90.1719 125.745 88.7969 125.88C87.4219 126.015 86.043 126.08 84.6641 126.08C83.2812 126.08 81.9023 126.015 80.5312 125.88C79.1562 125.745 77.7891 125.544 76.4375 125.278C75.082 125.012 73.7422 124.684 72.4219 124.286C71.1016 123.889 69.8008 123.43 68.5234 122.909C67.25 122.388 66.0039 121.806 64.7852 121.161C63.5664 120.517 62.3828 119.819 61.2344 119.059C60.0859 118.303 58.9766 117.492 57.9102 116.624C56.8437 115.76 55.8203 114.846 54.8438 113.881C53.8672 112.917 52.9414 111.906 52.0664 110.853C51.1875 109.799 50.3672 108.704 49.5977 107.57C48.832 106.435 48.125 105.266 47.4727 104.063C46.8203 102.859 46.2305 101.628 45.7031 100.37C45.1758 99.1089 44.7109 97.8242 44.3086 96.5202C43.9062 95.2162 43.5742 93.8929 43.3047 92.5541C43.0352 91.2192 42.832 89.8689 42.6953 88.5109C42.5586 87.1567 42.4922 85.7949 42.4922 84.4291C42.4922 83.0672 42.5586 81.7054 42.6953 80.3473C42.832 78.9893 43.0352 77.6429 43.3047 76.3041C43.5742 74.9654 43.9062 73.6459 44.3086 72.3381C44.7109 71.0341 45.1758 69.7532 45.7031 68.4916C46.2305 67.23 46.8203 65.9993 47.4727 64.7956C48.125 63.5919 48.832 62.4268 49.5977 61.2925C50.3672 60.1583 51.1875 59.0626 52.0664 58.0094C52.9414 56.9523 53.8672 55.9453 54.8438 54.9808C55.8203 54.0163 56.8437 53.0981 57.9102 52.2339C58.9766 51.3697 60.0859 50.5557 61.2344 49.7995C62.3828 49.0433 63.5664 48.3412 64.7852 47.6969C66.0039 47.0564 67.25 46.4739 68.5234 45.9492C69.8008 45.4283 71.1016 44.9692 72.4219 44.5757C73.7422 44.1783 75.082 43.8466 76.4375 43.5803C77.7891 43.3141 79.1562 43.1135 80.5312 42.9824C81.9023 42.8473 83.2812 42.7817 84.6641 42.7817C86.043 42.7817 87.4219 42.8473 88.7969 42.9824C90.1719 43.1135 91.5352 43.3141 92.8906 43.5803C94.2461 43.8466 95.582 44.1783 96.9062 44.5757C98.2266 44.9692 99.5234 45.4283 100.801 45.9492C102.078 46.4739 103.324 47.0564 104.543 47.6969C105.762 48.3412 106.941 49.0433 108.09 49.7995C109.238 50.5557 110.348 51.3697 111.414 52.2339C112.484 53.0981 113.504 54.0163 114.48 54.9808C115.457 55.9453 116.387 56.9523 117.262 58.0094C118.137 59.0626 118.961 60.1583 119.727 61.2925C120.492 62.4268 121.203 63.5919 121.855 64.7956C122.504 65.9993 123.094 67.23 123.625 68.4916C124.152 69.7532 124.617 71.0341 125.016 72.3381C125.418 73.6459 125.754 74.9654 126.023 76.3041C126.293 77.6429 126.496 78.9893 126.629 80.3473C126.766 81.7054 126.832 83.0672 126.832 84.4291Z" fill="white"/>
</g>
<path d="M76.5518 80.8154C76.6382 81.6442 77.168 82.332 77.9238 82.6798C79.4942 83.4015 82.2517 84.5554 83.8242 84.5554C85.3967 84.5554 88.1543 83.4008 89.7246 82.6798C90.4804 82.3327 91.0103 81.6435 91.0967 80.8154C91.181 80.003 91.2617 78.7882 91.2617 77.1179C91.2617 75.4477 91.181 74.2329 91.0967 73.4204C91.0103 72.5917 90.4804 71.9039 89.7239 71.5561C88.1543 70.8343 85.3974 69.6804 83.8242 69.6804C82.2517 69.6804 79.4942 70.835 77.9238 71.5561C77.168 71.9032 76.6382 72.5924 76.5518 73.4204C76.4675 74.2329 76.3867 75.4477 76.3867 77.1179C76.3867 78.7882 76.4675 80.003 76.5518 80.8154Z" stroke="black" stroke-width="1.5" stroke-linejoin="round"/>
<path d="M76.3867 72.6555C76.3867 72.6555 82.3226 75.6305 83.8242 75.6305C85.3259 75.6305 91.2617 72.6555 91.2617 72.6555" stroke="black" stroke-width="1.5" stroke-linejoin="round"/>
<path d="M83.8242 75.6304V84.5554" stroke="black" stroke-width="1.5" stroke-linecap="round" stroke-linejoin="round"/>
<path d="M69.1143 93.7424C69.2007 94.5712 69.7305 95.259 70.487 95.6068C72.0567 96.3285 74.8142 97.4824 76.3867 97.4824C77.9592 97.4824 80.7168 96.3278 82.2871 95.6068C83.0429 95.2597 83.5728 94.5705 83.6592 93.7424C83.7435 92.93 83.8242 91.7152 83.8242 90.0449C83.8242 88.3747 83.7435 87.1599 83.6592 86.3474C83.5728 85.5187 83.0429 84.8309 82.2871 84.4831C80.7168 83.7613 77.9592 82.6074 76.3867 82.6074C74.8142 82.6074 72.0567 83.762 70.4863 84.4831C69.7305 84.8302 69.2007 85.5194 69.1143 86.3474C69.03 87.1599 68.9492 88.3747 68.9492 90.0449C68.9492 91.7152 69.03 92.93 69.1143 93.7424Z" stroke="black" stroke-width="1.5" stroke-linejoin="round"/>
<path d="M68.9492 85.5825C68.9492 85.5825 74.8851 88.5575 76.3867 88.5575C77.8884 88.5575 83.8242 85.5825 83.8242 85.5825" stroke="black" stroke-width="1.5" stroke-linejoin="round"/>
<path d="M76.3867 88.5576V97.4826" stroke="black" stroke-width="1.5" stroke-linecap="round" stroke-linejoin="round"/>
<path d="M83.9893 93.7424C84.0757 94.5712 84.6055 95.259 85.3613 95.6068C86.9324 96.3285 89.6892 97.4824 91.2617 97.4824C92.8342 97.4824 95.5918 96.3278 97.1621 95.6068C97.9179 95.2597 98.4478 94.5705 98.5342 93.7424C98.6185 92.93 98.6992 91.7152 98.6992 90.0449C98.6992 88.3747 98.6185 87.1599 98.5342 86.3474C98.4478 85.5187 97.9179 84.8309 97.1614 84.4831C95.5918 83.7613 92.8356 82.6074 91.2617 82.6074C89.6892 82.6074 86.9317 83.762 85.3613 84.4831C84.6055 84.8302 84.0757 85.5194 83.9893 86.3474C83.905 87.1599 83.8242 88.3747 83.8242 90.0449C83.8242 91.7152 83.905 92.93 83.9893 93.7424Z" stroke="black" stroke-width="1.5" stroke-linejoin="round"/>
<path d="M83.8242 85.5825C83.8242 85.5825 89.7601 88.5575 91.2617 88.5575C92.7634 88.5575 98.6992 85.5825 98.6992 85.5825" stroke="black" stroke-width="1.5" stroke-linejoin="round"/>
<path d="M91.2617 88.5576V97.4826" stroke="black" stroke-width="1.5" stroke-linecap="round" stroke-linejoin="round"/>
</svg>
