<svg width="72" height="72" viewBox="0 0 72 72" fill="none" xmlns="http://www.w3.org/2000/svg">
<rect width="72" height="72" rx="10" fill="#420477" fill-opacity="0.6"/>
<path d="M27.0493 28.3541H40.8693C41.1579 28.3541 41.4001 28.2561 41.5961 28.0601C41.7921 27.8641 41.8901 27.6211 41.8901 27.3312C41.8901 27.0413 41.7921 26.799 41.5961 26.6044C41.4001 26.4097 41.1579 26.3124 40.8693 26.3124H27.0472C26.7587 26.3124 26.5164 26.4104 26.3204 26.6064C26.1244 26.8024 26.0271 27.0454 26.0284 27.3353C26.0298 27.6252 26.1271 27.8675 26.3204 28.0621C26.5137 28.2568 26.7566 28.3541 27.0493 28.3541ZM27.0493 36.5208H34.7443C35.0329 36.5208 35.2751 36.4228 35.4711 36.2268C35.6671 36.0308 35.7651 35.7878 35.7651 35.4979C35.7651 35.208 35.6671 34.9657 35.4711 34.771C35.2751 34.5764 35.0329 34.4791 34.7443 34.4791H27.0472C26.7587 34.4791 26.5164 34.5771 26.3204 34.7731C26.1244 34.9691 26.0271 35.212 26.0284 35.502C26.0298 35.7919 26.1271 36.0342 26.3204 36.2288C26.5137 36.4234 26.7566 36.5208 27.0493 36.5208ZM47.2291 44.6874H42.1249C41.835 44.6874 41.5927 44.5894 41.3981 44.3934C41.2034 44.1974 41.1054 43.9545 41.1041 43.6645C41.1027 43.3746 41.2007 43.1323 41.3981 42.9377C41.5954 42.7431 41.8377 42.6458 42.1249 42.6458H47.2291V37.5416C47.2291 37.2517 47.3271 37.0094 47.5231 36.8148C47.7191 36.6201 47.962 36.5221 48.252 36.5208C48.5419 36.5194 48.7842 36.6174 48.9788 36.8148C49.1734 37.0121 49.2708 37.2544 49.2708 37.5416V42.6458H54.3749C54.6648 42.6458 54.9071 42.7438 55.1018 42.9398C55.2964 43.1358 55.3944 43.3787 55.3958 43.6686C55.3971 43.9585 55.2991 44.2008 55.1018 44.3955C54.9044 44.5901 54.6621 44.6874 54.3749 44.6874H49.2708V49.7916C49.2708 50.0815 49.1728 50.3238 48.9768 50.5184C48.7808 50.7131 48.5378 50.8111 48.2479 50.8124C47.958 50.8138 47.7157 50.7158 47.521 50.5184C47.3264 50.3211 47.2291 50.0788 47.2291 49.7916V44.6874ZM23.3191 44.6874L20.0525 47.952C19.8007 48.2039 19.5033 48.2644 19.1603 48.1338C18.8173 48.0017 18.6458 47.7506 18.6458 47.3804V21.4451C18.6458 20.5372 18.969 19.7607 19.6155 19.1155C20.2621 18.4704 21.0379 18.1471 21.943 18.1458H45.9735C46.88 18.1458 47.6558 18.469 48.301 19.1155C48.9461 19.7621 49.2694 20.5379 49.2708 21.443V30.2855C49.2708 30.6244 49.1591 30.8994 48.9359 31.1103C48.7113 31.3227 48.4344 31.4248 48.105 31.4166C46.4213 31.4533 44.8737 31.7106 43.4622 32.1883C42.0494 32.6647 40.7005 33.546 39.4156 34.8323C38.1389 36.1172 37.2596 37.466 36.7778 38.8789C36.296 40.2917 36.0367 41.8393 35.9999 43.5216C36.0081 43.851 35.8992 44.128 35.6733 44.3526C35.4473 44.5772 35.1792 44.6888 34.8688 44.6874H23.3191Z" fill="white"/>
</svg>
