<svg width="58" height="58" viewBox="0 0 58 58" fill="none" xmlns="http://www.w3.org/2000/svg">
<rect width="58" height="58" rx="10" fill="#471277"/>
<g clip-path="url(#clip0_408_2002)">
<path d="M32.7083 30.3208C34.3107 30.3208 35.8474 30.9573 36.9804 32.0904C38.1135 33.2234 38.75 34.7601 38.75 36.3625V37.5708C38.75 38.2117 38.4954 38.8264 38.0422 39.2796C37.589 39.7329 36.9743 39.9875 36.3333 39.9875H19.4167C18.7757 39.9875 18.161 39.7329 17.7078 39.2796C17.2546 38.8264 17 38.2117 17 37.5708V36.3625C17 34.7601 17.6365 33.2234 18.7696 32.0904C19.9026 30.9573 21.4393 30.3208 23.0417 30.3208H32.7083ZM37.5417 23.0708C37.8621 23.0708 38.1695 23.1981 38.3961 23.4247C38.6227 23.6513 38.75 23.9587 38.75 24.2791V25.4875H39.9583C40.2788 25.4875 40.5861 25.6148 40.8128 25.8414C41.0394 26.068 41.1667 26.3753 41.1667 26.6958C41.1667 27.0163 41.0394 27.3236 40.8128 27.5502C40.5861 27.7768 40.2788 27.9041 39.9583 27.9041H38.75V29.1125C38.75 29.4329 38.6227 29.7403 38.3961 29.9669C38.1695 30.1935 37.8621 30.3208 37.5417 30.3208C37.2212 30.3208 36.9139 30.1935 36.6872 29.9669C36.4606 29.7403 36.3333 29.4329 36.3333 29.1125V27.9041H35.125C34.8045 27.9041 34.4972 27.7768 34.2706 27.5502C34.044 27.3236 33.9167 27.0163 33.9167 26.6958C33.9167 26.3753 34.044 26.068 34.2706 25.8414C34.4972 25.6148 34.8045 25.4875 35.125 25.4875H36.3333V24.2791C36.3333 23.9587 36.4606 23.6513 36.6872 23.4247C36.9139 23.1981 37.2212 23.0708 37.5417 23.0708ZM27.875 15.8208C29.4773 15.8208 31.0141 16.4573 32.1471 17.5904C33.2801 18.7234 33.9167 20.2601 33.9167 21.8625C33.9167 23.4648 33.2801 25.0015 32.1471 26.1346C31.0141 27.2676 29.4773 27.9041 27.875 27.9041C26.2726 27.9041 24.7359 27.2676 23.6029 26.1346C22.4699 25.0015 21.8333 23.4648 21.8333 21.8625C21.8333 20.2601 22.4699 18.7234 23.6029 17.5904C24.7359 16.4573 26.2726 15.8208 27.875 15.8208Z" fill="white"/>
</g>
<defs>
<clipPath id="clip0_408_2002">
<rect width="26.1667" height="26.3586" fill="white" transform="translate(16 15.8208)"/>
</clipPath>
</defs>
</svg>
