<svg width="32" height="32" viewBox="0 0 32 32" fill="none" xmlns="http://www.w3.org/2000/svg">
<rect width="32" height="32" rx="16" fill="#CFFAFE"/>
<path d="M18.6668 22V20.6667C18.6668 19.9594 18.3859 19.2811 17.8858 18.781C17.3857 18.281 16.7074 18 16.0002 18H12.0002C11.2929 18 10.6146 18.281 10.1145 18.781C9.61445 19.2811 9.3335 19.9594 9.3335 20.6667V22" stroke="#0B87BA" stroke-width="1.33333" stroke-linecap="round" stroke-linejoin="round"/>
<path d="M14.0002 15.3333C15.4729 15.3333 16.6668 14.1394 16.6668 12.6667C16.6668 11.1939 15.4729 10 14.0002 10C12.5274 10 11.3335 11.1939 11.3335 12.6667C11.3335 14.1394 12.5274 15.3333 14.0002 15.3333Z" stroke="#0B87BA" stroke-width="1.33333" stroke-linecap="round" stroke-linejoin="round"/>
<path d="M22.6665 22V20.6667C22.6661 20.0758 22.4694 19.5019 22.1074 19.0349C21.7454 18.5679 21.2386 18.2344 20.6665 18.0867" stroke="#0B87BA" stroke-width="1.33333" stroke-linecap="round" stroke-linejoin="round"/>
<path d="M18.6665 10.0867C19.2401 10.2335 19.7485 10.5671 20.1116 11.0349C20.4747 11.5026 20.6717 12.0779 20.6717 12.67C20.6717 13.2621 20.4747 13.8374 20.1116 14.3051C19.7485 14.7729 19.2401 15.1065 18.6665 15.2533" stroke="#0B87BA" stroke-width="1.33333" stroke-linecap="round" stroke-linejoin="round"/>
</svg>
