<svg width="63" height="63" viewBox="0 0 63 63" fill="none" xmlns="http://www.w3.org/2000/svg">
<g filter="url(#filter0_d_283_1219)">
<rect x="4" y="4" width="55" height="55" rx="15" fill="#470277" fill-opacity="0.6" shape-rendering="crispEdges"/>
<path d="M37.3333 38.6666V41.3333H18.6666V38.6666C18.6666 38.6666 18.6666 33.3333 28 33.3333C37.3333 33.3333 37.3333 38.6666 37.3333 38.6666ZM32.6666 26C32.6666 25.077 32.3929 24.1747 31.8802 23.4073C31.3674 22.6399 30.6385 22.0417 29.7858 21.6885C28.9331 21.3353 27.9948 21.2429 27.0895 21.423C26.1843 21.603 25.3528 22.0475 24.7001 22.7001C24.0475 23.3528 23.603 24.1843 23.423 25.0895C23.2429 25.9948 23.3353 26.9331 23.6885 27.7858C24.0417 28.6385 24.6399 29.3674 25.4073 29.8802C26.1747 30.3929 27.077 30.6666 28 30.6666C29.2376 30.6666 30.4246 30.175 31.2998 29.2998C32.175 28.4246 32.6666 27.2376 32.6666 26ZM37.2533 33.3333C38.073 33.9676 38.7437 34.7739 39.2182 35.6953C39.6927 36.6167 39.9596 37.631 40 38.6666V41.3333H45.3333V38.6666C45.3333 38.6666 45.3333 33.8266 37.2533 33.3333ZM36 21.3333C35.0823 21.329 34.185 21.6033 33.4266 22.12C34.2365 23.2516 34.672 24.6083 34.672 26C34.672 27.3916 34.2365 28.7483 33.4266 29.88C34.185 30.3966 35.0823 30.6709 36 30.6666C37.2376 30.6666 38.4246 30.175 39.2998 29.2998C40.175 28.4246 40.6666 27.2376 40.6666 26C40.6666 24.7623 40.175 23.5753 39.2998 22.7001C38.4246 21.825 37.2376 21.3333 36 21.3333Z" fill="white"/>
</g>
<defs>
<filter id="filter0_d_283_1219" x="0" y="0" width="63" height="63" filterUnits="userSpaceOnUse" color-interpolation-filters="sRGB">
<feFlood flood-opacity="0" result="BackgroundImageFix"/>
<feColorMatrix in="SourceAlpha" type="matrix" values="0 0 0 0 0 0 0 0 0 0 0 0 0 0 0 0 0 0 127 0" result="hardAlpha"/>
<feOffset/>
<feGaussianBlur stdDeviation="2"/>
<feComposite in2="hardAlpha" operator="out"/>
<feColorMatrix type="matrix" values="0 0 0 0 0 0 0 0 0 0 0 0 0 0 0 0 0 0 0.25 0"/>
<feBlend mode="normal" in2="BackgroundImageFix" result="effect1_dropShadow_283_1219"/>
<feBlend mode="normal" in="SourceGraphic" in2="effect1_dropShadow_283_1219" result="shape"/>
</filter>
</defs>
</svg>
