<svg width="72" height="72" viewBox="0 0 72 72" fill="none" xmlns="http://www.w3.org/2000/svg">
<rect width="72" height="72" rx="10" fill="#420477" fill-opacity="0.6"/>
<path fill-rule="evenodd" clip-rule="evenodd" d="M42.4785 22.5211C42.197 22.0712 41.7821 21.7203 41.2918 21.5172C40.8014 21.3141 40.2599 21.2689 39.7427 21.388L36.0718 22.2312C35.6956 22.3177 35.3047 22.3177 34.9285 22.2312L31.2575 21.388C30.7403 21.2689 30.1988 21.3141 29.7085 21.5172C29.2181 21.7203 28.8033 22.0712 28.5217 22.5211L26.5209 25.7143C26.3167 26.0409 26.0411 26.3166 25.7144 26.5228L22.5212 28.5236C22.0721 28.8049 21.7217 29.2191 21.5186 29.7086C21.3156 30.1981 21.27 30.7387 21.3881 31.2554L22.2313 34.9304C22.3175 35.3059 22.3175 35.6961 22.2313 36.0716L21.3881 39.7446C21.2695 40.2615 21.3149 40.8026 21.518 41.2925C21.7211 41.7824 22.0717 42.1969 22.5212 42.4784L25.7144 44.4792C26.0411 44.6834 26.3167 44.959 26.5229 45.2857L28.5237 48.4789C29.0995 49.3996 30.1979 49.8549 31.2575 49.612L34.9285 48.7688C35.3047 48.6823 35.6956 48.6823 36.0718 48.7688L39.7447 49.612C40.2617 49.7306 40.8027 49.6852 41.2926 49.4821C41.7826 49.279 42.1971 48.9284 42.4785 48.4789L44.4794 45.2857C44.6835 44.959 44.9592 44.6834 45.2858 44.4792L48.481 42.4784C48.9306 42.1965 49.2811 41.7816 49.4838 41.2912C49.6865 40.8009 49.7314 40.2596 49.6121 39.7426L48.771 36.0716C48.6845 35.6954 48.6845 35.3045 48.771 34.9283L49.6142 31.2554C49.733 30.7386 49.6879 30.1978 49.4852 29.7078C49.2825 29.2179 48.9322 28.8033 48.4831 28.5216L45.2879 26.5207C44.9617 26.3162 44.686 26.0405 44.4814 25.7143L42.4785 22.5211ZM41.4516 30.9471C41.5779 30.7149 41.6091 30.4427 41.5389 30.1879C41.4686 29.9331 41.3022 29.7155 41.0747 29.5809C40.8473 29.4462 40.5764 29.4051 40.3192 29.4661C40.0621 29.5271 39.8385 29.6854 39.6957 29.9079L34.3568 38.9443L31.133 35.8573C31.0374 35.7591 30.9229 35.6811 30.7965 35.6281C30.6701 35.5751 30.5343 35.5481 30.3972 35.5487C30.2602 35.5493 30.1246 35.5775 29.9987 35.6316C29.8727 35.6857 29.759 35.7646 29.6642 35.8637C29.5694 35.9627 29.4955 36.0798 29.447 36.208C29.3985 36.3362 29.3762 36.4729 29.3816 36.6098C29.3871 36.7468 29.42 36.8813 29.4785 37.0052C29.537 37.1292 29.6199 37.2401 29.7222 37.3314L33.875 41.3106C33.9861 41.4168 34.1198 41.4966 34.2661 41.544C34.4124 41.5913 34.5675 41.605 34.7199 41.584C34.8722 41.563 35.0178 41.5078 35.1459 41.4227C35.2739 41.3375 35.381 41.2245 35.4593 41.0921L41.4516 30.9471Z" fill="white"/>
</svg>
