<svg width="63" height="63" viewBox="0 0 63 63" fill="none" xmlns="http://www.w3.org/2000/svg">
<g filter="url(#filter0_d_283_1228)">
<rect x="4" y="4" width="55" height="55" rx="15" fill="#470277" fill-opacity="0.6" shape-rendering="crispEdges"/>
<path d="M30.7184 17V21.6019H32.2815V17H30.7183H30.7184ZM24.3358 18.3829L23.0551 19.2796L25.6942 23.0483L26.9741 22.1516L24.3358 18.3829ZM38.6638 18.3829L36.0255 22.1516L37.3057 23.0483L39.9447 19.2796L38.6641 18.3829H38.6638ZM31.4996 22.861C27.6758 22.861 24.5761 25.183 24.5761 28.0478L28.5097 39.9607H34.4902L38.4236 28.0478C38.4236 25.1831 35.324 22.861 31.5 22.861H31.4996ZM19.0653 24.2421L18.5312 25.7118L22.8534 27.2854L23.3895 25.8164L19.0652 24.2421H19.0653ZM43.9343 24.2421L39.61 25.8165L40.1442 27.2856L44.4685 25.7118L43.9343 24.2421ZM23.1807 30.9606L18.7364 32.1527L19.1397 33.6614L23.5839 32.4711L23.1807 30.9606H23.1807ZM39.8189 30.9606L39.416 32.4711L43.8602 33.6612L44.2632 32.1524L39.8189 30.9606V30.9606ZM28.4225 40.8291V42.8999H34.5775V40.8294H28.4225L28.4225 40.8291ZM28.4225 43.9293V46H34.5775V43.9296H28.4225L28.4225 43.9293Z" fill="white"/>
</g>
<defs>
<filter id="filter0_d_283_1228" x="0" y="0" width="63" height="63" filterUnits="userSpaceOnUse" color-interpolation-filters="sRGB">
<feFlood flood-opacity="0" result="BackgroundImageFix"/>
<feColorMatrix in="SourceAlpha" type="matrix" values="0 0 0 0 0 0 0 0 0 0 0 0 0 0 0 0 0 0 127 0" result="hardAlpha"/>
<feOffset/>
<feGaussianBlur stdDeviation="2"/>
<feComposite in2="hardAlpha" operator="out"/>
<feColorMatrix type="matrix" values="0 0 0 0 0 0 0 0 0 0 0 0 0 0 0 0 0 0 0.25 0"/>
<feBlend mode="normal" in2="BackgroundImageFix" result="effect1_dropShadow_283_1228"/>
<feBlend mode="normal" in="SourceGraphic" in2="effect1_dropShadow_283_1228" result="shape"/>
</filter>
</defs>
</svg>
