<svg width="326" height="326" viewBox="0 0 326 326" fill="none" xmlns="http://www.w3.org/2000/svg">
<g clip-path="url(#clip0_283_1233)">
<path d="M143.772 184.516C149.485 189.609 156.987 192.224 164.628 191.786C172.269 191.348 179.423 187.892 184.516 182.18C189.609 176.467 192.225 168.965 191.786 161.324C191.348 153.683 187.892 146.529 182.18 141.436C176.467 136.342 168.965 133.727 161.324 134.166C153.683 134.604 146.529 138.059 141.436 143.772C136.343 149.485 133.727 156.987 134.166 164.628C134.604 172.269 138.059 179.423 143.772 184.516ZM194.982 127.075C204.504 135.564 210.263 147.487 210.993 160.222C211.724 172.957 207.365 185.461 198.876 194.982C190.388 204.503 178.465 210.263 165.73 210.993C152.995 211.723 140.491 207.365 130.97 198.876C121.448 190.388 115.689 178.465 114.959 165.73C114.228 152.995 118.587 140.491 127.075 130.97C135.564 121.448 147.487 115.689 160.222 114.959C172.957 114.228 185.461 118.587 194.982 127.075ZM114.967 216.827C150.867 248.833 201.434 253.836 241.957 233.389C257.637 190.795 246.886 141.131 210.985 109.125C175.085 77.119 124.518 72.1159 83.9949 92.5624C68.3151 135.157 79.0663 184.82 114.967 216.827Z" fill="#470277" fill-opacity="0.05"/>
</g>
<defs>
<clipPath id="clip0_283_1233">
<rect width="230.861" height="230.861" fill="white" transform="translate(172.322 325.952) rotate(-138.282)"/>
</clipPath>
</defs>
</svg>
