<svg width="1440" height="470" viewBox="0 0 1440 470" fill="none" xmlns="http://www.w3.org/2000/svg">
<line y1="61.2996" x2="493.892" y2="61.2996" stroke="white" stroke-opacity="0.5"/>
<line y1="146.274" x2="493.892" y2="146.274" stroke="white" stroke-opacity="0.5"/>
<line y1="231.249" x2="493.892" y2="231.249" stroke="white" stroke-opacity="0.5"/>
<line y1="316.223" x2="493.892" y2="316.223" stroke="white" stroke-opacity="0.5"/>
<line y1="401.198" x2="493.892" y2="401.198" stroke="white" stroke-opacity="0.5"/>
<line x1="32.0098" y1="2.21912e-08" x2="32.0098" y2="462.394" stroke="white" stroke-opacity="0.5"/>
<line x1="100.16" y1="1.10327" x2="100.16" y2="463.497" stroke="white" stroke-opacity="0.5"/>
<line x1="168.307" y1="2.20703" x2="168.307" y2="464.601" stroke="white" stroke-opacity="0.5"/>
<line x1="236.455" y1="3.3103" x2="236.455" y2="465.704" stroke="white" stroke-opacity="0.5"/>
<line x1="304.604" y1="4.41406" x2="304.604" y2="466.808" stroke="white" stroke-opacity="0.5"/>
<line x1="372.75" y1="5.51733" x2="372.75" y2="467.911" stroke="white" stroke-opacity="0.5"/>
<line x1="440.9" y1="6.62109" x2="440.9" y2="469.015" stroke="white" stroke-opacity="0.5"/>
<line x1="469.42" y1="61.2996" x2="963.312" y2="61.2996" stroke="white" stroke-opacity="0.5"/>
<line x1="469.42" y1="146.274" x2="963.312" y2="146.274" stroke="white" stroke-opacity="0.5"/>
<line x1="469.42" y1="231.249" x2="963.312" y2="231.249" stroke="white" stroke-opacity="0.5"/>
<line x1="469.42" y1="316.223" x2="963.312" y2="316.223" stroke="white" stroke-opacity="0.5"/>
<line x1="469.42" y1="401.198" x2="963.312" y2="401.198" stroke="white" stroke-opacity="0.5"/>
<line x1="501.431" y1="2.21912e-08" x2="501.431" y2="462.394" stroke="white" stroke-opacity="0.5"/>
<line x1="569.58" y1="1.10327" x2="569.58" y2="463.497" stroke="white" stroke-opacity="0.5"/>
<line x1="637.727" y1="2.20703" x2="637.727" y2="464.601" stroke="white" stroke-opacity="0.5"/>
<line x1="705.875" y1="3.3103" x2="705.875" y2="465.704" stroke="white" stroke-opacity="0.5"/>
<line x1="774.025" y1="4.41406" x2="774.025" y2="466.808" stroke="white" stroke-opacity="0.5"/>
<line x1="842.172" y1="5.51733" x2="842.172" y2="467.911" stroke="white" stroke-opacity="0.5"/>
<line x1="910.32" y1="6.62109" x2="910.32" y2="469.015" stroke="white" stroke-opacity="0.5"/>
<line x1="946.107" y1="62.2849" x2="1440" y2="62.2849" stroke="white" stroke-opacity="0.5"/>
<line x1="946.107" y1="147.26" x2="1440" y2="147.26" stroke="white" stroke-opacity="0.5"/>
<line x1="946.107" y1="232.234" x2="1440" y2="232.234" stroke="white" stroke-opacity="0.5"/>
<line x1="946.107" y1="317.208" x2="1440" y2="317.208" stroke="white" stroke-opacity="0.5"/>
<line x1="946.107" y1="402.183" x2="1440" y2="402.183" stroke="white" stroke-opacity="0.5"/>
<line x1="978.119" y1="0.985352" x2="978.119" y2="463.379" stroke="white" stroke-opacity="0.5"/>
<line x1="1046.27" y1="2.08862" x2="1046.27" y2="464.482" stroke="white" stroke-opacity="0.5"/>
<line x1="1114.41" y1="3.19238" x2="1114.41" y2="465.586" stroke="white" stroke-opacity="0.5"/>
<line x1="1182.56" y1="4.29565" x2="1182.56" y2="466.689" stroke="white" stroke-opacity="0.5"/>
<line x1="1250.71" y1="5.39941" x2="1250.71" y2="467.793" stroke="white" stroke-opacity="0.5"/>
<line x1="1318.86" y1="6.50269" x2="1318.86" y2="468.896" stroke="white" stroke-opacity="0.5"/>
<line x1="1387.01" y1="7.60645" x2="1387.01" y2="470" stroke="white" stroke-opacity="0.5"/>
</svg>
