<svg width="63" height="63" viewBox="0 0 63 63" fill="none" xmlns="http://www.w3.org/2000/svg">
<g filter="url(#filter0_d_283_1238)">
<rect x="4" y="4" width="55" height="55" rx="15" fill="#470277" fill-opacity="0.6" shape-rendering="crispEdges"/>
<path d="M38.6668 25.3334C35.8748 25.3334 33.8521 27.4227 31.9988 29.7947C30.1454 27.4227 28.1241 25.3334 25.3334 25.3334C21.6574 25.3334 18.6668 28.324 18.6668 32C18.6646 32.8749 18.8354 33.7415 19.1692 34.5502C19.5031 35.3588 19.9934 36.0935 20.6121 36.712C21.2285 37.3331 21.962 37.8257 22.7702 38.1612C23.5784 38.4968 24.4451 38.6686 25.3201 38.6667H25.3361C28.1214 38.66 30.1428 36.5707 31.9974 34.1987C33.8521 36.5747 35.8748 38.6667 38.6668 38.6667C42.3428 38.6667 45.3334 35.676 45.3334 32C45.3334 28.324 42.3428 25.3334 38.6668 25.3334ZM25.3308 36L25.3201 37.3334V36C24.2548 36 23.2534 35.584 22.5014 34.8294C21.9441 34.2688 21.5651 33.5559 21.4121 32.7803C21.2592 32.0048 21.3392 31.2013 21.642 30.4711C21.9448 29.7409 22.4569 29.1167 23.1137 28.6769C23.7706 28.2372 24.543 28.0017 25.3334 28C27.1068 28 28.7468 29.9174 30.3281 31.9974C28.7441 34.076 27.1041 35.996 25.3308 36ZM38.6668 36C36.8934 36 35.2521 34.08 33.6681 31.9974C35.2508 29.9174 36.8908 28 38.6668 28C40.8721 28 42.6668 29.7947 42.6668 32C42.6668 34.2054 40.8721 36 38.6668 36Z" fill="white"/>
</g>
<defs>
<filter id="filter0_d_283_1238" x="0" y="0" width="63" height="63" filterUnits="userSpaceOnUse" color-interpolation-filters="sRGB">
<feFlood flood-opacity="0" result="BackgroundImageFix"/>
<feColorMatrix in="SourceAlpha" type="matrix" values="0 0 0 0 0 0 0 0 0 0 0 0 0 0 0 0 0 0 127 0" result="hardAlpha"/>
<feOffset/>
<feGaussianBlur stdDeviation="2"/>
<feComposite in2="hardAlpha" operator="out"/>
<feColorMatrix type="matrix" values="0 0 0 0 0 0 0 0 0 0 0 0 0 0 0 0 0 0 0.25 0"/>
<feBlend mode="normal" in2="BackgroundImageFix" result="effect1_dropShadow_283_1238"/>
<feBlend mode="normal" in="SourceGraphic" in2="effect1_dropShadow_283_1238" result="shape"/>
</filter>
</defs>
</svg>
